<svg width="45" height="34" viewBox="0 0 45 34" fill="none" xmlns="http://www.w3.org/2000/svg">
<path fill-rule="evenodd" clip-rule="evenodd" d="M15 23.9777L2 31.5261L2 2.47411L15 10.0225L15 23.9777ZM15 26.2904L3.00427 33.2557C1.67094 34.0299 0 33.0679 0 31.5261V2.47411C0 0.932315 1.67095 -0.029659 3.00427 0.744531L15 7.7098V2.47411C15 0.932315 16.6709 -0.029659 18.0043 0.744531L43.0213 15.2705C44.3489 16.0414 44.3489 17.9588 43.0213 18.7297L18.0043 33.2557C16.6709 34.0299 15 33.0679 15 31.5261V26.2904ZM17 8.87109L17 2.47411L42.017 17.0001L17 31.5261L17 25.1292L28.0213 18.7297C29.3489 17.9588 29.3489 16.0414 28.0213 15.2705L17 8.87109ZM17 11.1838L27.017 17.0001L17 22.8164L17 11.1838Z" fill="#D63384"/>
</svg>
