<svg width="45" height="30" viewBox="0 0 45 30" fill="none"
  xmlns="http://www.w3.org/2000/svg">
  <path fill-rule="evenodd" clip-rule="evenodd" d="M22.4996 12.4553L31.5256 28.0001L13.4736 28.0001L22.4996 12.4553ZM21.3432 10.4638L11.744 26.9958C11.5556 27.3203 11.47 27.6647 11.4706 28.0001L2.47357 28.0001L16.9996 2.98311L21.3432 10.4638ZM22.4996 8.47234L18.7292 1.97884C17.9583 0.651201 16.0409 0.651198 15.27 1.97884L0.743994 26.9958C-0.0301959 28.3292 0.931778 30.0001 2.47357 30.0001H13.4736H31.5256H42.5256C44.0674 30.0001 45.0294 28.3292 44.2552 26.9959L29.7292 1.97884C28.9583 0.651201 27.0409 0.651198 26.27 1.97884L22.4996 8.47234ZM23.6559 10.4638L33.2552 26.9959C33.4435 27.3203 33.5291 27.6647 33.5286 28.0001L42.5256 28.0001L27.9996 2.98311L23.6559 10.4638Z" fill="#D63384"/>
</svg>
