<svg width="22" height="34" viewBox="0 0 22 34" fill="none" xmlns="http://www.w3.org/2000/svg">
<path fill-rule="evenodd" clip-rule="evenodd" d="M11.1327 18.1084L19.4676 32L2.53239 32L10.8674 18.1084C10.9557 18.1141 11.0443 18.1141 11.1327 18.1084ZM12.8 17L21.1826 30.971C21.9824 32.3041 21.0222 34 19.4676 34L2.53239 34C0.977802 34 0.0175759 32.3041 0.817405 30.971L9.20001 17L0.817401 3.02899C0.0175715 1.69594 0.977798 1.96048e-08 2.53239 8.7558e-08L19.4676 8.2782e-07C21.0222 8.95774e-07 21.9824 1.69594 21.1826 3.02899L12.8 17ZM11.1326 15.8916L19.4676 2L2.53239 2L10.8674 15.8916C10.9557 15.8859 11.0443 15.8859 11.1326 15.8916Z" fill="#D63384"/>
</svg>
