<svg width="38" height="34" viewBox="0 0 38 34" fill="none" xmlns="http://www.w3.org/2000/svg">
<path fill-rule="evenodd" clip-rule="evenodd" d="M29.9882 12.8583L35.3647 15.9353C36.0342 16.3185 36.0361 17.2835 35.3679 17.6693L29.9581 20.7926L29.9882 12.8583ZM29.9969 10.5589L36.3581 14.1995C38.3668 15.3491 38.3723 18.2441 36.3679 19.4013L29.9493 23.1071L29.92 30.8531C29.9112 33.1524 27.4254 34.5876 25.4298 33.4455L18.7069 29.5979L12.421 33.2271C10.4166 34.3843 7.91222 32.9321 7.92099 30.6177L7.9482 23.4406L1.58699 19.8001C-0.421758 18.6505 -0.427252 15.7555 1.57713 14.5983L7.99576 10.8925L8.02512 3.14643C8.03384 0.84714 10.5196 -0.58805 12.5152 0.554047L19.2382 4.40164L25.5241 0.772465C27.5285 -0.384764 30.0329 1.06747 30.0241 3.38191L29.9969 10.5589ZM21.247 5.55127L26.5241 2.50452C27.1922 2.11877 28.027 2.60286 28.0241 3.37433L28.0012 9.41677L21.247 5.55127ZM19.2426 6.70851L27.9925 11.7162L27.9537 21.9499L18.7025 27.291L9.9526 22.2834L9.99139 12.0497L19.2426 6.70851ZM17.2338 5.55888L11.5218 2.28988C10.8566 1.90918 10.028 2.38757 10.0251 3.15401L10.0002 9.73521L17.2338 5.55888ZM7.98699 13.2069L2.57713 16.3303C1.90901 16.716 1.91083 17.681 2.58042 18.0642L7.95691 21.1413L7.98699 13.2069ZM9.94388 24.5828L9.92098 30.6252C9.91806 31.3967 10.7528 31.8808 11.421 31.495L16.6981 28.4483L9.94388 24.5828ZM20.7113 28.4407L26.4233 31.7097C27.0885 32.0904 27.9171 31.612 27.92 30.8456L27.9449 24.2643L20.7113 28.4407Z" fill="#D63384"/>
</svg>
