<svg width="30" height="34" viewBox="0 0 30 34" fill="none" xmlns="http://www.w3.org/2000/svg">
<path fill-rule="evenodd" clip-rule="evenodd" d="M16.9907 8.86663L28 2.47411L28 15.2592L16.9907 8.86663ZM14.9992 7.71028L26.9957 0.74453C28.3291 -0.0296589 30 0.932316 30 2.47411V31.5261C30 33.0679 28.3291 34.0299 26.9957 33.2557L15.0008 26.2909L3.00427 33.2567C1.67094 34.0309 0 33.0689 0 31.5271V2.47509C0 0.933292 1.67095 -0.0286824 3.00427 0.745508L14.9992 7.71028ZM15.0008 23.9782L2.98299 17.0001L14.9992 10.023L27.017 17.0011L15.0008 23.9782ZM16.9923 25.1346L28 31.5261L28 18.743L16.9923 25.1346ZM13.0093 25.1346L2 31.5271L2 18.7421L13.0093 25.1346ZM2 15.2582L2 2.47509L13.0077 8.86663L2 15.2582Z" fill="#D63384"/>
</svg>
