<?xml version="1.0" encoding="UTF-8"?><svg id="Layer_2" xmlns="http://www.w3.org/2000/svg" viewBox="0 0 408.2672 303.7449"><defs><style>.cls-1{fill:#473019;}.cls-1,.cls-2,.cls-3,.cls-4,.cls-5,.cls-6,.cls-7,.cls-8,.cls-9,.cls-10,.cls-11,.cls-12,.cls-13,.cls-14,.cls-15,.cls-16,.cls-17,.cls-18,.cls-19,.cls-20,.cls-21{stroke-width:0px;}.cls-2{fill:#2e2e2e;}.cls-3{fill:#908833;}.cls-4{fill:#e9a94a;}.cls-5{fill:#b53127;}.cls-6{fill:#6e8f3c;}.cls-7{fill:#d84751;}.cls-8{fill:#97459a;}.cls-9{fill:#ea723c;}.cls-10{fill:#fff;opacity:.5;}.cls-11{fill:#f1bf8c;}.cls-12{fill:#f58257;}.cls-13{fill:#f6b864;}.cls-14{fill:#593a18;}.cls-15{fill:#8cac4a;}.cls-16{fill:#7a2017;}.cls-17{fill:#a99f3c;}.cls-18{fill:#aac843;}.cls-19{fill:#cab736;}.cls-20{fill:#f29881;}.cls-22{fill:none;stroke:#7a2017;stroke-linecap:round;stroke-miterlimit:10;stroke-width:2px;}.cls-21{fill:#bb772b;}</style></defs><g id="Layer_1-2"><g id="Mom_Head"><path class="cls-17" d="M67.1749,186.9668c-6.1772,3.9443-10.9845,8.45-13.0528,13.6839.9326.4901,4.5499,3.7025,4.8153,4.8287.5046,2.6349,1.2355,5.2682,2.115,7.9013.6308,1.8887-3.3534,1.16-5.0005.9005-5.5409-.8504-10.8372-1.8032-15.7526-2.8667-1.4909-.3075-4.6641-2.3181-4.5933-4.1805.1242-2.2599.3736-4.5096.8098-6.7366.1671-1.1991,3.0884-2.7327,4.113-2.712,2.5543-8.9137,12.2053-15.4818,24.5532-21.9936,2.6594-1.4355,4.459-1.5512,4.1672-.2779-.5103,2.5561-.4371,5.0446.1139,7.5.239,1.2187-.7628,2.9684-2.2881,3.9529Z"/><path class="cls-3" d="M54.1214,200.6513c-.0038.0019-2.3078-.3358-3.8976-.6155-.7837-.1223-1.205-1.2923-.7472-2.558,2.4826-6.5846,7.2429-10.0468,14.9575-14.9691,1.5118-.9609,2.8544-1.7552,4.6767-1.6039.1008.5366.2141,1.5922.351,2.1101.3464,1.4017-1.0211,3.1318-2.2864,3.9531-5.2877,3.4295-10.2437,7.7179-12.4215,12.2806-.4121.8453-.6311,1.4026-.6326,1.4026Z"/><path class="cls-19" d="M49.701,199.7473c-.0056.0108-1.8566-.6012-2.5776-.493-.3269.0618-.2284-.4097.3404-1.956,3.2583-7.8818,9.4707-11.9648,17.681-16.8026,1.6171-.9242,3.862-1.7884,3.8555-1.7851-.042.76-.0019,1.4884.1103,2.1869.0118.0068-2.8204.6142-6.0111,2.5175-4.4999,2.6692-11.3855,7.662-13.1164,14.0461-.3454,1.1738-.2819,2.2871-.2821,2.2861Z"/><path class="cls-12" d="M97.5514,240.013c-.9334-.0585-1.1578,34.0103-10.8236,41.255-.3206.3565-2.8546,1.4824-3.7615,1.2974-.5524-.1147-1.1067-.226-1.6626-.3339-.8739-.1697-1.4492-.5851-1.3789-1.0132.1419-.9111.2584-1.8282.3455-2.7509-1.2368,1.2376-2.5172,2.2791-3.7025,3.0971-.4523.3377-3.5823,1.5143-4.5458,1.4028-.5889-.0739-1.1782-.1438-1.768-.2094-.9298-.1034-1.4696-.4578-1.304-.8699.0954-.2443.1871-.4891.2753-.7342-1.6696.5202-3.3606.998-3.6678.9769-.5367-.5749-1.081-1.1453-1.6408-1.7125-.1145.1169-.2304.2335-.3474.3504-.469.3599-4.6482,1.0259-5.31,1.038-1.8083-.2052-3.6185-.3717-5.4392-.4993-.5561.0069-3.2942-2.8321-3.2649-3.2352.3778-.7249.7191-1.4463,1.0256-2.1642-1.0541,1.1516-2.1821,2.3205-3.3844,3.5161-.5113.4546-1.5572.8327-2.4967.917-.6003.0534-1.2017.1105-1.8035.1722-.9018.0791-4.414-.8529-4.4263-1.2704.1306-.8566.2094-1.7049.2402-2.5473-.4321.6918-.8815,1.3896-1.3478,2.095-.417.4997-1.6352,1.5334-2.4631,1.5706.1811-.1212-9.8835-4.3381-10.8793-4.21-.1907-.0145-.9041-.0203-1.1518-.6423-1.2609-14.8954-7.013-29.6313-9.1689-45.8099-.2015-.5757-.1965-1.174-.0049-1.7473,5.952-8.6486,8.5809-16.7051,12.1949-24.5439.0628-.3933.4925-.6286,1.0367-.5694.3472.0375.6977.0749,1.0514.1119.5541.058,1.0796.3917,1.2555.8025.3387.8786.6991,1.7553,1.0803,2.6292.381-1.1791.7899-2.3514,1.2402-3.5153.1111-.4974.7442-1.4014,1.6579-1.2078.4195.0898,1.4142.3719,1.8711.5533.1911.0742.8896.3056,1.3064,1.0551,1.2297,1.0468,2.5202,2.0791,3.8679,3.0961.4512-.9362.9335-1.8687,1.4542-2.7976.0677-.4716.5486-1.3578,1.2913-1.2144.3423.068,1.1473.2908,1.5154.4435.1544.0643.7186.2553,1.0749.9513.2958.4671.5999.9334.9122,1.3989.1393-.2982.2823-.5963.4292-.8941.0538-.4695,2.5202-1.7484,3.3398-1.6287.3669.0583,1.233.2581,1.6304.3995.1659.0596.7689.2339,1.1422.9149.5269.6215,1.0688,1.2413,1.625,1.8592.4527-.2262.9214-.4486,1.4098-.6646,2.8245-1.2648,3.8392-3.8573,5.0886-3.8844,2.4445-.0546,4.6479,2.1155,5.2656,2.2925,1.0253.2989,2.3264.6658,3.5978,1.0402.3397-.5642.6914-1.131,1.0551-1.7002.2153-.5061,1.2483-1.517,2.598-1.5011.6187.0086,2.0674.0972,2.7171.1865.2726.04,1.2787.1343,1.7856.8198,6.9215,5.9975,14.4904,12.1421,19.9948,19.1501,2.2654,5.163-.7159,17.9103-.6319,18.4786Z"/><path class="cls-9" d="M27.7823,227.8356c.0722.5313.1265,1.0761.1574,1.5996,1.11,16.4564,8.5324,32.5901,10.8027,46.1908.0219.3965-.0375,1.1092-.0388,1.1089.1015.052-2.0287-4.5108-2.2088-4.6491-.0334-.0371-.1457-.1327-.3122-.6981.15-.0295-1.8246-6.8382-4.7933-15.5735-2.9852-8.6739-5.2712-19.3602-6.4697-24.6137-.1595-.5599-.7072-3.5962-.6941-4.159,1.5205-7.9619,2.9959-14.8267,5.8439-20.2649.0795-.3168.263-.2983.2631-.2989-.0001,0-.0789.3732-.0781.4603-.0005.4592-.0167.8413-.0558,1.1822-1.7181,5.7755-2.2311,12.496-2.4163,19.7154Z"/><path class="cls-9" d="M83.4747,228.5426c-.2322-.5527-.4624-1.1252-.6698-1.6801-3.2201-7.3135-7.6089-14.1248-12.1122-20.4954-.2544-.4239-.7068-1.2522-.5667-1.1979.0639.0248.2564.1483.3721.2496.0483.0425.2023.1617.6212.7543,3.0626,3.4562,6.1273,7.1086,8.8844,11.0214,2.7514,4.128,5.0395,7.6988,5.2173,8.2852,2.2262,6.6251,4.7503,18.2335,4.4975,28.6667.158,10.5723-4.095,19.1275-7.4987,22.5158-.257.322-1.4728,1.4958-1.528,1.455-.026-.0235-.051-.0472-.0772-.0706-.0416-.0369.1467-.3015.4359-.6403,11.4869-13.2872,8.0462-32.2888,2.4241-48.8639Z"/><path class="cls-9" d="M75.2784,233.1824c.2575-.9807-13.4311-19.1535-14.0309-19.2671.0001-.0088-2.6902-2.4403-4.3362-4.9167-.7348-1.1035-2.2721-3.1884-2.2408-3.2047.0442-.0398,1.4513,1.74,1.5933,1.9015.6179.7245,1.6764,1.953,2.1392,2.5479,3.2628,3.0471,6.6729,6.2603,9.9778,9.7065,3.2426,4.0768,9.3014,15.2516,9.3212,15.9207-.1741-.0829,4.1784,9.2869,4.3387,19.642.8997,10.5055-5.7707,20.4327-10.7589,24.0421-.3589.3407-2.0017,1.6546-2.0376,1.6409-.0108-.0072-.0226-.0146-.0336-.0217-.0181-.0117.281-.2714.7015-.6283,16.4863-12.8713,12.8797-31.2068,5.3666-47.3632Z"/><path class="cls-9" d="M43.1435,230.6012c-.2693-.5626-2.4761-9.1368-2.5731-9.6997-.0786-.0207-.8591-9.1808-.5963-13.2899.0079-.6966.2752-1.2845.2759-1.2844,0,0,.1823.4077.205.5424.0327.2031.0678.4476.0742.8552-.3863,6.0618,5.1419,21.3784,5.2567,21.3358.2408.5539.468,1.1247.6681,1.676,5.1293,13.6723,10.865,27.2523,6.4635,40.9877-.0553.4023-2.1465,4.1583-2.3089,4.1853.0053.001-.4819-.8508-.4074-1.1681.1371-.0818,1.1755-4.5854,1.1266-4.9936,2.641-13.0634-3.1133-25.953-8.1844-39.1467Z"/><path class="cls-9" d="M61.9505,230.5119c-.2578-.5736-7.8685-10.6801-8.2153-11.132-2.3072-4.1009-4.5657-8.2164-6.4592-12.3501-.2469-.4275-.8147-1.7054-.7213-1.6289.0414.0359.1754.1832.2617.2973.0362.0464.147.1845.5152.7924-.1385-.0078,5.4238,8.544,8.6828,12.8371.3579.4693,5.6458,6.2322,5.9655,6.7896,3.6267,5.6179,11.8623,18.7887,12.402,30.737,1.472,11.9451-7.8997,21.2941-8.0086,21.269-.3137.3772-2.3928,2.3542-2.4611,2.346.3438-.4599.6666-.9183.9702-1.3767.1431-.0061,3.7706-4.3569,3.8447-4.7502,9.3357-14.1289,2.3801-30.0384-6.7768-43.8304Z"/><path class="cls-20" d="M29.1759,228.7506c.074.5312.1377,1.0772.1937,1.6045,1.0408,15.8049,7.7657,31.6749,9.4007,45.4232.0315.4003-.0253,1.1272-.0262,1.1266.1124.0394-1.4364-4.9567-1.5928-5.1017-.0224-.0433.0056-.1329-.1404-.7163-.0594.0724-1.3193-6.8224-3.6351-15.2403-2.3165-8.3618-4.6821-18.4832-5.3668-23.4654-.1291-.5375-.6288-3.4464-.6544-3.9929.2032-7.9783.7481-15.3812,2.8034-21.6212.0738-.3325.1772-.3762.1775-.3765.0003.0005.0043.4477-.0031.5302-.0419.4392-.1211.8796-.1701,1.2251-1.3591,6.2183-1.4056,13.2676-.9865,20.6046Z"/><path class="cls-20" d="M85.8021,228.5962c-.2087-.5742-.4222-1.1681-.6245-1.7407-3.6737-7.6013-8.7847-14.4217-14.0045-20.6272-.262-.4236-1.0573-1.067-1.057-1.0656.1959.0801.3921.1608.5889.2419.0007.0007.183.2082.691.7228,3.5986,3.3582,7.2174,6.9789,10.4549,10.9668,2.4488,4.3139,4.2581,8.0369,4.4458,8.6226,2.2924,6.7,4.3194,18.4586,3.8148,28.7809-.1222,10.4943-4.5713,18.7557-7.9067,22.1913-.2513.3241-1.4265,1.535-1.4621,1.5108-.013-.0121-.0272-.0244-.0401-.0366-.0218-.0199.1842-.2679.4778-.6035,11.9137-12.7975,9.0369-31.7501,4.6217-48.9634Z"/><path class="cls-20" d="M70.0954,222.4501c-.3098-.6479-7.6179-8.4217-7.9969-8.818-.0014-.014-3.3485-2.2173-5.0365-4.66-.7549-1.0918-2.2937-3.1762-2.27-3.1872.0274-.0312,1.4179,1.7595,1.5549,1.9225.6017.7332,1.6858,1.6438,2.1422,2.2408,3.3373,3.0004,6.8304,6.1748,10.2218,9.5948,3.2287,4.0929,9.3228,15.3101,9.3477,15.9857-.1756-.0862,4.1144,9.446,4.2029,19.8903.8369,10.6076-5.9714,20.5351-10.9419,24.1473-.3557.342-1.9884,1.6606-2.0179,1.6501-.0082-.0052-.0157-.0096-.024-.0151-.0123-.0084.2921-.2656.7125-.6213,20.0547-15.7002,11.1727-39.4554.1054-58.1298Z"/><path class="cls-20" d="M46.3728,231.1644c-.2672-.5448-3.2098-9.0108-3.3227-9.5761-.092.0035-2.4892-9.2445-2.6652-13.4659-.0669-.7075.0706-1.3236.071-1.3234-.0007.0012.0897.3857.1096.5209.0285.2022.0606.4455.1033.8597.1606,6.1696,6.0242,21.4019,6.1311,21.3615.2288.5505.4573,1.1192.6723,1.6673,4.8461,13.4615,10.1261,26.9101,5.4556,40.5387-.0396.399-2.286,4.2762-2.3969,4.2943.0067-.001.5129-1.1155.6182-1.4342.144-.0876,1.6875-4.6283,1.6517-5.0333,3.254-12.8907-1.7816-25.6151-6.428-38.4095Z"/><path class="cls-20" d="M61.3924,230.7819c-.2399-.5612-7.465-10.7646-7.8254-11.2253-2.2403-4.148-4.4428-8.3201-6.2786-12.5162-.2518-.4263-.8086-1.7047-.7388-1.6168.03.0411.1036.2105.1792.33.0319.0493.0632.2191.4249.8311-.1378.0121,4.3411,9.0781,7.483,13.3306.3506.4806,4.889,6.3852,5.2088,6.9172,3.6786,5.5018,12.0516,17.9234,13.1907,29.4038,2.0027,11.4586-6.0253,20.7332-6.1235,20.6813-.2943.3808-2.052,2.1976-2.0933,2.1942.3308-.3811.6479-.7617.951-1.1429.1595.0029,3.6046-4.3618,3.6661-4.7603,8.033-13.8801,1.0313-29.2013-8.0442-42.4269Z"/><path class="cls-20" d="M64.0362,229.1825c-.265-.5953-8.4527-10.3576-8.7874-10.7799-2.7166-3.8057-5.3534-7.571-7.6566-11.3145-.2472-.4148-.8835-1.6235-.8159-1.5384.0296.0404.1369.1938.2106.3099.0324.0482.1218.1885.4764.7842-.1254-.0179,5.7573,7.8648,8.855,12.1002.3359.4566,5.8874,5.7687,6.2163,6.3193,3.6423,5.483,11.8053,18.8167,12.4371,30.8779,1.5518,12.0837-7.6889,21.4604-7.8013,21.4268-.2602.3707-2.7829,2.8206-2.8512,2.8168.6093-.5992,1.1828-1.1975,1.7217-1.7966.1504.0033,3.5676-4.2368,3.6366-4.6233,9.5452-14.0532,3.0277-30.291-5.6411-44.5826Z"/></g><g id="Mom_Head-2"><path class="cls-17" d="M211.983,189.0318c-5.7395,5.7684-9.2886,11.8497-10.6439,17.3115.6931.5823,3.1538,3.813,3.2893,4.8141.2946,2.4737.7212,4.71,1.23,6.7946.3536,1.4902-2.1284.9813-3.1465.7677-3.4328-.6719-6.8491-1.6659-10.7578-2.9814-1.136-.3664-3.9914-2.4371-4.1256-4.1588-.0896-2.0612-.0989-4.205.0286-6.4558.026-1.1979,2.3453-2.5906,3.1703-2.5071,1.1844-9.1075,7.6094-20.8222,20.4861-32.6841,2.7641-2.4747,4.573-2.2425,4.0598.1133-.9211,4.7559-1.2091,9.1135-1.0767,13.0332.0316,1.9527-1.1065,4.5333-2.5137,5.9527Z"/><path class="cls-3" d="M201.3387,206.3439c-.0016.0048-1.6266-.3857-2.7897-.7413-.5677-.1568-.9452-1.4226-.6786-2.8538,1.5187-7.5119,4.9214-12.9365,12.2092-20.7542,1.4375-1.5312,2.7714-2.7912,4.4113-2.3743.0112.9129-.0424,2.6383.0045,3.4604.0973,2.2423-1.3496,4.7644-2.5121,5.953-4.9422,5.0163-8.7523,10.8788-10.2174,15.8046-.2831.9233-.4258,1.5043-.4272,1.5057Z"/><path class="cls-19" d="M198.1568,205.275c.0015.0146-1.3882-.7191-1.9252-.6394-.2388.0437-.2014-.4334.1171-2.1645,1.901-8.9037,6.5566-16.0161,14.5817-23.861,1.572-1.5089,3.7993-2.7821,3.7939-2.7697-.1572,1.3353-.2301,2.59-.2325,3.7677.0222.003-2.7068.7925-5.6731,3.8299-4.2961,4.2492-9.7405,12.1799-10.5731,19.3072-.1935,1.3339-.0875,2.5305-.0887,2.5298Z"/><path class="cls-12" d="M242.9678,240.2217c-1.2892.6469-3.246,30.6337-10.7995,43.2408-.2648.5182-2.4945,2.8127-3.3945,2.811-.5564-.0292-1.1123-.0582-1.6685-.0856-.8738-.0406-1.5161-.5805-1.5439-1.2863-.0665-1.4974-.1533-2.9478-.2635-4.3591-.9229,2.0609-1.9056,4.0308-2.855,5.7107-.3501.6468-3.0925,3.5663-4.0568,3.6093-.5836-.0002-1.167-.0002-1.7507,0-.9211.0017-1.5043-.5931-1.4121-1.4111.0515-.4844.0992-.9638.1426-1.4383-1.5078,1.2602-3.0928,2.4665-3.3966,2.4658-.5971-1.0619-1.1899-2.1118-1.7847-3.1458-.0974.2356-.1966.4731-.2974.7121-.3965.7722-4.429,2.418-5.0935,2.4261-1.7814-.3604-3.55-.7202-5.3162-1.0705-.5764-.0732-2.9693-5.7289-2.876-6.388.415-1.2968.7847-2.5618,1.1129-3.7945-1.0343,1.9534-2.1844,3.9867-3.4618,6.0844-.5355.7948-1.5819,1.3802-2.4884,1.4005-.5786.0133-1.1594.0284-1.741.0442-.8795-.0117-4.0188-2.2896-3.9409-2.9724.2918-1.4283.5262-2.8182.7115-4.1665-.5284,1.063-1.082,2.1419-1.6612,3.233-.4889.7645-1.8571,2.2619-2.6525,2.1481.3011-.601-8.5616-8.1049-9.9046-7.5027-.1994-.0267-.9615-.0709-1.1428-.8299,1.3097-18.1139-6.5168-29.0034-11.0374-45.5409-.3718-.5717-.3627-1.1734-.009-1.7439,10.6871-8.5097,13.4889-14.834,17.1486-21.885.0361-.3733.5103-.528,1.1256-.3755.3922.0968.7837.1933,1.1715.2882.6089.1493,1.1971.5607,1.4235.9881.4449.9077.9043,1.8015,1.3747,2.6795.2809-1.0507.5748-2.1132.8927-3.1937.0559-.4713.5798-1.2853,1.4644-.9703.4096.1468,1.3596.5572,1.7882.7933.1817.0966.8318.4152,1.2719,1.2,1.1827,1.1696,2.3557,2.2917,3.5082,3.3597.2815-.8261.5825-1.6691.9089-2.5347.0113-.453.3118-1.3009.8965-1.1018.2704.0946.8997.3764,1.1856.5528.1205.0738.5566.3053.8643,1.0093.2484.4753.4984.9422.7492,1.4015.0819-.2751.167-.5524.2547-.8327.0119-.4392,1.7039-1.5966,2.2837-1.4596.261.0718.8725.2986,1.1512.4486.1169.0627.5395.2548.8085.9281.373.6167.7483,1.2161,1.1245,1.7991.299-.2073.6106-.4142.9372-.6185,1.8811-1.1749,2.6662-3.8546,3.5539-3.9308,1.7381-.1013,3.2107,1.9771,3.6447,2.0951.7265.2343,1.6621.5038,2.6057.7608.3047-.5683.6252-1.1508.9623-1.747.2135-.5179,1.1244-1.6319,2.2481-1.7499.5083-.0499,1.7363-.1133,2.3046-.0999.2328.009,1.1206-.0118,1.5133.6061,5.4399,5.0642,14.3785,8.7474,24.5074,15.2489,4.1015,5.0773-1.32,17.7919-1.0919,18.1902Z"/><path class="cls-9" d="M180.9145,228.3817c.0829.4437.144.897.1771,1.3327,1.5951,13.8915,6.531,25.1832,5.9282,47.2011-.0515.6205-.2384,1.7545-.2396,1.7554.0859-.06-1.038-7.1075-1.1839-7.1522-.0244-.052-.11-.195-.1635-.9836.1011-.0807-.3353-9.7326-2.2361-17.8731-1.8775-8.2506-4.1918-16.784-5.6917-21.3968-.1857-.4738-.8752-3.1078-.8683-3.6031,1.8826-6.8932,3.3169-12.5922,5.7795-17.2613.0534-.2843.2428-.2406.2428-.2406-.0002-.0004-.0465.338-.0381.4189.0404.4284.0574.779.0458,1.0871-1.288,5.067-1.5742,10.7049-1.7521,16.7155Z"/><path class="cls-9" d="M223.3417,228.972c-.2503-.4536-.4939-.9197-.7085-1.3689-3.4046-5.9445-6.8237-10.6903-9.7425-16.199-.1633-.3689-.4445-1.1143-.3417-1.0756.0468.0184.1845.1198.2656.2057.0341.0354.1424.138.4201.6539,2.0957,2.9514,4.3786,5.6826,6.8463,8.676,2.4214,3.1477,5.0233,6.0367,5.2218,6.5381,2.4048,5.402,6.0615,15.7822,6.576,26.0655.8449,10.1956-2.6189,19.6633-5.0709,25.1847-.19.4622-1.1212,2.3388-1.1795,2.3018-.0301-.0316-.0588-.063-.0888-.0945-.0477-.0491.0775-.4728.2867-1.0047,8.942-18.9963,4.364-35.439-2.4848-49.8827Z"/><path class="cls-9" d="M215.6392,232.484c-.4709-1.0313-9.6195-13.8048-9.6668-14.1111-.0031-.0067-1.6535-1.8518-2.7109-4.0121-.4639-.9388-1.4948-2.8684-1.4791-2.8956.0342-.0254.9725,1.6145,1.0604,1.7468.4058.6541,1.0811,1.7118,1.3707,2.2063,2.0645,2.5508,4.1059,4.8881,6.3112,7.3313,1.9046,2.7775,7.025,11.1874,7.2629,11.9195-.2374-.0736,4.1164,7.3683,5.5493,17.8145,1.8904,10.0426-2.3538,23.273-6.2985,31.2836-.2702.633-1.6059,3.3217-1.6479,3.321-.0117-.0116-.0236-.0232-.0357-.035-.0196-.0189.2243-.5586.5628-1.283,12.8901-25.029,6.5261-39.5209-.2785-53.2861Z"/><path class="cls-9" d="M194.5663,230.4593c-.1313-.3604-1.8259-6.6376-1.9738-7.1421-.0174.0552-.9879-7.075-1.1615-10.9431-.0477-.63.116-1.1521.1168-1.1519.0002.0002.1777.3943.2058.5194.0421.1891.0884.4167.1246.7857.4286,5.9138,4.6044,17.0039,4.5007,16.8174.1592.3917.3071.7935.4353,1.1817,2.8896,9.5258,6.9005,19.2292,3.1808,40.8394-.0304.5466-2.0749,6.744-2.2554,6.8561.0037-.0026-.37-1.4854-.2783-2.0101.1497-.2486,1.3313-7.3915,1.2923-7.8737,2.4818-19.5059-.9727-28.5168-4.1871-37.8791Z"/><path class="cls-9" d="M206.2607,230.3446c-.1965-.3945-4.7014-7.3576-4.9501-7.7923-1.4268-3.0013-2.9632-6.3081-4.5013-10.1752-.1914-.396-.6679-1.6218-.5981-1.5487.0316.0356.1357.183.2033.2941.0277.0448.1159.1831.4062.7637.0123.1834,4.0326,7.7722,5.8725,10.6388.2242.3837,3.3786,4.4036,3.5874,4.7716,1.9388,3.8106,8.016,12.8714,10.1497,25.5981,2.7467,11.6699-3.8564,28.4997-4.1999,28.9381-.2275.6625-1.9647,4.5753-2.045,4.5985.2809-.9194.5374-1.8166.7702-2.6933.1785-.1908,2.9328-8.0333,2.9062-8.4863,6.019-22.2377-2.4055-35.17-7.6013-44.907Z"/><path class="cls-20" d="M182.4525,229.1427c.0793.4359.1455.8828.2016,1.3136,1.3002,13.0848,5.4961,24.4586,4.3636,46.7007-.0432.6298-.2309,1.7911-.2316,1.7919.1013-.0883-.416-7.7712-.5401-7.8143-.0127-.0602.0286-.1921-.0043-1.0074-.0902.0614.0605-9.7101-1.1342-17.7061-1.1299-8.1244-3.2065-16.0307-3.9651-20.2531-.129-.4405-.6767-2.8639-.7133-3.3262.2123-6.6744.5126-12.9058,2.0775-18.4365.0459-.2997.1476-.3264.1476-.3262.0004.0006.0455.4202.045.4958-.0038.404-.0462.799-.0677,1.1099-.8846,5.5251-.6351,11.4501-.1791,17.458Z"/><path class="cls-20" d="M225.9564,229.0159c-.2438-.4846-.4892-.9819-.7163-1.4584-4.242-6.3448-8.485-11.0208-11.968-16.3231-.1714-.369-.731-.9116-.73-.9116.1436.0604.2874.1201.4329.1804.0011-.0001.1237.1829.4783.6179,2.5274,2.8147,5.3399,5.4453,8.4593,8.4875,2.2784,3.3737,4.4306,6.4573,4.6427,6.9612,2.6192,5.5541,5.7072,16.1941,5.8517,26.3212.4548,10.0864-3.2323,19.2208-5.6082,24.8002-.1842.4648-1.0678,2.3931-1.1042,2.3785-.0149-.0163-.0312-.0327-.0461-.049-.0247-.0259.1208-.429.3346-.9577,9.3574-18.4588,5.9408-34.6177-.0265-50.0471Z"/><path class="cls-20" d="M211.6776,224.5443c-.318-.4302-4.9731-6.0164-5.1541-6.4187-.007-.0104-2.0828-1.6582-3.1645-3.7886-.4765-.9286-1.5064-2.8569-1.4958-2.8792.0224-.0176.9495,1.6313,1.0339,1.7648.3941.6586,1.0886,1.4422,1.3749,1.9437,2.1175,2.5245,4.2146,4.8401,6.4938,7.2661,1.9005,2.8023,7.0851,11.2481,7.3316,11.9859-.2397-.0775,4.0916,7.4954,5.4529,18.0048,1.8257,10.1094-2.5505,23.3347-6.4742,31.3584-.2675.6347-1.5919,3.3308-1.627,3.3353-.0084-.0085-.0168-.0158-.0255-.0241-.0135-.0135.2356-.5505.5742-1.2727,7.7722-15.799,8.8056-26.2534,6.6599-36.2441-2.0927-9.6795-7.3647-18.8953-10.9801-25.0315Z"/><path class="cls-20" d="M196.7582,230.83c-.1201-.3452-2.1769-6.4091-2.3305-6.9044-.0067.0923-2.0908-7.0553-2.6331-11.0531-.1053-.6403-.0468-1.1961-.046-1.1956-.0005.0016.1012.3619.127.4865.0378.186.0816.4105.1458.7858.8633,6.007,5.125,16.8971,5.0233,16.7323.1479.3864.2932.7859.4283,1.1698,2.6471,9.3622,6.4961,19.1138,2.5297,40.5508-.0139.5377-2.2061,6.9432-2.3431,7.0459.0084-.0081.5402-1.9067.6515-2.4311.1627-.2589,1.7127-7.4557,1.6705-7.9307,2.7773-19.1759-.5429-28.3105-3.2234-37.2561Z"/><path class="cls-20" d="M205.9196,230.5296c-.1773-.3853-4.4515-7.4114-4.7104-7.8503-1.3878-3.0309-2.8907-6.3722-4.3908-10.2921-.1949-.395-.6633-1.6208-.6097-1.5379.0239.0406.086.2036.1465.32.025.0471.0588.2109.3454.794-.0061.2139,3.3593,8.1585,5.1601,10.9835.2289.3917,2.9275,4.507,3.1204,4.8533,1.98,3.7342,7.7882,12.1592,10.2592,24.3245,3.0182,11.2371-2.3728,27.198-2.6686,27.5404-.2091.6482-1.6243,4.0887-1.6731,4.1147.2681-.737.5192-1.4586.7538-2.1672.1855-.1736,2.7124-7.7397,2.6799-8.1819,4.8553-21.0562-3.2865-33.6362-8.4126-42.9012Z"/><path class="cls-20" d="M207.5563,229.4257c-.2333-.4082-5.1099-7.1624-5.3294-7.5796-1.6587-2.8075-3.4032-5.8753-5.1942-9.3998-.1897-.3839-.706-1.5454-.6552-1.4655.0234.0398.1082.1895.1667.3019.025.0457.0977.185.3764.7511.0213.1489,4.2092,7.1947,5.9565,10.065.2091.3759,3.5334,4.0959,3.751,4.4587,1.9569,3.7445,7.9987,12.8351,10.2034,25.4575,2.7847,11.6213-3.6453,27.9758-3.964,28.4101-.1692.6066-2.2381,5.3675-2.3237,5.4204.5155-1.2052.9837-2.372,1.411-3.5046.1765-.1669,2.6962-7.6178,2.6717-8.0552,6.2019-21.585-1.9529-34.7581-7.0702-44.86Z"/></g><g id="Mom_Head-3"><path class="cls-17" d="M367.0283,170.9861c-6.4099,4.0983-11.8144,10.7294-14.2759,18.1471,1.0566.6326,5.2836,5.2126,5.6239,6.8318.6206,3.7348,1.5201,7.4738,2.6102,11.2125.7828,2.6691-4.0323,1.5322-6.0134,1.1867-6.6725-1.1945-13.0199-2.1906-18.9064-2.9683-1.7898-.2517-5.5195-2.3634-5.2991-4.7812.3044-2.9863.7826-5.9924,1.4908-9.0429.3112-1.623,3.8522-4.4525,5.0272-4.6565,3.7263-12.3205,15.0816-25.4975,26.8079-31.9083,2.5376-1.3723,4.2969-.8154,4.1581.8097-.2292,3.3339.077,6.7917.904,10.3162.3775,1.7412-.5352,3.829-2.1274,4.8532Z"/><path class="cls-3" d="M352.7516,189.1341c-.0049-.0033-2.6659-.3975-4.4945-.6404-.9042-.104-1.3482-1.6942-.7781-3.517,3.058-9.3904,8.4762-15.1885,16.312-20.7546,1.5334-1.0569,2.859-1.8378,4.785-1.0863.1593.7671.3828,2.2481.5787,2.9984.5128,2.0172-.8032,3.9898-2.1256,4.8539-5.4745,3.5365-10.9735,9.6508-13.5354,16.1482-.4807,1.2034-.7403,1.998-.742,1.9979Z"/><path class="cls-19" d="M347.6616,188.1363c-.008.0083-2.1222-.6528-2.9581-.3954-.3811.1295-.2436-.5381.4791-2.7709,4.1055-11.3595,11.0376-18.3405,19.2186-23.4154,1.6161-.9693,3.8448-1.4787,3.838-1.465.0349,1.0305.1486,2.0438.3358,3.0361.0046.0182-2.8741-.0557-6.1404,2.1383-4.5439,2.8896-12.1049,10.4324-14.3759,19.6378-.4338,1.681-.3975,3.2357-.3971,3.2344Z"/><path class="cls-12" d="M406.0152,240.306c-.1331.1145-5.9999,34.6263-19.4638,51.1476-.4467.6612-3.4478,3.8293-4.3618,4.1912-.5645.2244-1.1297.4423-1.6961.6535-.8899.3323-1.4142.1341-1.2592-.4537.3241-1.2471.6209-2.4836.8837-3.708-1.5606,2.2698-3.0965,4.3169-4.4648,5.9977-.5429.6986-3.9264,3.7667-4.866,3.9849-.5833.145-1.1672.2812-1.7507.41-.9192.202-1.42-.1152-1.2093-.7341.1227-.3674.2419-.7336.3585-1.0993-1.7508,1.2781-3.4715,2.3729-3.7747,2.4146-.4872-.668-.9899-1.3443-1.5159-2.0274-.1227.186-.2466.3716-.3712.5573-.5058.6625-4.6767,2.1283-5.3202,2.1045-1.7815-.1953-3.5727-.4662-5.3835-.8129-.5294-.0136-3.4174-4.3947-3.43-4.9736.3469-.9538.6636-1.9159.9502-2.8837-1.0439,1.4759-2.1362,2.918-3.2682,4.3077-.4862.5188-1.5125.7816-2.4574.617-.6046-.1041-1.2103-.2163-1.8169-.3371-.8944-.1547-4.643-2.848-4.7314-3.4401.0141-1.0866-.0198-2.1885-.1004-3.3026-.366.7487-.7424,1.4851-1.1278,2.2072-.3672.4807-1.4774,1.2511-2.3397.8547.3133.0883-11.4846-11.1956-12.7415-11.8599-.2193-.1454-1.0331-.6479-1.4565-1.5364-4.6326-18.3607-13.8978-37.0338-16.8441-52.8831-.2613-.5811-.2554-1.1747-.0085-1.7519,7.6291-8.8934,11.5285-18.9464,16.8101-29.4254.1205-.4901.6686-.9247,1.3204-1.0407.416-.0736.8354-.1466,1.2585-.2189.6628-.1138,1.2606.1292,1.4314.5844.3199.9824.6735,1.9687,1.0588,2.9599.5642-1.5767,1.1661-3.1667,1.8182-4.7733.1819-.6592,1.0281-2.0059,2.0954-2.0288.4902-.0102,1.6461.0758,2.1729.1934.2206.0454,1.0282.1642,1.4639,1.0512,1.3784,1.0815,2.8444,2.1913,4.3931,3.3311.5913-1.3421,1.2186-2.691,1.8876-4.0478.1081-.6521.7271-1.951,1.5898-1.8835.3976.0328,1.3303.2097,1.7547.3667.1782.0649.8295.2462,1.2184,1.1637.3276.608.6669,1.2177,1.0182,1.8289.1754-.4302.3557-.8608.5393-1.2918.0858-.6644,3.0173-2.7114,3.9656-2.5976.4265.0515,1.4331.2743,1.895.4528.1928.0741.8934.2883,1.3216,1.2349.6089.8555,1.2398,1.715,1.8914,2.5775.5345-.328,1.0874-.6475,1.6617-.9539,3.3258-1.7843,4.4583-5.3643,5.9049-5.3275,2.8263.0902,5.4823,3.4018,6.2213,3.7185,1.2165.5425,2.7658,1.2332,4.2899,1.951.3714-.7162.7547-1.4279,1.1481-2.1342.2248-.6505,1.3691-1.8221,2.9555-1.4878.7275.1492,2.4426.6216,3.2195.9114.3253.1206,1.524.5164,2.1891,1.545,8.7504,9.6959,18.7946,19.1029,26.0964,26.8207,3.2548,5.2784-.9827,18.065-1.0234,18.8762Z"/><path class="cls-9" d="M320.2119,227.6683c.0881.6468.1561,1.3119.1964,1.9519,1.5061,19.6285,12.4199,42.4894,16.4501,61.8817.0754.5391.107,1.4683.1059,1.4673.127.0997-2.7884-6.8365-3.0178-7.0798-.0419-.0625-.1783-.2354-.4387-1.047.1698.0533-2.9523-9.8596-7.41-21.8557-4.5228-11.9703-7.9478-25.1226-9.446-31.3169-.2131-.6749-.9062-4.2423-.8788-4.8939,1.958-9.3686,4.2963-17.8741,8.2247-25.4087.1237-.4165.3448-.4429.3448-.4433.0002-.0002-.128.4876-.1342.5962-.0399.5742-.0904,1.0562-.1658,1.4917-2.5629,7.6375-3.584,15.8447-3.8304,24.6565Z"/><path class="cls-9" d="M388.6622,228.5293c-.2885-.6828-.5771-1.3962-.8386-2.0911-4.0518-9.1368-9.8319-18.7135-15.5166-28.1194-.3248-.6164-.9042-1.8195-.7352-1.7232.0769.0438.3117.2434.4544.4001.0595.0656.2482.2536.7784,1.1271,3.8276,5.1948,7.7601,10.5676,11.3142,15.9117,3.5606,5.6398,6.4709,10.0648,6.6971,10.7788,2.9222,8.2898,5.7551,21.2408,4.0941,33.1859-1.1416,11.8711-8.0355,24.3831-12.3344,30.7482-.3469.5504-1.8887,2.7272-1.938,2.7069-.0237-.0154-.0471-.0309-.0706-.046-.0382-.0234.2138-.4655.591-1.0573,15.6178-23.627,15.0231-40.8583,7.5041-61.8218Z"/><path class="cls-9" d="M378.488,234.6718c.4048-.7959-16.5817-26.3062-17.2603-26.7349-.0012-.0136-3.2704-3.5324-5.2288-7.0368-.8804-1.5689-2.6873-4.496-2.6473-4.516.0496-.0605,1.7061,2.4404,1.8772,2.6723.7311,1.0223,1.9952,2.7709,2.5529,3.6214,3.9127,4.364,8.0983,9.0941,12.1895,14.011,4.0782,5.9913,11.5065,20.6909,11.4496,21.3748-.2125.0296,4.9974,11.5802,4.0481,24.274-.1279,12.5275-9.5786,28.5142-14.9939,35.4489-.4194.6023-2.2459,2.9722-2.275,2.9603-.0105-.0064-.0212-.0122-.0316-.0186-.0168-.0103.3136-.4651.7835-1.099,19.2205-24.845,19.3018-43.8003,9.5363-64.9573Z"/><path class="cls-9" d="M339.1848,231.343c-.3588-.8171-3.0115-12.4419-3.0882-13.1535-.1258-.0432-.8185-12.3148-.233-17.8748.0479-.9392.4008-1.7792.4015-1.7793-.0002-.0002.1944.5189.2141.6977.0282.2692.0565.594.0426,1.1438-.928,8.0217,5.6884,28.7558,5.8975,28.8618.2953.7682.5746,1.5618.8215,2.3298,6.5536,19.1194,13.1068,38.7274,8.4195,57.8556-.0688.5829-2.1425,5.6618-2.2907,5.6562.0064.0024-.5405-1.2613-.4783-1.6965.1265-.0874,1.0558-6.2973,1.0017-6.8834,2.6578-18.1228-4.2615-36.9587-10.708-55.1575Z"/><path class="cls-9" d="M362.1736,231.2871c-.3146-.7763-9.6188-15.0924-10.0163-15.7022-2.7874-5.7656-5.4572-11.4606-7.5702-17.0327-.2809-.5738-.9059-2.2882-.7979-2.1913.0474.0453.2004.2353.2984.3846.0414.0613.1667.2396.5828,1.0502-.2118-.0828,6.2413,11.5385,10.2549,17.7005.424.6552,6.886,8.8382,7.2832,9.6154,4.4803,8.1772,14.5324,25.7688,14.0624,41.1501.4452,15.3509-10.8657,31.1796-10.7072,31.077-.3658.6125-2.6187,3.8257-2.6765,3.8163.3754-.7106.734-1.4184,1.0757-2.1229.1094-.0146,4.2433-6.9597,4.3945-7.5387,11.8501-22.1066,5.4261-40.2851-6.1838-60.2061Z"/><path class="cls-20" d="M321.9454,228.7865c.0924.6571.1737,1.3344.247,1.9889,1.4712,19.2013,11.3328,41.6294,14.7159,60.9413.0861.5486.1225,1.498.122,1.4965.1298.0867-2.2019-7.1916-2.3989-7.4315-.0303-.0662-.0109-.1744-.2478-1.0031-.0528.0942-2.3534-9.6246-5.9175-21.1444-3.6035-11.5066-7.0591-24.3513-7.9429-30.413-.1752-.6695-.8197-4.2204-.8454-4.8778.2502-9.6949,1.3873-18.6795,4.4282-27.0113.1181-.4344.2475-.5174.2478-.5178,0,.0005-.0334.5589-.0494.6641-.0881.5608-.2207,1.1308-.3081,1.5746-2.1646,8.0968-2.5863,16.6466-2.0509,25.7336Z"/><path class="cls-20" d="M391.5613,228.5957c-.26-.6924-.5291-1.414-.7853-2.1136-4.6391-9.2704-11.3666-18.9659-17.9045-28.2757-.3352-.6181-1.3125-1.6233-1.3117-1.6215.2363.1405.4733.2823.7112.4247.0009.0009.2281.314.8603,1.0962,4.4638,5.1534,9.0867,10.5973,13.2575,16.0448,3.2178,5.7643,5.5338,10.282,5.7718,10.9918,3.0135,8.2631,5.1758,21.2219,3.1871,33.1101-1.5111,11.8391-8.5646,24.1689-12.7933,30.5368-.3403.5499-1.8454,2.7507-1.8767,2.7409-.0117-.0081-.0249-.0159-.0367-.0237-.02-.0129.2487-.4445.6302-1.0351,15.9815-23.3627,16.3087-40.7223,10.2902-61.8755Z"/><path class="cls-20" d="M372.1053,220.1987c-.4017-.8351-9.4212-12.029-9.8564-12.6261-.0044-.0241-4.0632-3.2551-6.0707-6.709-.9051-1.5535-2.7143-4.4819-2.6833-4.4944.0297-.0484,1.6673,2.4701,1.8325,2.7041.7128,1.0348,2.0059,2.3357,2.5552,3.1895,3.9996,4.3025,8.2844,8.9921,12.4841,13.8838,4.0653,6.0215,11.5523,20.7609,11.5015,21.4467-.2132.0287,4.9253,11.7584,3.8748,24.5558-.2224,12.6431-9.8368,28.7073-15.2305,35.6389-.4162.6031-2.2334,2.9778-2.2567,2.9678-.0075-.0045-.0146-.0081-.0226-.0126-.0115-.0076.3247-.4615.7943-1.0943,24.0304-30.1935,18.179-52.2924,3.0778-79.4501Z"/><path class="cls-20" d="M343.1429,232.1618c-.3494-.8036-3.921-12.4465-4.0242-13.1665-.1429-.0387-2.8533-12.4496-2.7906-18.0582-.0432-.9447.1555-1.7999.156-1.7997-.0012.0018.0862.5065.1025.686.0229.2688.0487.5926.0785,1.1466-.2617,8.0804,6.8064,28.8413,6.996,28.9394.2804.7665.5619,1.5604.827,2.3269,6.2015,18.8759,12.1519,38.2338,7.1836,57.2207-.0543.5824-2.2838,5.8121-2.3772,5.798.0058.0002.485-1.5004.5847-1.9378.1295-.0923,1.6351-6.3496,1.604-6.9344,3.4498-17.9793-2.4338-36.3408-8.3403-54.2211Z"/><path class="cls-20" d="M361.4912,231.6698c-.2922-.764-9.1237-15.2114-9.539-15.8335-2.7055-5.8307-5.3076-11.6056-7.3508-17.2704-.2866-.5718-.8992-2.2883-.8192-2.1729.0339.0536.1145.2809.1998.4391.0359.0654.0662.2967.4744,1.1124-.2082-.0328,4.9317,12.3236,8.7944,18.3881.4158.6661,5.9559,9.0261,6.3512,9.7755,4.5242,7.9709,14.7606,24.8235,15.1374,39.6429,1.2513,14.7261-8.6445,29.8485-8.5179,29.781-.347.6097-2.29,3.543-2.3243,3.5406.3639-.6024.7167-1.2038,1.058-1.8039.1306-.0141,4.1295-6.9582,4.2661-7.5327,10.4707-21.2679,3.7149-38.9315-7.7301-58.0663Z"/><path class="cls-20" d="M364.7253,229.4149c-.3269-.7861-10.3474-14.6408-10.7283-15.2234-3.2891-5.3664-6.4205-10.5858-9.0367-15.5879-.2818-.5579-.9924-2.1724-.9149-2.0603.0334.053.1548.2548.238.4087.0363.0641.1369.2485.5379,1.0444-.1926-.1022,6.6586,10.5883,10.4727,16.6747.3961.6358,7.1783,8.1955,7.5887,8.9654,4.4989,7.9937,14.5139,25.8227,14.1552,41.2656.549,15.4248-10.7369,31.2728-10.5874,31.1873-.3192.5959-3.0821,4.5929-3.135,4.5863.6555-.9626,1.2836-1.9258,1.8846-2.8878.1214-.0135,4.0819-6.7991,4.2253-7.3601,12.1988-22.1572,6.3402-40.475-4.7002-61.0129Z"/></g><g id="Mom_Smile_Face"><path class="cls-16" d="M300.8175,233.5712c20.4742-16.7218,39.0826-22.5526,48.8904-3.0965-15.2893-10.3616-28.482-7.3081-48.8904,3.0965t0,0Z"/><path class="cls-16" d="M357.3231,230.4745c9.8281-19.4323,28.4191-13.6453,48.8904,3.0969-20.4085-10.3784-33.6178-13.4873-48.8904-3.0969t0,0Z"/><path class="cls-5" d="M349.9032,262.1386c-.4213-.0033-.8425-.0072-1.2639-.0116-.9187-.01-1.7107-.8147-1.7532-1.784-.1267-3.035-.2115-6.0701-.2547-9.1051-.0141-.9691.7739-1.761,1.7449-1.7594.444.0009.888.0016,1.332.0022.9713.0015,1.7677.7973,1.7712,1.77.0127,3.0433.0379,6.0866.0753,9.1299.0098.9725-.7328,1.7656-1.6517,1.7581Z"/><path class="cls-16" d="M350.1801,262.1407c-.3517-.0025-.7033-.0055-1.0549-.0088-.7674-.0075-1.4247-.6785-1.4564-1.4882-.1216-3.2315-.2014-6.4629-.2394-9.6944-.0102-.8099.6484-1.4711,1.459-1.4699.3706.0006.7412.0012,1.1118.0016.8105.0009,1.4756.6653,1.4782,1.4773.0127,3.2381.0394,6.4763.0801,9.7144.0086.8116-.6113,1.4734-1.3785,1.4678Z"/><path class="cls-5" d="M357.2384,262.1377c-.4213.0034-.8427.0062-1.2639.0084-.9188.0049-1.6678-.79-1.6655-1.7626.0152-3.0439.0253-6.0879.0305-9.1318.0011-.9728.7964-1.7685,1.7676-1.7696.444-.0005.8881-.0009,1.3321-.0016.9712-.0011,1.7606.7912,1.7484,1.7618-.0356,3.0379-.1055,6.0759-.2099,9.1138-.0357.9706-.8205,1.774-1.7394,1.7815Z"/><path class="cls-16" d="M356.7526,262.1414c-.3517.0024-.7033.0045-1.0549.0062-.7675.0038-1.393-.6599-1.3901-1.4716.0165-3.2388.0273-6.4777.0324-9.7165.0012-.8117.6647-1.4764,1.4754-1.477.3706-.0003.7412-.0007,1.1118-.0012.8105-.0009,1.4698.6611,1.4619,1.4718-.0305,3.2341-.0944,6.4683-.1917,9.7025-.0259.8107-.677,1.4803-1.4447,1.4859Z"/><path class="cls-16" d="M337.1106,266.7086c9.861,3.1712,18.1186,4.5876,27.5682,2.4433,3.0783-.6387,6.2576-1.6129,9.8462-2.7104-12.1055,12.9917-25.9753,13.2834-37.4144.2671t0,0Z"/><path class="cls-16" d="M338.5997,243.9052c-.0779,4.0018-3.2285,7.2143-7.2483,7.1496-4.0111-.0703-7.5293-3.234-7.389-7.0413.1512-3.8069,3.8392-7.0374,7.7684-7.1675,3.9382-.1247,6.9186,3.0573,6.8689,7.0591Z"/><path class="cls-16" d="M385.1174,244.0344c.1503,3.7739-3.3847,6.9162-7.3955,6.9928-4.0205.0709-7.1536-3.124-7.2419-7.1111-.0589-3.9867,2.889-7.1468,6.8275-7.0106,3.9287.1417,7.6496,3.3552,7.8099,7.129Z"/><path class="cls-22" d="M348.4982,240.2034c-5.7656-5.946-14.8199-5.5614-21.2651.267"/><path class="cls-22" d="M395.0464,240.419c-6.8264-5.5213-15.8357-6.3009-21.2326-.5719"/></g><g id="Mom_Angry_Face"><path class="cls-16" d="M7.9551,226.1765c6.2559-1.4839,12.9767-1.059,19.9337-.7848,6.9767.3984,14.0189.7608,21.2319,1.4861-6.5468,1.9079-13.4365,2.437-20.4014,2.429-6.9835-.135-13.8739-.6494-20.7642-3.1302h0Z"/><path class="cls-16" d="M55.9549,229.1752c7.1948-.7755,14.2511-1.113,21.2489-1.4532,6.9828-.216,13.7331-.5363,20.043,1.0696-6.8738,2.351-13.7771,2.7541-20.7794,2.8219-6.9855-.0592-13.9038-.5931-20.5125-2.4383h0Z"/><path class="cls-5" d="M49.3089,249.5018c-.3641.0038-.7282.0083-1.0923.0135-.7961.0115-1.4471-.4111-1.4471-.9436v-4.995c0-.5323.651-.9675,1.4471-.967.364,0,.7281.0001,1.0923.0002.7962.0003,1.4478.4324,1.4478.9605v4.9591c0,.5284-.6516.9637-1.4478.9723Z"/><path class="cls-16" d="M49.5482,249.4993c-.304.003-.6079.0064-.9118.0103-.6644.0087-1.2081-.3448-1.2081-.7884v-5.3058c0-.4435.5436-.8061,1.2081-.8058.3039,0,.6078.0001.9118.0002.6646.0002,1.2084.3611,1.2085.8018v5.2766c0,.4409-.5438.8046-1.2085.8111Z"/><path class="cls-5" d="M55.6499,249.4993c-.3642-.0036-.7283-.0065-1.0925-.0088-.7963-.005-1.4479-.4377-1.4479-.9654v-4.9554c0-.5279.6516-.9597,1.4479-.9597.3642,0,.7284,0,1.0925-.0001.7961-.0004,1.4476.4333,1.4475.9639,0,1.6596,0,3.3192,0,4.9789,0,.5308-.6513.9547-1.4475.9467Z"/><path class="cls-16" d="M55.23,249.4955c-.304-.0026-.6079-.0047-.9119-.0064-.6647-.0038-1.2086-.3648-1.2086-.8053v-5.2727c0-.4408.5439-.801,1.2086-.8011.304,0,.608,0,.9119,0,.6647-.0002,1.2084.3612,1.2083.8036v5.2908c-.0001.4424-.5437.7972-1.2083.7913Z"/><path class="cls-16" d="M36.2641,257.9248c10.1463-3.5249,23.547-3.5158,33.6843.1161-10.1334,1.0125-23.5344.93-33.6843-.1161h0Z"/><path class="cls-16" d="M40.2145,239.4487c.0005,2.2624-2.6798,4.117-5.9698,4.1584-3.2904.05-5.9406-1.9525-5.9407-4.4874,3.9487.1454,7.9231.2551,11.9105.329Z"/><path class="cls-16" d="M78.2208,239.0696c-.0001,2.5719-2.6461,4.6008-5.933,4.5475-3.2862-.0446-5.9645-1.9153-5.9641-4.1945,3.9843-.0819,7.9542-.1996,11.897-.353Z"/><path class="cls-22" d="M42.7479,238.9358c-5.8489-.101-11.6756-.2919-17.4403-.5728"/><path class="cls-22" d="M82.1041,238.9065c-5.7482.2592-11.5635.4417-17.406.5475"/></g><g id="Mom_Angry_Face-2"><path class="cls-5" d="M198.6099,248.6842c-.5924-.0709-1.1833-.1575-1.7727-.2599-1.3046-.2255-2.084-.9011-1.7622-1.3701.9606-1.4839,1.8119-2.8505,2.6736-4.286.2909-.4565,1.0982-.6579,1.7972-.5122.3268.0685.6538.1268.9815.1737.7013.1039,1.2429.5379,1.1987,1.0196-.1838,1.5044-.3783,2.9299-.6136,4.5031-.0578.5011-1.1898.8898-2.5025.7319Z"/><path class="cls-16" d="M198.9994,248.7286c-.4951-.0538-.9891-.1177-1.4821-.1932-1.0894-.1655-1.7702-.7032-1.5326-1.104.9053-1.6117,1.6927-3.0743,2.49-4.6267.2105-.3879.8616-.582,1.4478-.4745.2731.0501.5465.0934.8202.1291.588.0785,1.0393.4417,1.0009.8451-.1948,1.6067-.4009,3.1154-.6539,4.7995-.0513.4215-.9958.7433-2.0903.6248Z"/><path class="cls-5" d="M208.92,248.3678c-.5825.1076-1.1687.1989-1.7565.2755-1.3029.1699-2.422-.207-2.4704-.7071-.2066-1.569-.4021-2.991-.6157-4.4933-.0537-.4809.4744-.9173,1.169-1.0244.3245-.049.6485-.1082.9706-.178.6898-.1489,1.4963.0489,1.7941.5024.8864,1.428,1.7328,2.7803,2.6616,4.2472.311.4635-.4624,1.1412-1.7528,1.3777Z"/><path class="cls-16" d="M208.2467,248.4847c-.4881.0794-.9782.1483-1.4701.2065-1.0872.129-2.0205-.1838-2.0637-.6039-.2207-1.6795-.4274-3.1848-.6562-4.789-.0467-.4027.3926-.768.9761-.8492.2711-.037.5424-.0811.812-.1328.5799-.1098,1.2308.0808,1.4486.4665.827,1.544,1.6107,2.9948,2.4814,4.5896.2289.3965-.4492.9368-1.5281,1.1122Z"/><path class="cls-16" d="M117.1032,242.6415c21.8324-10.1113,29.4325-18.5316,42.7423-21.2778,11.8191-2.8528,29.3479-.0314,36.6108,9.8823-9.9312-3.7441-22.4321-5.3502-33.5822-2.8913-11.3064,2.5786-21.987,6.239-45.771,14.2868t0,0Z"/><path class="cls-16" d="M210.0775,232.8727c4.5302-9.7525,23.9346-15.4991,36.2812-13.4568,14.1975,1.574,21.3372,10.9369,44.0809,20.5856-12.5704-3.9903-21.2765-6.5382-28.1924-8.6483-18.4749-7.1206-37.782-6.0187-52.1698,1.5195t0,0Z"/><path class="cls-16" d="M196.8014,240.8124c.0667.2423-2.7218,7.786-8.6818,9.4462-5.118,1.2757-12.4163-4.8052-13.0994-4.7493.9118.2674-.032-10.0135,5.8874-13.0169,8.132-1.4556,16.7261,9.0625,15.8937,8.32Z"/><path class="cls-7" d="M192.1074,241.3685c.155.1449-1.687,6.2574-6.4859,7.5589-4.1978,1.1676-10.1976-3.4304-10.6013-3.4181.4993.1179.461-7.6059,4.9131-9.4688,5.6237-1.2323,12.6643,5.6453,12.174,5.328Z"/><path class="cls-16" d="M221.8431,271.0996c-.141.0211-9.5546-4.2522-19.3186-4.0678-9.7651-.0586-19.4391,4.315-19.5705,4.2933-.3818-.028,4.0157-7.7659,7.8506-12.7706,4.1155-5.4505,7.6685-8.1679,12.0741-8.4515,4.4088.2472,7.7936,2.8969,11.6581,8.2977,3.5976,4.9541,7.6749,12.6596,7.3063,12.6989Z"/><path class="cls-16" d="M231.8585,246.605c-.7333-.1596-7.5489,6.6822-12.7374,5.3444-6.1088-2.0739-8.8975-10.2224-8.7784-10.3705-.8839.7821,7.7801-10.0807,15.8772-8.5746,5.6424,3.1455,4.6062,13.8009,5.6387,13.6007Z"/><path class="cls-7" d="M226.5552,244.9275c-.4482-.0318-5.7871,5.3004-9.6831,4.4047-4.4353-1.1451-6.5935-7.6125-6.5295-7.7534-.5024.4404,5.7563-7.5128,11.6384-6.5938,4.6115,1.924,4.0164,10.1608,4.5742,9.9424Z"/></g><path id="Mom_vein" class="cls-8" d="M256.7834,225.0142c-10.535,8.0051-9.4164,4.1814-7.3415,17.5174-8.0051-10.535-4.1814-9.416-17.5173-7.3414,10.5349-8.0051,9.4163-4.1816,7.3415-17.5174,8.0056,10.5346,4.1815,9.4163,17.5173,7.3414Z"/><g id="Head"><path class="cls-15" d="M49.7632,34.4563c3.5522-7.7479,7.0931,10.2409,8.1252,17.813-.7213-1.1421-3.0952,1.1963-3.0862,3.0954-.0842,3.4638-.1708,6.6561-.2923,9.5992-.0676,2.069,2.168,2.164,3.0715,2.2261,3.0803.252,5.9854.0972,9.4919-.1076.9959.1491,3.4928-.7967,3.5228-2.5146-.1084-1.4058-.2047-2.6021-.2802-3.839-.0567-.4174-2.4567,2.2357-3.1649,2.0206-.3021-2.4639-.9591-4.9925-1.9715-13.2633-1.0211-6.9894-2.6712-24.7238-6.4806-32.9768-1.6146-2.99-3.9906-2.0027-4.9647-1.6242-2.0371,1.0627-3.896,4.5437-4.7989,14.6039-.3944,5.0256.0456,7.0905.8278,4.9674Z"/><path class="cls-6" d="M57.889,52.2709c.0061-.0712,1.5932,2.4704,2.6259,4.406.5096.8948.876.6195.7626-.8882-.597-6.2827-2.2147-24.5638-7.5607-34.3643-.9701-1.1917-1.9844-2.4339-3.7935.988-.3576,1.4733-.7974,4.9206-.9875,7.0779-.485,6.0251.1844,6.6859.8268,4.9722,2.9418-7.311,6.623,7.4619,7.7489,15.3635.2456,1.5315.3761,2.4402.3775,2.4449Z"/><path class="cls-18" d="M60.8739,57.1344c.0036.0149,1.2363,1.9991,1.6781,2.8331.2049.3839.1719.047.039-1.5266-.7669-6.2373-2.4054-28.8218-8.2875-39.1518-1.1108-1.7002-2.9899-1.5605-2.9833-1.4848-.4973,1.118-.9704,2.6144-1.3934,4.5896-.0556-.0834,2.4186-3.7822,4.6377.5609,3.3439,5.4104,6.2892,26.1028,6.3863,32.0669.0593,1.3557-.078,2.1044-.0769,2.1129Z"/><path class="cls-13" d="M12.5645,85.4819c-.1825.3136,5.3825,6.9043,8.5859,14.6668,3.5374,7.67,4.7615,18.3757,5.5648,27.0153.1152.6174,1.7587,3.4144,2.8715,3.3938.7209-.0591,1.4396-.1172,2.1542-.173,1.1204-.0815,2.2394-.8134,2.6805-1.7425.9435-1.9694,1.8573-3.8759,2.7356-5.7121.076,2.6168.1752,5.1814.3533,7.3956.0714.8325,1.6329,4.7349,2.7698,4.816.7153,0,1.4307,0,2.1457,0,1.127.0031,2.2229-.8214,2.6082-1.9511.2328-.667.4631-1.3248.6882-1.9724,1.0932,1.7029,2.2873,3.3866,2.6591,3.386,1.385-1.4878,2.715-2.9486,3.9887-4.3629-.0102.3216-.0207.6464-.0316.9738.0457,1.0495,4.007,3.3542,4.8223,3.372,2.3822-.5118,4.7267-1.0171,7.0374-1.4963.8969-.2362,6.0053-7.6147,5.9388-8.2776-.0718-1.6045-.1395-3.122-.2036-4.5655.6721,2.3214,1.3952,4.8129,2.1749,7.4958.3539,1.0193,1.378,1.8024,2.4428,1.8504.6792.0332,1.3594.0674,2.0419.1049,1.081-.0293,5.4062-2.6732,5.4361-3.4214-.003-1.6725.0062-3.2378.0272-4.7153.4127,1.1987.8375,2.4352,1.2737,3.7094.4018.8952,1.6473,2.7113,2.6032,2.6225.0429-1.0295,11.0677-7.9516,12.2675-7.0816.2226-.0045,1.0674.0236,1.3011-.7113-.4496-17.9676,4.0388-28.1728,11.7059-44.2026.6327-.563.636-1.1617,0-1.7245-19.1571-8.3397-26.7586-11.6239-32.5019-16.8459-.1012-.2947-.738-.3586-1.4869-.1696-.478.1202-.9437.2352-1.3983.3461-.7124.1741-1.3431.5461-1.5372.8978-.3768.7478-.7379,1.4673-1.0851,2.1612-.5312-.7852-1.0368-1.5984-1.5254-2.4552-.1244-.376-.7849-1.0233-1.6771-.7567-.4166.1271-1.3466.4616-1.7478.6472-.1721.0768-.7912.3301-1.113.95-1.0026.9142-1.9358,1.7551-2.8187,2.537-.4382-.6599-.8779-1.3497-1.3258-2.0777-.0852-.3692-.4906-1.0918-1.0142-.9749-.2421.0567-.795.237-1.0369.3569-.1014.0494-.4799.2038-.6507.7559-.153.3687-.3031.7284-.4509,1.08-.13-.2315-.2608-.4668-.3936-.7062-.0922-.3547-1.8719-1.5047-2.3993-1.4627-.2358.0299-.7802.152-1.0197.2455-.0988.0391-.473.1537-.6087.6913-.2437.4782-.485.9407-.7247,1.3904-.3301-.2071-.6712-.4155-1.0278-.6265-2.0705-1.2022-3.2821-3.6623-4.1593-3.8499-1.7449-.3218-2.8861,1.3648-3.2896,1.428-.6878.1313-1.5815.2764-2.4879.4221-.4214-.5479-.8562-1.1126-1.3052-1.695-.3109-.496-1.4199-1.6231-2.5948-1.8495-.5311-.0993-1.8098-.2793-2.3983-.3191-.2398-.0133-1.1669-.1167-1.4738.4384-5.1286,4.4131-12.0844,7.511-26.636,13.2379-6.7683,4.9714,2.8509,17.489,3.2456,17.5109Z"/><path class="cls-4" d="M81.4409,74.2818c.0766.3636.1846.7374.3157,1.1,3.2299,12.2002,2.2653,22.6155.314,44.3476-.0307.6605-.0095,1.8964-.0103,1.902.0262-.1932,2.0968-7.3064,2.1494-7.2473.0303-.0453.1344-.1839.2388-.9508-.0539-.1853.9214-9.2944,1.5406-16.9388.7771-7.8793.3928-15.8723.6237-19.7614.0611-.4166-.016-2.6661-.2012-3.0722-4.9701-5.7702-9.1881-9.445-12.903-12.8554-.1212-.2133-.3228-.1707-.3238-.1693-.0009-.0004.1227.2551.1315.3158.0469.3266.108.5904.1954.8197,2.6381,3.7034,5.3413,7.5714,7.9289,12.5103Z"/><path class="cls-4" d="M38.5929,74.7664c.1045-.3692.1892-.7557.2537-1.1257,1.4345-4.904,3.0942-9.2542,4.8505-14.0281.0806-.325.2121-.9755.1166-.9506-.0448.0113-.1634.092-.2267.1636-.026.0291-.1154.1118-.2865.5609-1.4839,2.5194-2.9961,4.9552-4.5761,7.5793-1.4527,2.7712-3.3148,5.2095-3.3825,5.6352-.8051,4.7506-1.0998,12.6657-.4378,20.9991.5433,8.0967,1.5182,18.6938,1.8103,25.7197.0283.5622.25,2.9161.3345,2.8683.0527-.0423.1061-.085.1601-.1272.084-.0655.1476-.6056.1511-1.2747-.7205-24.6098-1.0316-33.8108,1.2329-46.0199Z"/><path class="cls-4" d="M48.2792,77.4689c.0124-.6086,3.9268-10.99,4.1477-11.2461.0029-.0097,1.0254-1.4579,1.5068-3.1599.2039-.7448.7724-2.2551.758-2.2795-.0435-.0252-.5843,1.2536-.6328,1.357-.2415.5082-.6263,1.3348-.7725,1.7263-1.3215,1.9669-2.5624,3.8633-3.8269,5.8702-.8515,2.3987-2.455,8.9113-2.5062,9.3835.0506.1011-.772,5.1158-1.1161,13.4973-.4651,7.6991-.522,23.3881-.311,34.248.0019.8239.0842,4.445.1219,4.4557.0213-.0153.0435-.0321.0642-.0483.0326-.0266.0569-.765.0581-1.7365-.6266-34.4307.9314-41.2476,2.5088-52.0677Z"/><path class="cls-4" d="M67.8741,75.9347c-.0207-.338-.9118-5.1237-.928-5.4547-.0128.0102-1.6945-5.1355-2.2712-8.1195-.0954-.4828-.3579-.9015-.3582-.9006-.0002.0011-.0884.2988-.0883.3962.001.1449.0043.3201.0536.6041.7213,4.449,1.3577,12.5804,1.3783,12.5955.0044.3051.0219.6212.0525.9267.6362,8.1732,1.437,14.2857,3.0533,36.5234.0342.5043,1.0382,7.5294,1.1385,7.7441.0032-.0095.7594-1.6731.7581-2.2577-.0012-.396-.225-8.0745-.2588-8.4623-1.4729-19.2417-2.1446-25.6737-2.5297-33.5952Z"/><path class="cls-4" d="M56.5616,75.8268c.0103-.2933,1.622-5.7287,1.754-6.0409.2944-2.3176.6918-4.7941,1.2818-7.765.0883-.3016.2873-1.2514.2396-1.1996-.0217.0257-.0917.1365-.1326.2206-.0178.0342-.0733.1405-.224.5827-.0817.1639-1.8936,5.8569-2.4983,8.106-.0989.2871-1.6071,3.435-1.6465,3.7269-.6214,3.3024-1.621,9.2509-2.3214,19.5289-.8752,8.9658-.8304,30.4508-.8147,31.2661-.004.8281.0645,6.0604.1163,6.1232.1607-1.2553.3185-2.4612.4737-3.6233.0216-.3777.1435-10.3423.1771-10.7525.7585-26.5287,2.0413-31.7839,3.5951-40.173Z"/><path class="cls-11" d="M79.9667,74.9063c.0868.3541.1846.725.2935,1.0846,3.3996,11.5288,3.228,21.8651,1.7768,43.9945-.045.6692-.0289,1.9434-.0311,1.9473.0297-.2368,1.5045-8.0808,1.5235-8.0112.0147-.0596-.0175-.1951.0657-.9932.1443-.0157.479-9.3382.3569-16.8286-.0107-7.729-.6082-15.104-1.3141-18.6411-.0114-.3871-.3087-2.4268-.4456-2.7994-2.8677-5.5455-5.8741-9.754-8.7847-13.8452-.1151-.2256-.2346-.2389-.2343-.2399-.0004.0002.0378.3226.0539.3787.0919.306.2296.5986.3287.8305,2.3054,4.0562,4.5239,8.1749,6.4108,13.1231Z"/><path class="cls-11" d="M35.565,74.8033c.1046-.4027.2036-.8178.287-1.2188,2.5036-5.3015,5.0177-9.6034,7.4209-14.1586.0923-.3235.5478-.7686.5467-.7683-.134.0413-.2675.0831-.4018.1255,0,0-.0892.1558-.3539.524-1.9613,2.3624-4.0423,4.6979-6.3705,7.363-1.3019,3.0033-2.6738,5.6258-2.759,6.0585-1.1346,4.9034-.8995,13.1297.2318,21.3224,1.0044,8.0154,2.3595,18.2313,2.5408,25.3175.0182.5715.1528,2.9873.1987,2.9736.027-.024.0563-.044.0833-.0661.0419-.0349.0738-.5475.0693-1.2122-1.4387-23.9415-3.0132-33.0487-1.4934-46.2604Z"/><path class="cls-11" d="M49.0057,71.2114c.0932-.3543,2.6896-4.9257,2.8071-5.2267.0084-.0125,1.5111-1.275,2.0208-2.9508.2197-.7358.7871-2.2478.7788-2.2659-.0319-.0183-.5597,1.2709-.6035,1.3758-.226.5129-.7023,1.1102-.8461,1.5066-1.3891,1.9397-2.7044,3.8197-4.0579,5.815-.8512,2.4312-2.515,8.9967-2.5733,9.4738.0505.1024-.694,5.2267-.9392,13.6393-.3747,7.7389-.3073,23.4354-.1189,34.3071-.0029.8278.0592,4.4574.0866,4.4754.0152-.0113.0308-.0215.045-.0333.0237-.0167.0383-.7495.0398-1.7224-.5078-21.4751-.1032-31.336.5458-39.3638.6787-7.6832,1.6018-13.5334,2.8148-19.0301Z"/><path class="cls-11" d="M65.888,76.2224c-.0194-.3147-.4756-4.9638-.4912-5.2941-.0024.0326-.6577-5.154-.956-8.1987-.0476-.4889-.2225-.9235-.2215-.9239.0012.0005-.0214.2777-.0161.3726.0057.143.0129.3136.0388.6008.393,4.4778.8975,12.5181.9092,12.5389.0129.3011.0314.6159.0527.919.7944,8.0243,1.6981,14.1596,3.5488,36.3062.0235.4898,1.1378,7.7661,1.1848,7.9734,0-.0156-.1428-2.2253-.1646-2.8107-.0144-.4034-.5978-8.2014-.6257-8.582-1.7049-19.0712-2.5534-25.3516-3.2593-32.9016Z"/><path class="cls-11" d="M56.9613,75.9699c-.0012-.2879,1.3583-5.7656,1.4967-6.0826.2428-2.3399.592-4.8426,1.1329-7.8589.0919-.2982.2833-1.2507.2526-1.1897-.0145.0302-.0402.1581-.0742.2467-.0148.0356-.0136.1654-.1597.6119-.0726.1988-1.1276,6.1981-1.6783,8.3846-.0976.2924-1.1113,3.4982-1.1478,3.7714-.66,3.1742-1.8267,8.818-2.6929,18.5472-1.0073,8.5388-1.3292,28.3746-1.333,29.0667-.0016.7957.0573,5.2818.0788,5.3404.0478-.9781.0896-1.9258.1374-2.8417-.009-.3415.025-9.7487.0563-10.1409.9735-24.4962,2.282-29.8965,3.9312-37.8552Z"/><path class="cls-11" d="M54.9533,75.1169c.0265-.3062,2.1159-5.6099,2.2359-5.9103.6099-2.1766,1.3143-4.472,2.2132-7.1489.0904-.2916.3382-1.1871.3084-1.1276-.0143.0285-.064.1454-.0961.2302-.0126.035-.0555.1425-.1967.5748-.0765.1283-2.2141,5.3931-2.7637,7.6532-.0865.279-1.8936,3.1948-1.944,3.4864-.6888,3.2572-1.6037,9.327-2.1772,19.3533-.7634,8.7956-.4654,29.4243-.4417,30.2074-.0154.7257.0818,7.0273.109,7.1442.024-1.6327.0522-3.1858.0848-4.6648-.004-.3319.1192-9.6845.1534-10.0856.2247-25.59,1.3049-31.0588,2.5146-39.7124Z"/></g><g id="Head-2"><path class="cls-15" d="M195.2049,16.6903c5.2318-7.7442,7.9578,7.9016,9.891,18.8944-1.1159-1.5097-5.1477,1.7739-5.3846,4.5533-.5052,4.9957-1.0099,10.2587-1.5041,15.5823-.3386,3.7488,4.0066,3.7991,5.8093,3.8842,6.0839.3679,12.0289.2524,18.3786.392,1.8745.4042,6.0424-.8937,5.7689-3.8184-.4142-2.4408-.7995-4.454-1.1675-6.4689-.1274-.7373-3.687,3.0585-5.0337,2.6186-.8623-4.0145-2.5634-9.0707-5.2686-19.9026-2.7019-9.9579-6.2263-25.7698-9.8921-31.0273-1.614-2.0981-3.9528-1.3006-4.9803-.9769-2.1397.9872-4.2174,3.1498-6.8516,11.8896-1.2976,4.5144-1.1332,6.598.2347,4.3797Z"/><path class="cls-6" d="M205.0967,35.5868c-.003-.1127,2.559,3.237,4.4593,6.1964.9255,1.3664,1.5688.9485,1.2933-1.2688-1.4474-10.5391-4.5767-29.0142-9.5028-35.3218-.9902-.8182-1.8643-1.7235-4.2446,1.1281-.5686,1.1764-1.5541,4.0486-2.1314,5.9911-1.5812,5.4617-.8889,6.2028.2327,4.3845,4.5095-7.1491,7.5039,5.3383,9.3721,15.7381.3293,1.9207.5207,3.151.5215,3.1525Z"/><path class="cls-18" d="M210.2025,42.482c-.0067-.0017,2.2827,3.1102,3.1653,4.5331.4022.6524.3138.0613-.0469-2.4118-2.0838-12.0868-5.8966-34.9827-11.1975-41.0512-1.0643-1.1912-3.0036-.9198-3.0108-.8634-.6284.864-1.2917,2.022-2.0046,3.617.0149-.0749,2.9627-3.199,5.0622.0072,2.9731,3.0655,7.2467,22.7645,8.0837,33.0791.1575,1.9403-.0526,3.082-.0514,3.09Z"/><path class="cls-13" d="M146.9936,86.3471c-.1275.2003,4.609,8.4278,9.8325,19.0773,5.3367,10.6185,11.1227,23.5233,15.1263,31.6045.3629.6486,3.0898,3.7766,4.2245,4.1149.73.2005,1.4598.3931,2.1884.5786,1.1414.2947,2.0911.0233,2.2827-.6288.4093-1.3815.8425-2.7662,1.2938-4.1493.856,2.389,1.68,4.5842,2.4527,6.4176.3258.7346,2.8832,4.1115,4.0033,4.3593.7154.1435,1.4306.279,2.1457.4063,1.1236.2022,2.075-.2211,2.2801-.9926.124-.4552.2506-.9093.3771-1.3623,1.4355,1.4642,2.8579,2.8047,3.2294,2.8463,1.2022-.898,2.4177-1.8251,3.6419-2.7703.0177.2383.0354.477.0524.7163.1822.8137,4.3544,2.662,5.1399,2.6548,2.3849-.3018,4.7758-.6926,7.1718-1.1604.7687-.0577,7.0533-6.1699,7.2492-6.8838.1617-1.2965.3208-2.5685.4765-3.8183.4273,1.9153.8425,3.8682,1.2385,5.8564.2172.7453,1.1734,1.1823,2.2937,1.0222.716-.1003,1.4323-.2083,2.1488-.3222,1.1115-.1764,6.4351-3.4706,6.7271-4.1986.4799-1.4426.9572-2.8497,1.4312-4.2257.1048.9743.2032,1.9561.2936,2.944.1749.6672.9563,1.846,1.9991,1.4495.278-.4412,14.8384-11.899,15.6875-11.9792.2341-.1154,1.0973-.5098,1.6139-1.3895,6.301-18.5435,12.9352-34.4948,18.4457-50.608.4433-.5764.4463-1.164.0031-1.7357-13.542-8.8338-24.4453-17.7077-33.2901-27.0249-.2146-.4642-1.0976-.7866-2.1017-.7741-.6408.008-1.2762.0168-1.9064.0266-.9865.0148-1.8355.3658-2.0424.8376-.3843,1.0132-.7682,2.018-1.1522,3.0136-.9922-1.3984-1.9675-2.8185-2.9301-4.2689-.2829-.6106-1.4605-1.7821-2.8408-1.6239-.6409.0751-2.0995.3452-2.7384.5374-.2715.0768-1.2621.3178-1.7111,1.221-1.561,1.2194-3.0993,2.4208-4.6177,3.6015-.8679-1.1622-1.733-2.3453-2.5998-3.5514-.1873-.5996-.9659-1.7688-1.8895-1.6278-.4274.0674-1.4093.3117-1.8415.4894-.1806.0729-.8564.2944-1.1553,1.1696-.2698.5843-.5391,1.1629-.808,1.7374-.243-.3818-.4865-.7657-.7304-1.1523-.1877-.5953-3.3857-2.3633-4.313-2.2391-.4235.0608-1.4041.2955-1.8391.4663-.18.0712-.8552.2849-1.1468,1.1537-.48.7876-.9597,1.5656-1.44,2.3354-.5767-.2965-1.1656-.5874-1.7738-.8716-3.5451-1.6445-5.0559-5.0344-6.4382-5.0688-2.7517-.0305-4.8933,2.8415-5.5423,3.0668-1.0991.4082-2.4977.9107-3.8738,1.4283-.4891-.6871-.9803-1.3766-1.4719-2.0682-.3206-.6221-1.5934-1.831-3.1211-1.6974-.7007.0595-2.3477.3002-3.0921.4756-.3098.0744-1.4669.295-2.0031,1.1756-7.5028,7.8969-16.4349,15.3389-27.3175,22.8049-5.2312,5.1861,2.0652,17.8617,2.6775,18.6046Z"/><path class="cls-4" d="M244.8122,73.9918c.0986.5757.2318,1.1656.3898,1.7334,3.8531,17.998-1.0793,35.6075-10.6197,58.0361-.2416.6442-.595,1.7874-.597,1.7905.0331-.0376,4.764-7.832,4.8501-7.9437.0517-.0609.2209-.2442.6067-1.1027-.0654-.0646,4.4529-10.3907,7.3659-20.9685,3.2358-10.6758,3.7151-22.2513,4.0001-27.9226.0915-.6063.0222-3.8664-.201-4.4653-5.5399-8.5567-12.0668-15.9523-18.5243-22.4257-.2325-.3736-.5338-.3652-.5355-.3635-.0012-.0012.2451.4404.2717.5397.1429.5333.2932.9743.4756,1.368,4.8495,6.7189,9.2715,13.8974,12.5176,21.7243Z"/><path class="cls-4" d="M171.8427,74.7571c.1353-.5976.2492-1.2264.3407-1.8295,1.9612-7.9877,5.0077-15.7065,8.745-23.6487.1951-.528.5468-1.5623.399-1.4925-.0691.0316-.2647.1926-.3752.3222-.045.0529-.198.2066-.5565.9491-2.7806,4.3384-5.4172,8.6849-7.8393,13.1492-2.3031,4.7099-4.6096,8.5927-4.6979,9.2309-1.1984,7.3025-.9622,19.3117,2.1379,31.092,2.8041,11.673,7.9164,24.3243,10.3474,30.9101.212.564,1.1782,2.8242,1.256,2.7957.0474-.0218.0954-.0438.1442-.0652.0759-.0337-.0108-.5059-.2068-1.1286-8.7148-24.363-12.5868-41.7786-9.6945-60.2846Z"/><path class="cls-4" d="M186.2987,79.8324c-.4024-.9212,7.1961-21.151,7.898-21.5482.0032-.0132,2.0563-2.8367,3.1278-5.8437.4597-1.332,1.6522-3.9178,1.6261-3.9453-.0735-.0453-1.1933,2.1573-1.2954,2.3499-.4962.8908-1.2963,2.3773-1.6099,3.0896-2.6523,3.6494-5.1615,7.3747-7.5471,11.2722-1.871,4.6686-4.3854,16.8293-4.2996,17.5527.093.03-.9577,9.7751.6012,22.2474,1.2054,12.1834,5.3624,29.1672,7.4267,37.3444.1614.6881.8797,3.4924.9146,3.4868.0197-.0082.0399-.0171.0589-.0262.0296-.0152-.0684-.5656-.2344-1.3155-7.4517-28.273-9.157-46.8135-6.6668-64.6642Z"/><path class="cls-4" d="M224.3065,77.0224c.0341-.6356-1.7282-10.0087-1.8391-10.6351.0245.0054-3.5849-10.0954-5.0036-15.1468-.2285-.8356-.752-1.5694-.752-1.5679.0003.0011-.1286.4868-.1181.6514.0169.244.042.5398.1618,1.031,1.9277,7.4515,3.5296,23.9712,3.4349,23.9724.0074.6077.0378,1.2366.0904,1.8432,1.0326,15.123,1.3578,30.5938-.3149,53.1927-.0257.6173.0885,6.9326.1615,7.0003-.0009-.0008,1.187-1.604,1.2971-2.1461.0489-.2147,1.2149-7.6627,1.2661-8.2319,1.9478-20.6213,2.1132-35.366,1.6158-49.9633Z"/><path class="cls-4" d="M201.8225,76.918c-.0086-.6048,3.3381-11.7358,3.611-12.287.6199-4.5972,1.4591-9.3297,2.5519-14.3735.1657-.518.5247-2.0927.4358-2.0036-.0399.0418-.1682.2236-.2437.3627-.0331.0575-.134.2294-.414.9706-.088.0836-3.6785,10.2554-5.0164,14.9698-.2109.5463-3.3199,6.9358-3.3885,7.537-1.3094,6.3705-3.1996,19.9402-2.8346,35.2823.0267,14.8924,2.8786,33.7538,2.7942,33.815.0891.7216.657,4.7425.7087,4.7522.0582-.918.1218-1.8217.1903-2.7134.011-.1108-.8078-8.4806-.8314-9.0714-2.1501-25.5885-.7672-41.856,2.4369-57.2407Z"/><path class="cls-11" d="M242.9459,74.9836c.1115.5732.233,1.1709.3649,1.7464,4.1087,17.3886.1761,34.7886-8.8467,57.2865-.2599.6551-.6291,1.8297-.6324,1.8316.0511-.0636,4.3073-8.3491,4.3499-8.4526.0378-.0698.044-.1949.4121-1.0801.1262.0217,3.8764-10.2382,5.878-20.4868,2.2786-10.3529,2.5143-21.4747,1.7466-26.902.0157-.5917-.2997-3.7477-.4792-4.3361-3.4881-8.6485-8.4164-16.5229-13.8097-23.8833-.2259-.3915-.4136-.4472-.4136-.4489-.0005,0,.1288.5223.1656.6169.2081.5136.4827,1.0229.6833,1.4239,4.4095,7.2014,8.1657,14.6981,10.5812,22.6847Z"/><path class="cls-11" d="M168.0845,74.8151c.1242-.6203.2473-1.2624.3558-1.8853,3.1063-8.257,7.278-16.0273,11.9059-23.8031.2111-.5258.9922-1.3502.9914-1.3492-.209.1062-.4162.2132-.6244.3211.0002.0005-.1697.2652-.6451.9133-3.4323,4.2427-6.8074,8.581-10.0584,13.1372-2.0379,4.8934-3.6871,8.9144-3.797,9.5555-1.5289,7.3547-.6378,19.4801,3.0053,31.1662,3.3578,11.6132,8.8248,24.0085,11.1327,30.613.2025.5693,1.0886,2.8564,1.1329,2.8465.0235-.0133.051-.022.0748-.0337.0372-.0188-.079-.4752-.2841-1.095-9.4231-23.9442-14.9862-41.3202-13.1897-60.3865Z"/><path class="cls-11" d="M187.5956,68.0173c.1057-.6708,5.2027-9.5458,5.506-10.0727.009-.0185,2.9162-2.5732,4.0423-5.5396.4883-1.3179,1.6809-3.9067,1.6647-3.9244-.0535-.0356-1.1505,2.1831-1.2448,2.3776-.4685.8992-1.4094,2.002-1.7194,2.7172-2.7699,3.6-5.4094,7.2976-7.938,11.1703-1.8777,4.7056-4.4864,16.9105-4.408,17.6379.0905.0323-.8214,9.9373.917,22.4881,1.3802,12.2766,5.7194,29.3087,7.7568,37.4862.1567.6904.8582,3.4975.8837,3.4962.0141-.0062.0284-.0113.0414-.0179.0213-.0092-.086-.5568-.2534-1.3074-9.379-34.2917-10.2772-54.9088-5.2483-76.5115Z"/><path class="cls-11" d="M220.6099,77.6426c.0198-.6151-.9335-9.8826-1.0258-10.5078.0335.0273-1.6009-10.1591-2.5083-15.2969-.1403-.8458-.5062-1.5992-.5039-1.5996.002.0002-.0097.4649.0099.6268.0253.2433.0565.534.1338,1.0308,1.3127,7.5174,2.5916,23.9543,2.4953,23.9594.0232.6025.054,1.2313.0894,1.8354,1.3243,14.895,1.9679,30.2838.6421,52.7122-.0339.6121.1733,7.1248.1818,7.1878.0019-.0045.1883-1.9304.2594-2.4716.0434-.2168.6427-7.7229.6779-8.2909,1.1937-20.4529.6863-35.0289-.4513-49.1857Z"/><path class="cls-11" d="M202.6353,77.2143c-.0277-.596,2.8003-11.8234,3.0853-12.3838.5126-4.6466,1.2513-9.4375,2.2526-14.5603.1725-.5124.5172-2.0919.4601-1.9874-.0261.0493-.0727.2603-.1348.4068-.0276.0596-.0232.2721-.2925,1.021-.0952.1276-2.1638,10.8887-3.354,15.5161-.2021.5556-2.311,7.0824-2.38,7.6555-1.3668,6.1953-3.7202,19.0956-3.9813,33.7952-.5765,14.2464,1.4655,32.2271,1.3966,32.2707.0838.7127.5637,4.3148.5865,4.3291-.0331-.7568-.071-1.5063-.0993-2.2442-.0185-.1011-.9135-8.3244-.9403-8.906-1.6488-24.41.0188-40.1532,3.4012-54.9127Z"/><path class="cls-11" d="M198.5893,75.4608c.0065-.6221,4.3255-11.4157,4.5878-11.9439,1.2797-4.292,2.753-8.6493,4.4415-13.198.1713-.5015.6255-1.9891.5696-1.8872-.0263.047-.1177.2393-.1766.3804-.0241.0592-.1015.234-.3646.9607-.0731.0494-4.3061,9.4399-5.5451,14.1227-.1876.5305-3.8852,6.4401-3.9745,7.0354-1.4639,6.2533-3.1707,19.9746-2.532,35.2209.2882,14.8325,3.5003,33.4739,3.41,33.5378.0741.6798.7998,5.623.827,5.6502-.1242-1.2225-.2415-2.4255-.3508-3.607-.0167-.0974-.873-8.1517-.8982-8.7257-3.0548-25.2647-2.505-41.6202.0059-57.5464Z"/></g><g id="Head-3"><path class="cls-15" d="M340.1316,34.3527c4.6247-4.7823,7.7169,6.0604,9.3296,13.5929-.9839-1.0343-4.4329,1.0945-4.5752,2.9946-.349,3.4236-.698,7.0363-1.0528,10.6977-.2407,2.5863,3.3394,2.6844,4.8283,2.7474,5.0205.2886,9.9274.1509,15.1547.0734,1.5379.2414,4.981-.827,4.8252-2.9132-.2851-1.7193-.5498-3.1299-.7968-4.5393-.0919-.5001-3.1582,2.3804-4.2615,2.1102-.6434-2.767-1.9377-6.2227-4.0154-13.5704-2.0777-6.7629-4.9397-17.3684-8.7169-20.9821-1.6386-1.4376-4.0276-1.0164-5.0491-.8809-2.1304.5219-4.1583,1.7436-6.1385,7.5595-.9533,3.0179-.6795,4.5174.4685,3.1103Z"/><path class="cls-6" d="M349.4619,47.9471c-.0001-.0733,2.2288,2.242,3.8258,4.2443.7802.927,1.3268.6301,1.1092-.8849-1.1417-7.2375-3.7442-19.6829-8.9014-24.367-.9957-.6406-1.9387-1.3412-4.1257.3629-.4935.7534-1.2762,2.6451-1.7064,3.9409-1.1632,3.6517-.4751,4.2682.467,3.1134,3.9381-4.45,7.2495,4.2968,8.8575,11.424.3018,1.321.473,2.1653.4742,2.1664Z"/><path class="cls-18" d="M353.8339,52.6631c-.0024.0009,1.9155,2.0988,2.6393,3.0554.3316.4395.2626.0351-.0146-1.6555-1.6034-8.3043-4.6475-23.7-10.2482-28.1998-1.0977-.8837-3.0408-.8964-3.0426-.8624-.586.5329-1.1846,1.2625-1.7928,2.2917-.013-.0526,2.7881-1.8542,4.9652.475,3.1571,2.3321,6.99,15.7229,7.5555,22.7785.1224,1.3269-.063,2.1116-.0619,2.117Z"/><path class="cls-13" d="M302.3182,85.8041c-.1085.2252,3.2136,7.5933,6.3127,15.8642,3.2332,8.306,6.2315,17.6004,8.5443,22.9686.2192.4217,2.3564,1.9052,3.4763,1.6846.7161-.1525,1.4331-.2998,2.1488-.4409,1.1223-.2204,2.1425-.7927,2.4422-1.3847.6416-1.2602,1.2782-2.497,1.9069-3.7087.5118,1.6149,1.0224,3.0743,1.5428,4.2591.214.4742,2.3651,2.2819,3.5066,2.1558.7217-.0905,1.4446-.1759,2.1669-.2564,1.137-.127,2.1577-.6335,2.4366-1.2305.1687-.3539.3378-.7055.5051-1.0551,1.3142.7813,2.6657,1.5022,3.0422,1.4757,1.2898-.8188,2.5655-1.6135,3.8259-2.3832.0071.1636.0142.3274.0207.4917.1309.5177,4.2842,1.4964,5.0934,1.5059,2.4199-.2771,4.8303-.4962,7.2286-.6567.8342-.045,6.745-3.5859,6.8332-4.0252.0714-.8935.1432-1.7703.214-2.6323.5269,1.4097,1.0667,2.8593,1.6183,4.3499.2733.5694,1.2658,1.0551,2.3729,1.1753.7067.0771,1.4135.159,2.1201.2464,1.1167.0993,6.0202-.8841,6.184-1.3422.2685-.9841.5382-1.9453.8092-2.8869.2355.7975.4746,1.6057.7144,2.4245.2707.5852,1.2502,1.8092,2.241,1.8846.3655-.3002,12.5179-4.0725,13.1884-3.7005.2033.0065.9623.0749,1.2562-.5347,1.8339-15.2474,5.4168-28.1986,9.5256-44.1508.3428-.568.3447-1.1627,0-1.7288-10.5404-8.5177-18.8988-14.0328-25.7996-20.127-.1531-.3264-.8766-.4583-1.7221-.3315-.5392.0807-1.0738.1586-1.6043.2336-.8306.1179-1.5608.4591-1.7551.8233-.3673.7777-.7289,1.5428-1.0859,2.2956-.7758-.936-1.5387-1.8811-2.294-2.8428-.2141-.4164-1.1632-1.1526-2.3373-.9355-.5446.1029-1.7864.3933-2.3309.5659-.2314.0712-1.0754.299-1.4755.9522-1.3443.933-2.6573,1.8257-3.9438,2.6859-.7097-.7766-1.4206-1.5673-2.1369-2.3751-.1504-.4079-.795-1.1909-1.5779-1.0766-.3621.0548-1.1935.2371-1.5595.3631-.1528.0522-.725.2104-.9794.8112-.2293.4018-.4569.7991-.6837,1.1932-.2038-.2604-.407-.5226-.6128-.7869-.1544-.4015-2.8585-1.6266-3.6453-1.5637-.3578.0355-1.1844.1779-1.5498.2847-.1512.0452-.7193.1754-.9542.7652-.3948.5293-.7878,1.0518-1.1805,1.5689-.4875-.2209-.986-.4403-1.5016-.6586-2.9989-1.2646-4.3819-3.7543-5.5608-3.8774-2.3427-.2282-4.0385,1.6298-4.5739,1.7423-.9095.1983-2.0651.4336-3.1962.677-.4426-.5534-.8898-1.1149-1.3418-1.6849-.3015-.4957-1.4514-1.5543-2.7403-1.6704-.5905-.0508-1.9711-.109-2.5886-.0897-.2578.0111-1.2214-.0025-1.6089.6042-5.7572,5.0715-12.5532,9.7816-20.8465,16.1653-3.758,5.0523,1.5437,17.6346,1.9096,17.9201Z"/><path class="cls-4" d="M381.933,74.1699c.0782.4455.186.9026.3146,1.3444,3.0359,14.0864.7746,28.4935-5.2518,43.2751-.1454.437-.3311,1.2317-.3329,1.2334.0508.0045,3.4854-4.8028,3.5296-4.8944.0401-.0342.1738-.1319.4166-.7135-.0426-.0529,2.6654-7.1153,4.1961-15.2139,1.7546-8.1128,1.7344-17.5778,1.9621-22.1285.0637-.4892.0018-3.1288-.169-3.6091-4.3939-6.8524-9.3939-11.8977-14.5444-16.0945-.1797-.2532-.4317-.2228-.4328-.2216-.0005-.0008.188.3004.2066.3705.0998.3761.2094.6852.3469.958,3.7968,4.5188,7.1577,9.6382,9.7585,15.6942Z"/><path class="cls-4" d="M322.4729,74.7628c.1091-.4573.2003-.9374.2714-1.3971,1.5526-6.0878,3.7784-11.7184,6.5599-17.2075.1405-.3706.389-1.0959.2685-1.0589-.0566.0165-.2135.1159-.2999.2006-.0354.0348-.1565.1325-.4232.6456-2.132,2.9342-4.1266,5.9734-5.974,9.2427-1.7415,3.4547-3.5631,6.4613-3.6298,6.9649-.863,5.6924-.9214,15.393.7835,24.2923,1.503,8.8869,4.5552,17.6269,6.0441,22.0602.1277.3839.7579,1.8743.8385,1.8277.0489-.0308.0986-.062.149-.0927.0783-.0483.0569-.3912-.0508-.8209-5.112-16.4932-6.8004-30.46-4.5372-44.6569Z"/><path class="cls-4" d="M334.1891,78.3766c-.2601-.7552,5.8109-14.8882,6.3573-15.0625.002-.0098,1.6617-1.9165,2.5152-3.9628.3641-.9081,1.3273-2.6571,1.3058-2.6765-.0634-.0336-.9698,1.4535-1.0518,1.5839-.4023.6004-1.047,1.605-1.2973,2.0894-2.152,2.4492-4.16,4.9704-6.071,7.6705-1.448,3.2257-3.5276,11.9488-3.4966,12.4895.0739.002-.8557,7.0799-.099,15.9793.4951,8.7354,2.9283,20.4157,4.2826,25.8918.0985.467.5703,2.3508.607,2.3396.0206-.0095.0417-.02.0616-.03.0312-.0165-.0191-.3937-.1203-.9021-4.7739-18.9831-5.0306-32.7007-2.9935-45.4099Z"/><path class="cls-4" d="M365.2842,76.354c.0136-.4558-1.3979-7.0069-1.4734-7.4332.0148-.0103-2.8475-6.9654-3.9581-10.3981-.179-.5708-.6061-1.0616-.6064-1.0605,0,.0009-.1144.3398-.1076.453.0109.1679.0276.3713.1216.7069,1.4804,5.0767,2.7097,16.53,2.6596,16.5382.0062.4219.0315.8586.0759,1.28.8792,10.498,1.3894,21.3479.992,37.0464-.0029.4272.4608,4.8872.545,4.9489.0007-.0011,1.0283-.9736,1.0946-1.3429.0302-.1431.6534-5.2754.6705-5.6756.6017-14.3984.4339-24.8236-.0136-35.0632Z"/><path class="cls-4" d="M346.8871,76.2475c-.0025-.4208,2.7267-8.0409,2.9509-8.4142.5047-3.1457,1.1881-6.3807,2.1051-9.8337.1386-.3549.442-1.4334.3674-1.3722-.0335.0288-.1414.1536-.205.249-.0278.0394-.1129.1574-.3477.6649-.087.0623-3.0531,7.0075-4.1271,10.2302-.1725.3705-2.705,4.7426-2.7609,5.1604-1.0597,4.369-2.6163,13.7711-2.6602,24.4064-.3244,10.3459,1.4713,23.219,1.427,23.254.0541.4932.4367,3.2289.4893,3.2303.0985-.6421.1996-1.2738.3022-1.8969.0152-.0766-.4512-5.8041-.453-6.2125-1.0495-17.5711.3016-28.9236,2.9119-39.4656Z"/><path class="cls-11" d="M380.4259,74.9361c.0901.4386.1899.8972.299,1.3398,3.2852,13.4245,1.7051,27.6626-3.8084,42.6798-.1617.44-.3591,1.2539-.362,1.2543.059-.01,2.9892-5.3426,3.0002-5.4399.026-.0454.0157-.143.2428-.7486.1418.0744,2.1927-7.1512,3.0518-15.0098,1.0487-7.8775.8783-16.7473.2378-20.9888.0023-.4646-.2668-2.9343-.4076-3.3905-2.8031-6.7471-6.5264-12.3489-10.7529-17.2633-.174-.2667-.3282-.292-.3282-.2932-.0005,0,.0882.3689.1155.4347.155.3567.3648.7059.5176.9827,3.4118,4.902,6.2401,10.3205,8.1944,16.4428Z"/><path class="cls-11" d="M319.4419,74.8079c.1004-.4867.1978-.9894.2823-1.4758,2.4619-6.438,5.5616-12.0502,9.0869-17.3402.1527-.3681.7704-.8988.7696-.8979-.1706.0577-.3394.1165-.5086.1756.0002.0006-.1302.1784-.4984.611-2.6782,2.803-5.2687,5.7723-7.7717,9.1025-1.5036,3.6676-2.7947,6.8424-2.8788,7.3512-1.1204,5.808-.7024,15.7401,1.4278,24.5063,1.9304,8.7971,5.3486,17.2122,6.7231,21.6977.1181.3907.6665,1.9252.7118,1.9033.025-.0173.0526-.0322.0774-.0483.0386-.0256-.0121-.3485-.1284-.7739-5.8392-15.9367-8.683-29.7646-7.2929-44.8115Z"/><path class="cls-11" d="M335.2354,69.9892c.085-.4995,4.1586-6.6057,4.4025-6.9431.0061-.0128,2.373-1.7073,3.2728-3.7245.3875-.8975,1.3504-2.6486,1.3374-2.661-.0459-.0263-.9333,1.4724-1.0087,1.6043-.379.6071-1.1464,1.3418-1.3932,1.8279-2.2493,2.4097-4.3634,4.9051-6.3885,7.5853-1.4484,3.2533-3.598,12.0287-3.5743,12.5759.0725.003-.7455,7.2176.1494,16.1713.6273,8.8031,3.2177,20.4873,4.5474,25.9683.0939.4695.5471,2.359.5739,2.3524.0145-.0072.0295-.0134.0432-.0208.0226-.0107-.0376-.3843-.1391-.8931-5.9868-22.9957-5.5887-38.6895-1.8229-53.8431Z"/><path class="cls-11" d="M362.2657,76.7696c.0047-.4314-.7579-6.8613-.8212-7.2898.0206.0138-1.2427-7.0173-1.9236-10.5331-.1059-.5803-.4012-1.0895-.3994-1.09.002.0003-.0146.321,0,.4322.0177.1672.0403.3669.0984.7077.9702,5.1437,1.9543,16.5198,1.8995,16.5287.0195.4173.0453.8532.0755,1.2718,1.1235,10.3203,1.866,21.1008,1.7731,36.7149-.0117.4217.5515,5.0332.5757,5.0835.0011-.0029.0599-1.3384.0951-1.7113.0214-.1478.161-5.369.1712-5.7651.0634-14.278-.5732-24.5114-1.5443-34.3496Z"/><path class="cls-11" d="M347.5523,76.4496c-.0187-.4129,2.2877-8.0986,2.5218-8.4791.4171-3.1798,1.0184-6.4551,1.8588-9.9621.1441-.3508.4357-1.433.3878-1.3612-.0219.034-.0616.1784-.1136.2788-.0234.041-.0197.1862-.2462.6994-.0881.0895-1.8014,7.4498-2.7639,10.6136-.1654.3784-1.8847,4.8451-1.9417,5.2399-1.1155,4.2395-3.0361,13.1277-3.5314,23.3012-.7484,9.8752.4029,22.2019.3598,22.2253.0517.487.3757,2.9404.3983,2.9481-.0023-.521-.0101-1.0366-.0093-1.5448-.015-.067-.5636-5.6886-.5678-6.0905-.6532-16.7946.8842-27.7617,3.6475-37.8685Z"/><path class="cls-11" d="M344.2421,75.2496c.0101-.4404,3.5244-7.8356,3.7393-8.1885,1.0408-2.9347,2.2423-5.9057,3.6551-9.019.1432-.3431.5249-1.3621.4784-1.2923-.0218.0324-.0989.164-.1485.2608-.0199.0405-.0855.1604-.3059.6579-.0758.0405-3.5723,6.4438-4.5618,9.6454-.1542.3594-3.1663,4.3976-3.2382,4.8127-1.1786,4.2916-2.5838,13.8285-2.4114,24.4064-.1212,10.3158,1.9944,23.0085,1.9502,23.0457.0399.466.5325,3.8283.5603,3.8437-.0688-.8363-.1313-1.6597-.1872-2.4693-.0123-.0647-.5006-5.5779-.5027-5.9752-1.8156-17.2958-1.0558-28.7706.9724-39.7284Z"/></g><g id="Smile_Face"><path class="cls-2" d="M229.1272,89.3322c-16.326-5.7597-33.3943-5.7225-49.7448.0197-.3887.1337-.8071-.0489-.9288-.4088-.0482-.1439-.0963-.2878-.1439-.4315-.1201-.3596.1111-.7708.5123-.9099,16.8191-5.962,34.0865-6.0046,50.8722-.03.4007.1395.63.5528.5086.9145-.0481.1446-.0965.2893-.1454.4341-.1227.3621-.542.546-.9301.412Z"/><path class="cls-10" d="M161.6665,98.2197s0,0,0,0c-.4019-4.4695,3.8768-8.2063,8.7676-8.2836,3.8494-.0376,7.6988-.069,11.5482-.0943,4.9023-.0454,8.8456,3.9283,8.9783,8.8099h0c.0962,4.8809-3.5042,8.8013-8.2177,8.6394-3.7248-.1161-7.4496-.2606-11.1743-.4337-4.7017-.2494-9.4911-4.1688-9.9021-8.6377Z"/><path class="cls-2" d="M193.768,99.072h0c-.1589-6.4731-5.326-11.7382-11.7671-11.6416-3.7945.0444-7.589.0995-11.3835.1655-6.4209.1655-12.3162,5.1082-11.714,10.9253t0,0c.6324,5.816,7.2485,11.0357,13.316,11.4438,3.6201.2091,7.2402.384,10.8603.5248,6.0879.2624,10.7693-4.9458,10.6883-11.4178ZM171.5686,106.8575c-4.7016-.2493-9.4912-4.1691-9.9021-8.6377t0,0c-.4017-4.4694,3.8769-8.2064,8.7676-8.2836,3.8494-.0376,7.6988-.069,11.5482-.0942,4.9024-.0454,8.8456,3.9283,8.9783,8.81h0c.0964,4.8809-3.5041,8.8011-8.2177,8.6393-3.7248-.116-7.4496-.2606-11.1743-.4337Z"/><path class="cls-10" d="M249.1309,96.1953c-.0718,1.354-.1885,2.7079-.3504,4.0619-.4176,3.3718-3.9984,6.3202-7.5444,6.5117-5.1517.2525-10.3033.4505-15.455.5938-3.5524.1069-6.2668-2.842-6.1541-6.5129.0529-1.4639.0911-2.9277.1145-4.3916.0618-3.6713,3.03-6.6604,6.719-6.6318,5.3241.0312,10.6481.0742,15.9721.1291,3.6823.055,6.8827,2.8676,6.6982,6.2399Z"/><path class="cls-2" d="M216.8968,98.6721h0c-.0699,6.4736,4.6411,11.6875,10.7454,11.434,3.6287-.1359,7.2574-.3052,10.8861-.5079,6.0839-.3968,12.6713-5.6117,13.2595-11.4356h0c.5581-5.8253-5.3611-10.7827-11.7754-10.9548-3.7917-.07-7.5833-.1285-11.3749-.1754-6.4345-.1009-11.5934,5.1648-11.7408,11.6396ZM240.2208,89.9333c4.8907.0767,9.1682,3.8177,8.7686,8.2929h0c-.4085,4.4746-5.1917,8.3972-9.8936,8.6445-3.7247.1717-7.4495.3148-11.1743.4294-4.7134.1598-8.3203-3.7634-8.2262-8.646h0c.1301-4.8833,4.0746-8.8588,8.9773-8.8141,3.8494.0249,7.6988.056,11.5482.0933Z"/><path class="cls-21" d="M201.4456,96.891c-1.2263,1.7529-2.4385,3.5026-3.6208,5.2461,1.4917,3.1297,2.9801,6.266,4.4052,9.4013.7399-3.4375,1.5505-6.8795,2.3889-10.3229-1.0499-1.4413-2.1108-2.8834-3.1734-4.3245Z"/><path class="cls-14" d="M201.9673,97.5978c-1.0243,1.4661-2.0383,2.9301-3.0327,4.3902,1.2386,2.6179,2.4717,5.2396,3.6642,7.8605.6371-2.8758,1.3189-5.7545,2.0201-8.6341-.878-1.2053-1.7637-2.4111-2.6516-3.6166Z"/><path class="cls-21" d="M209.8405,96.0736c-.0023-.0004-3.1508,3.4116-3.1488,4.5101.0397,1.1013,2.8066,11.0157,3.3965,11.7237.6283.71,3.966-9.0349,3.9869-9.7097.0497-.6728-4.2142-6.5191-4.2347-6.5241Z"/><path class="cls-14" d="M209.0792,96.9328c-.0022-.0002-2.3883,2.7718-2.3875,3.6296.0124.8589,1.8685,7.4351,2.4426,9.2199.6269,1.9377,3.3165-7.1137,3.3321-7.6419.0296-.5276-3.3743-5.2048-3.3872-5.2076Z"/><path class="cls-1" d="M255.4771,77.744c-12.94-7.2482-26.0085-8.3925-36.2087,2.5057-.3632.3815-.9926.4103-1.4202.0621-.1956-.1609-.3914-.3217-.5864-.4826-.4267-.3476-.5216-1.0165-.1875-1.4921,9.6906-13.5258,21.8331-15.8711,39.3932-7.3519,7.8835,3.5855,14.8178,9.8092,13.1903,10.6805-.577.466-1.1741.9422-1.7898,1.4278-1.4686.942-6.9849-2.4131-12.391-5.3495Z"/><path class="cls-1" d="M157.6376,65.6898c17.4061-9.0249,27.5369-6.9525,36.6515,6.5238.3101.4731.2028,1.1425-.2189,1.4928-.1929.1621-.3862.3242-.5799.4865-.4231.3511-1.0329.3273-1.3731-.0516-9.5603-10.8286-21.3239-9.3959-34.574-1.8208-5.4986,3.0703-11.3335,6.5837-12.5972,5.7043-.5118-.4585-1.0016-.9072-1.4684-1.345-1.3918-.8008,6.3591-7.1862,14.16-10.9901Z"/><path class="cls-1" d="M217.8945,119.5601c-5.8144,11.2285-17.1427,11.3085-22.7018.072-.724-1.5126-.5493-3.0571.1399-3.1598.2705-.0554.5415-.111.8131-.1671.6912-.1098,1.4987.8226,1.9763,1.8765,3.7603,8.1806,12.9416,8.1305,16.8734-.0498.498-1.0547,1.3213-1.9888,2.0104-1.8829.2702.0542.5406.1083.8097.1621.6873.0988.8336,1.6367.0789,3.149Z"/><path class="cls-1" d="M183.3191,101.1258c-2.729-7.2373-13.7923-7.112-15.702-.3503-.2448.914-.744,1.7641-1.4038,1.6999-.2631-.0366-.5268-.0729-.7902-.1095-.6552-.0601-1.2684-1.4005-.9139-2.7141,2.852-9.2433,18.1669-9.6535,21.7513.4191.5479,1.4178.2151,2.827-.4317,2.8507-.2582.0238-.5154.0479-.7732.0715-.6516.0294-1.3365-.8981-1.7365-1.8673Z"/><path class="cls-1" d="M242.0258,100.8116c-1.9275-6.7971-12.9905-6.9169-15.7019.3351-.3967.9718-1.0775,1.9004-1.7293,1.8701-.2578-.0242-.5157-.0483-.7736-.0726-.6471-.0249-.9863-1.4372-.4422-2.8577,3.5685-10.0891,18.8834-9.6969,21.7513-.4008.3587,1.3206-.2483,2.6678-.9034,2.727-.2633.0364-.5266.0727-.7899.109-.6599.0639-1.1628-.7917-1.4111-1.7099Z"/></g><g id="Frustrated_Face"><path class="cls-2" d="M376.0337,89.8612c-13.1112-2.9818-27.5898-2.9252-40.7226-.0038-.3134.0752-.6591-.0307-.7691-.2392-.0439-.0833-.0874-.1666-.131-.2501-.11-.2089.0629-.4445.3856-.5194,13.4616-2.891,28.3119-2.9572,41.7508-.015.3221.076.4949.3162.3849.5291-.0435.0851-.0873.17-.1308.2548-.1097.2125-.455.3202-.7678.2436Z"/><path class="cls-10" d="M320.8391,95.9188h0c0-3.1827,3.2295-5.764,7.2096-5.739,3.1202-.0159,6.2534-.029,9.395-.0392,4.0069.0048,7.2978,2.1106,7.2975,4.6829h0c.0006,2.5742-3.2906,4.7988-7.2975,5.0921-3.1416.2144-6.2748.4881-9.395.8213-3.98.4679-7.2094-1.6336-7.2096-4.8181Z"/><path class="cls-2" d="M347.0416,94.9929h0c.0008-3.373-4.3531-6.1456-9.649-6.204-3.1074-.0178-6.2065-.0406-9.2931-.0682-5.2615-.1289-9.5172,3.2854-9.5173,7.6303h0c-.0002,4.3484,4.256,7.0526,9.5173,6.316,3.0865-.3864,6.1856-.7045,9.2931-.9543,5.2959-.4575,9.6498-3.3434,9.649-6.7199ZM328.0487,100.7369c-3.9801.4678-7.2094-1.6335-7.2096-4.8181h0c.0003-3.1827,3.2293-5.7639,7.2096-5.739,3.1202-.0159,6.2534-.029,9.395-.0392,4.0065.0048,7.2981,2.1106,7.2975,4.6829t0,0c.0005,2.574-3.2907,4.7988-7.2975,5.0921-3.1416.2144-6.2748.4881-9.395.8213Z"/><path class="cls-10" d="M392.1949,94.7454v2.9624c0,2.5049-2.4175,4.1438-5.3934,3.7247-4.2905-.5637-8.6114-1.0137-12.9505-1.3501-3.0094-.2475-5.4808-1.9966-5.4805-3.9697,0-.7919,0-1.5839,0-2.3759-.0003-1.972,2.4711-3.5866,5.4805-3.5883,4.3391.0161,8.6601.0375,12.9505.0644,2.9764-.0108,5.3936,2.0286,5.3934,4.5325Z"/><path class="cls-2" d="M366.0734,94.8637s0,0,0,0c-.0013,3.4199,4.3479,6.4298,9.6302,6.9901,3.0993.3041,6.1885.6753,9.2629,1.1135,5.2409.8352,9.4736-1.978,9.4738-6.553,0,0,0,0,0,0,.0002-4.5719-4.2328-8.1417-9.4738-7.9812-3.0744.0401-6.1635.074-9.2629.1018-5.2819.0858-9.6314,2.912-9.6302,6.3288ZM385.0172,90.2021c3.9647-.0277,7.1775,2.682,7.1777,6.0246h0c-.0002,3.3444-3.2128,5.5179-7.1777,4.9783-3.1081-.3848-6.2311-.7102-9.3645-.9762-3.9963-.3651-7.2827-2.6852-7.2822-5.3039,0,0,0,0,0,0-.0007-2.6171,3.286-4.7617,7.2822-4.7692,3.1334.0127,6.2565.0282,9.3645.0465Z"/><path class="cls-21" d="M353.3745,93.791c-1.0137.9078-2.0272,1.8195-3.0406,2.7402,1.1791,1.6058,2.3586,3.2077,3.5382,4.8181.7003-1.7787,1.4007-3.5529,2.101-5.3274-.8662-.7467-1.7325-1.4894-2.5986-2.231Z"/><path class="cls-14" d="M353.8,94.1548c-.8477.7585-1.6953,1.5196-2.5428,2.2862.9862,1.3436,1.9726,2.686,2.959,4.0344.5857-1.4863,1.1713-2.9701,1.757-4.454-.7243-.6245-1.4488-1.2461-2.1731-1.8666Z"/><path class="cls-21" d="M360.2602,93.3935c0,.0011-2.5729,1.7451-2.5734,2.3124.0002.5592,2.4185,5.7348,3.0074,6.1398.5893.4001,3.1295-4.6021,3.1294-4.9706.0005-.3737-3.5631-3.4942-3.5634-3.4816Z"/><path class="cls-14" d="M359.6391,93.8337s-1.9523,1.418-1.9523,1.8612c0,.4404,1.5856,3.8636,2.1299,4.8108.5905,1.0282,2.6639-3.6243,2.6636-3.9098.0002-.2875-2.841-2.7697-2.8412-2.7623Z"/><path class="cls-1" d="M398.3393,85.3557c-9.1495-.2569-18.4937-.3942-27.908-.6885-.3374-.0107-.6003-.2599-.6004-.5538v-.4052c.0001-.294.2629-.5611.6004-.5962,9.4142-.972,18.7585-2.3895,27.908-4.529,3.9594-.9508,7.7842-.5788,7.7833,1.2644v2.4847c.0008,1.844-3.8243,3.1679-7.7833,3.0235Z"/><path class="cls-1" d="M310.6244,69.6372c12.6027-1.1669,27.8024,4.5135,36.2276,11.2513.3059.2612.253.6094-.0912.7807-.1573.0793-.315.1584-.4723.2376-.3444.1715-.8721.1379-1.1957-.0775-9.1461-5.7488-22.2057-8.7443-30.9981-5.5709-3.8181,1.29-7.5752,3.5918-8.9926,2.4028-.6212-.6081-1.2414-1.2316-1.8607-1.8712-1.4792-1.3786,1.7616-6.5916,7.3829-7.1528Z"/><path class="cls-1" d="M364.7327,105.9816c-4.7054-.3165-9.422-.4144-14.1344-.2936-.6327.0163-1.1506-.294-1.1505-.695,0-.1601,0-.3202,0-.4803,0-.401.5178-.7445,1.1505-.7586,4.7123-.1062,9.429-.0201,14.1344.2582.6318.037,1.1489.4065,1.1487.8161,0,.1635,0,.327,0,.4905,0,.41-.5168.7055-1.1487.6627Z"/><path class="cls-1" d="M337.7361,97.5345c-3.8944.2009-7.7761.4721-11.6364.8135-.5368.0483-.9762-.2422-.9762-.6472v-.4844c0-.405.4392-.7673.9762-.8034,3.8603-.2654,7.742-.4762,11.6364-.6325.542-.0213.9853.2571.9856.6172,0,.144,0,.288,0,.432,0,.3602-.4435.6765-.9856.7049Z"/><path class="cls-1" d="M386.1327,98.6502c-3.8476-.3806-7.7191-.6909-11.6057-.931-.5409-.034-.9837-.3613-.9836-.7294,0-.1472,0-.2944,0-.4416,0-.368.4427-.6496.9836-.6241,3.8867.1867,7.7582.428,11.6057.7239.5354.0402.9729.4179.973.8372v.5016c.0003.4196-.4376.7172-.973.6634Z"/></g><g id="X_face"><path class="cls-10" d="M28.3386,93.7643s0,0,0,0c.163-3.005,3.25-5.2957,6.6436-5.1337,2.6723.1047,5.0423.1888,7.2292.2523,2.8011.1169,4.9069,2.1594,4.8503,4.5625h0c-.0332,2.3993-2.3227,4.7816-5.2303,4.9577-2.255.1161-4.6797.2699-7.3843.4612-3.4384.2645-6.2542-2.1052-6.1085-5.1Z"/><path class="cls-2" d="M67.957,88.3304c-10.6965-2.6392-18.1027-2.3883-27.2872.2222-.2205.0654-.4844-.0477-.5876-.2561-.041-.0833-.0825-.1669-.1241-.2511-.105-.2103-.0049-.4421.2241-.5094,9.479-2.7125,17.3555-2.9799,28.3551-.2855.2673.0669.3835.31.2588.5339-.0495.0894-.0987.1785-.1475.2672-.1226.2221-.4334.345-.6916.2787Z"/><path class="cls-2" d="M48.4681,93.6359s0,0,0,0c.0645-3.1336-2.6616-5.881-6.4227-6.0974-2.1881-.0866-4.5517-.2011-7.2027-.3432-4.4811-.284-8.682,2.773-8.9342,6.8721t0,0c-.1949,4.073,3.5612,7.3244,8.1303,6.9238,2.6994-.2248,5.1441-.4058,7.4334-.543,3.9751-.2858,6.9897-3.6871,6.9959-6.8123ZM34.4471,98.8643c-3.4384.2644-6.2542-2.1052-6.1085-5.1h0c.1629-3.0048,3.25-5.2957,6.6435-5.1337,2.6723.1047,5.0424.1888,7.2293.2523,2.8009.1167,4.9069,2.1592,4.8504,4.5626t0,0c-.0332,2.3992-2.3227,4.7817-5.2303,4.9577-2.2551.1161-4.6798.2698-7.3844.4612Z"/><path class="cls-10" d="M84.9854,92.4823c.0092,1.002.0469,2.0051.1132,3.0172.15,2.5576-2.7017,4.4614-6.0264,4.1736-4.8308-.3843-8.8845-.6966-12.4524-.9369-2.4874-.1838-4.5776-2.1057-4.7181-4.0492-.0604-.7874-.0948-1.5547-.1031-2.3193-.0226-1.8867,1.8731-3.5526,4.3124-3.667,3.5094-.1315,7.5435-.3023,12.4166-.5125,3.3607-.1741,6.4292,1.7552,6.4578,4.2941Z"/><path class="cls-2" d="M60.2302,93.4948s0,0,0,0c.0956,3.2304,3.7198,6.7682,8.3327,7.2045,2.6794.2182,5.6127.4795,8.9004.7839,5.4931.5609,10.7039-2.7989,10.6367-7.4305,0,0,0,0,0,0-.1818-4.6562-5.8213-8.0296-11.3755-7.6084-3.3114.204-6.2289.3792-8.8639.5255-4.5114.3351-7.769,3.2925-7.6305,6.5251ZM76.5505,88.2733c4.249-.2305,8.3345,2.3167,8.4702,5.7138h0c.0973,3.3863-3.6964,5.9008-7.9115,5.5305-3.3412-.2634-6.2973-.4893-8.9782-.6774-3.4388-.2769-6.2011-2.8097-6.3003-5.3214,0,0,0,0,0,0-.113-2.5132,2.3873-4.6962,5.7695-4.8749,2.6468-.1029,5.5907-.2264,8.9503-.3706Z"/><path class="cls-21" d="M52.2612,92.5422c-.6013.8546-1.2006,1.7148-1.8247,2.6183.6961,1.6025,1.4141,3.3291,2.2437,5.3719.4094-2.237.7764-4.1023,1.1625-5.8456-.5432-.735-1.0652-1.4429-1.5815-2.1447Z"/><path class="cls-14" d="M52.5153,92.8869c-.5024.7165-1.0038,1.4399-1.5197,2.192.5892,1.3375,1.1992,2.761,1.8825,4.3828.3321-1.7745.6416-3.3176.9646-4.7754-.4543-.6146-.8937-1.2104-1.3273-1.7993Z"/><path class="cls-21" d="M56.4277,92.1468c-.0108.0025-1.5715,1.6724-1.5472,2.2303-.0751.3604,1.8576,6.0112,2.4402,6.7823.4445.2819,1.494-5.4778,1.5209-5.6512-.0901-.412-2.4598-3.3888-2.4139-3.3614Z"/><path class="cls-14" d="M56.0447,92.5699c-.0057.0003-1.1816,1.3602-1.1644,1.7964-.0214.3673,1.158,3.9049,1.6749,5.1367.5023,1.0941,1.3637-4.1342,1.3851-4.2653-.0551-.3103-1.9235-2.6871-1.8955-2.6678Z"/><path class="cls-1" d="M62.1262,77.7535c5.6138,7.9141,21.2141,7.2907,40.1926-2.4948.6221-.3622.7746-.9154.3987-1.232-.1708-.1466-.3387-.2927-.5049-.4395-.3664-.3177-1.1032-.3448-1.6863-.0617-17.6616,7.5549-29.3009,6.8756-32.4469-2.3284-1.6204-3.8958-3.1376-10.7783-5.0505-9.8418-.853.5725-1.6878,1.1383-2.5043,1.6958-1.8943,1.3576-1.3958,11.3206,1.6017,14.7024Z"/><path class="cls-1" d="M40.7133,82.0999c-7.2883,4.145-27.0944.1106-40.4433-12.7426-.4131-.4395-.3325-.9701.1084-1.1993.2019-.1064.4006-.2136.5965-.3216.4293-.2335,1.0816-.1355,1.5104.2323,13.6407,10.545,28.7481,12.7658,33.8878,7.252,2.6396-2.2559,5.3505-6.3217,6.879-4.8881.6603.7387,1.2967,1.4534,1.9101,2.1437,1.3732,1.6567-.5922,7.9814-4.4489,9.5235Z"/><path class="cls-1" d="M62.8093,121.0569c-6.233-12.3483-9.206-12.5979-13.7419-.0361-.6513,2.0467-1.5514,2.4007-1.8967.3179-.0937-.5867-.1849-1.16-.2735-1.7203-.3269-1.999.1647-5.7151.9442-7.6862,5.2306-11.7339,8.088-11.5307,15.0769.2349,1.0523,1.9672,1.9935,5.5964,1.9021,7.5367-.022.5447-.045,1.102-.0686,1.6727-.0973,2.0243-1.0335,1.6879-1.9426-.3197Z"/><path class="cls-1" d="M40.3503,96.8958c-1.7718-1.8265-3.7621-3.5448-6.2026-5.46-.3394-.2661-.3546-.7029-.0332-.9622.1282-.1035.2552-.2068.3809-.3097.3151-.2581.8474-.2425,1.1823.0258,2.4119,1.9298,4.3847,3.6296,6.1487,5.3916.2456.2446.2038.6649-.0984.9386-.1206.1091-.2424.219-.3653.3299-.3076.2781-.7657.3013-1.0126.0461Z"/><path class="cls-1" d="M41.9983,91.4841c-1.8855,1.7222-4.0534,3.5325-6.6868,5.6745-.3656.2981-.9033.3323-1.1923.0682-.1153-.1051-.2317-.2101-.3493-.315-.2947-.263-.2319-.7213.1376-1.0108,2.6577-2.0874,4.8439-3.8727,6.74-5.612.2646-.2427.7121-.2322.9931.0174.1123.0997.2236.1987.334.2973.2764.2468.2864.6406.0237.8804Z"/><path class="cls-1" d="M74.1461,96.3737c-1.8939-1.3956-3.5986-2.6685-5.1295-3.8661-.2729-.2137-.2744-.5578-.0031-.7705.0261-.0205.0523-.041.0785-.0615.2723-.2131.7207-.2176.9966-.004,1.545,1.1971,3.2674,2.4613,5.1824,3.8428.3419.246.3843.6329.0952.8532-.0278.0212-.0555.0423-.0832.0635-.2882.2203-.7995.1915-1.1368-.0575Z"/><path class="cls-1" d="M75.0965,92.5467c-1.7651,1.2684-3.3305,2.4584-4.7311,3.6397-.2501.2112-.7009.187-1.0005-.0481-.0289-.0225-.0577-.0452-.0864-.0677-.2987-.2345-.34-.5915-.0925-.7992,1.3879-1.1642,2.9357-2.347,4.6781-3.6151.3103-.2259.8224-.2315,1.138-.0047.0303.0218.0607.0437.0912.0655.3168.2269.3183.6035.0032.8297Z"/></g></g></svg>