<?xml version="1.0" encoding="UTF-8"?><svg id="Layer_2" xmlns="http://www.w3.org/2000/svg" viewBox="0 0 89.2776 102.8556"><defs><style>.cls-1{fill:#473019;}.cls-1,.cls-2,.cls-3,.cls-4,.cls-5,.cls-6,.cls-7,.cls-8,.cls-9,.cls-10,.cls-11,.cls-12{stroke-width:0px;}.cls-2{fill:#2e2e2e;}.cls-3{fill:#e9a94a;}.cls-4{fill:#6e8f3c;}.cls-5{fill:#fff;opacity:.5;}.cls-6{fill:#f15a29;}.cls-7{fill:#f1bf8c;}.cls-8{fill:#f6b864;}.cls-9{fill:#593a18;}.cls-10{fill:#8cac4a;}.cls-11{fill:#aac843;}.cls-12{fill:#bb772b;}</style></defs><g id="Layer_1-2"><g id="Head"><path class="cls-10" d="M35.1242,11.1588c3.8885-5.051,6.4823,5.7705,7.8361,13.3292-.8256-1.038-3.7211,1.1565-3.8409,3.0654-.2931,3.4353-.5861,7.0573-.8842,10.725-.2019,2.5868,2.8047,2.6546,4.0539,2.7156,4.2142.2719,8.3295.162,12.7268.1675,1.2932.2594,4.1944-.7266,4.0637-2.7805-.2406-1.7027-.4634-3.1033-.6717-4.5037-.0779-.5043-2.6606,2.2517-3.5881,1.9656-.5414-2.7688-1.6299-6.2408-3.3754-13.6498-1.7456-6.8154-4.1482-17.568-7.3179-21.1889-1.3754-1.4427-3.38-.9597-4.2382-.7822-1.7887.5981-3.4926,1.9492-5.1581,7.8684-.802,3.0647-.5716,4.5348.3941,3.0685Z"/><path class="cls-4" d="M42.9608,24.4894c0-.0754,1.8704,2.2382,3.2108,4.2598.6548.9347,1.1136.6418.931-.8805-.9587-7.2549-3.1418-19.8465-7.4714-24.3727-.8363-.6043-1.6277-1.2688-3.4661.5615-.4147.7814-1.0729,2.7164-1.4348,4.0336-.9785,3.708-.3996,4.2744.3927,3.0717,3.3115-4.6813,6.0902,4.0043,7.4399,11.1557.2535,1.3232.3971,2.1699.3979,2.1709Z"/><path class="cls-11" d="M46.63,29.226c-.0021,0,1.6078,2.1217,2.2155,3.0904.2785.4446.221.0385-.0122-1.6599-1.3465-8.3224-3.9002-23.9125-8.6018-28.2636-.9215-.8543-2.5539-.7715-2.5554-.7351-.4924.5632-.9951,1.3261-1.5066,2.3895-.011-.0522,2.3435-2.0232,4.171.2505,2.6505,2.2287,5.8666,15.7177,6.3415,22.8036.1025,1.3328-.0529,2.119-.052,2.1245Z"/><path class="cls-8" d="M2.8468,60.9981c-.094.1837,2.8086,6.7447,5.4871,14.5758,2.7969,7.8392,5.3697,16.9485,7.3481,22.4167.188.4341,2.0144,2.2402,2.968,2.2365.6104-.0135,1.2206-.0269,1.8293-.0395.9544-.0179,1.8203-.4064,2.0747-.9306.5447-1.1137,1.0843-2.2162,1.6168-3.3051.4337,1.6311.8661,3.1171,1.3064,4.3404.1813.49,2.0006,2.5474,2.9638,2.5632h1.8282c.9587.0003,1.8181-.4038,2.0532-.97.1423-.3349.2845-.6684.4253-1.0003,1.1064.8908,2.2431,1.7093,2.5597,1.7092,1.0844-.7236,2.1566-1.4446,3.2152-2.1581.0059.1639.0119.3283.0173.493.1105.5386,3.5972,1.6592,4.2762,1.6618,2.031-.2443,4.0535-.4875,6.0671-.7256.6992-.0425,5.6657-3.9072,5.7415-4.372.0601-.8941.1205-1.7714.18-2.6338.4431,1.3678.8975,2.7688,1.3618,4.2029.2301.5431,1.0657.9409,1.9985.9509.5958.0072,1.1914.0143,1.7877.0224.9399-.0064,5.0867-1.606,5.228-2.0853.2274-.9895.4561-1.9556.6858-2.9011.1998.7377.4021,1.4837.6059,2.237.2296.5256,1.0606,1.5536,1.9031,1.4623.2903-.3022,10.6878-6.0502,11.2909-5.8822.1755-.0347.8308-.129,1.0853-.7374,1.5854-14.0775,4.6894-26.1015,8.2991-39.7459.3015-.4867.3029-.991,0-1.4752-9.2492-7.3614-16.3659-13.1677-22.2291-19.4227-.1299-.3235-.7441-.4988-1.4604-.4283-.457.0449-.9098.0883-1.3587.1308-.703.0665-1.3204.3604-1.4846.7062-.3107.7403-.6161,1.4712-.9176,2.1926-.6553-.9499-1.2995-1.9118-1.9364-2.8923-.1806-.4189-.9815-1.1895-1.9704-1.024-.4589.0785-1.5042.3192-1.9626.4727-.1947.0625-.9048.2609-1.2413.8999-1.1308.8893-2.234,1.7518-3.3148,2.5903-.5962-.7888-1.1932-1.5919-1.7947-2.4114-.1262-.4108-.6675-1.2053-1.3248-1.099-.3039.0509-1.002.2266-1.309.351-.1283.0513-.6086.2069-.822.8093-.1924.4026-.3836.8007-.5738,1.196-.1709-.2619-.342-.5255-.5142-.7909-.1296-.406-2.3991-1.6287-3.0595-1.555-.3004.0386-.9943.1903-1.301.3024-.1268.0471-.6038.1856-.8012.78-.3316.5361-.6618,1.0656-.9914,1.5894-.4094-.2132-.8284-.4236-1.2614-.6314-2.5201-1.2027-3.6843-3.6209-4.6766-3.6964-1.9722-.1293-3.4035,1.7881-3.8552,1.9211-.7676.2382-1.7436.5267-2.7002.8245-.3742-.5156-.7528-1.0361-1.1353-1.5619-.2554-.464-1.2286-1.4154-2.3223-1.4321-.5008-.0069-1.6731.0421-2.1987.1099-.2189.0303-1.039.096-1.3692.7032-4.9067,5.2525-10.7229,10.1663-17.9887,15.962-3.2977,4.3488,1.3561,15.0998,1.6712,15.4938Z"/><path class="cls-3" d="M70.3394,50.8479c.0667.4224.1585.8558.2681,1.2737,2.5928,13.2914.6503,26.6222-4.4645,41.7375-.1234.4407-.2811,1.2327-.2823,1.2345.0419-.0101,2.9583-5.0908,2.9971-5.1754.034-.0379.1475-.1494.3544-.7362-.0369-.0489,2.2687-7.1422,3.5777-14.8597,1.4998-7.7571,1.4839-16.5173,1.6786-20.764.0545-.4554.0017-2.9089-.1447-3.3573-3.763-6.4002-8.0126-11.4737-12.3639-15.8001-.1518-.2554-.3645-.2369-.3657-.2356-.0007-.0008.1589.3021.1746.3715.0842.3723.1767.6791.2931.9514,3.2082,4.5754,6.0618,9.6161,8.2776,15.3597Z"/><path class="cls-3" d="M20.201,51.4099c.093-.4359.1702-.8939.2309-1.3329,1.3204-5.8132,3.2107-11.299,5.5633-16.7846.1187-.3676.3291-1.0875.2271-1.0451-.0479.0191-.1804.1241-.2537.211-.0299.0356-.1324.1373-.3581.6501-1.8039,2.963-3.496,5.9833-5.0669,9.1629-1.4805,3.3573-3.0353,6.2078-3.0923,6.6812-.7369,5.3808-.7862,14.4069.6685,22.9391,1.2826,8.4903,3.8776,17.2265,5.1392,21.7133.1082.3865.6426,1.91.7108,1.8764.0415-.0232.0836-.0468.1262-.0699.0664-.0363.0483-.3711-.043-.8008-4.3345-16.647-5.7811-29.6839-3.852-43.2005Z"/><path class="cls-3" d="M30.1204,54.9708c-.2175-.6982,4.8954-14.7497,5.3525-14.9717.0017-.0095,1.3969-1.9363,2.114-3.9965.3059-.9135,1.115-2.6795,1.0969-2.6987-.053-.0325-.8146,1.4705-.8835,1.602-.3378.6073-.8796,1.6222-1.0901,2.1099-1.8084,2.4824-3.498,5.0275-5.1079,7.7228-1.2197,3.2241-2.9745,11.7896-2.9486,12.3105.0625.0109-.7225,6.9208-.0836,15.6811.4185,8.5795,2.4706,20.2797,3.6108,25.8359.0831.4708.4804,2.3793.5111,2.3716.0173-.0077.0351-.0161.0519-.0243.0261-.0136-.0162-.3922-.1013-.9049-4.0215-19.2366-4.2418-32.5143-2.5223-45.0377Z"/><path class="cls-3" d="M56.2512,52.9879c.0113-.4477-1.1767-6.9596-1.2399-7.3888.0119-.0036-2.3949-6.9665-3.3276-10.4249-.1503-.5736-.5092-1.0718-.5094-1.0708,0,.0008-.096.3379-.0904.4514.0092.1682.0234.3719.1021.7092,1.2434,5.1083,2.2772,16.5371,2.235,16.5417.0053.4207.0266.8561.0638,1.2762.7393,10.4693,1.1685,21.237.8341,36.8873-.0023.4266.3873,4.8384.4584,4.8928.0009-.0008.865-1.0374.921-1.409.0253-.1454.55-5.2819.5643-5.6784.5065-14.3193.3652-24.6257-.0114-34.7867Z"/><path class="cls-3" d="M40.7996,52.8978c-.0022-.4192,2.2888-8.0691,2.4769-8.4458.4235-3.1588.9969-6.4086,1.7667-9.8751.1163-.3561.3709-1.4387.3083-1.3773-.0281.0288-.1187.1539-.172.2496-.0235.0395-.0947.1579-.2918.6673-.0731.0601-2.562,7.0413-3.4639,10.2789-.1447.3735-2.2709,4.7638-2.318,5.1802-.8896,4.3823-2.1979,13.767-2.2348,24.3802-.2724,10.3138,1.2364,23.2561,1.199,23.2945.0454.4955.3668,3.2501.411,3.254.0829-.6379.1675-1.266.2539-1.8854.0126-.0765-.3791-5.8276-.3805-6.2357-.8817-17.614.2539-28.907,2.4452-39.4855Z"/><path class="cls-7" d="M69.0565,51.5751c.0767.4181.1615.8546.2543,1.2756,2.8007,12.7448,1.445,25.9183-3.2351,41.1794-.1372.4457-.3044,1.2582-.307,1.259.049-.0261,2.5363-5.5432,2.5468-5.6281.0221-.0467.0133-.139.2064-.7471.1201.046,1.8649-7.1106,2.5984-14.5942.8944-7.5279.7492-15.8275.2028-19.8323.0021-.4377-.2278-2.7682-.3475-3.2005-2.3902-6.3754-5.5529-11.8976-9.1233-16.8911-.1469-.2685-.2774-.2999-.2772-.3012-.0005,0,.0747.3649.0976.4304.1309.3556.3085.7059.4374.9827,2.883,4.9347,5.2838,10.2364,6.9465,16.0673Z"/><path class="cls-7" d="M17.6186,51.4526c.0856-.4588.1688-.933.2408-1.3924,2.1002-6.0849,4.7357-11.5781,7.7185-16.9048.1294-.3657.6515-.9146.651-.9138-.1441.0652-.2869.1311-.4302.1976.0002.0005-.1103.1806-.4218.6203-2.2665,2.8629-4.4659,5.8441-6.5987,9.0856-1.2812,3.529-2.3846,6.5129-2.4568,6.99-.9587,5.4584-.5993,14.6438,1.2194,23.0754,1.649,8.4236,4.5541,16.9057,5.7185,21.426.1002.3917.565,1.9474.6034,1.9326.0209-.0134.0445-.024.0656-.0363.0328-.0195-.0104-.3386-.1088-.7652-4.9506-16.2182-7.3905-29.1696-6.201-43.3149Z"/><path class="cls-7" d="M31.0025,46.6945c.0725-.4821,3.5022-6.5975,3.7064-6.9474.0053-.0128,1.9952-1.7401,2.7512-3.7717.3257-.9033,1.1345-2.6715,1.1235-2.6837-.0386-.0254-.7841,1.4889-.8473,1.6218-.3184.6136-.9631,1.3609-1.1707,1.8506-1.8906,2.4455-3.6692,4.968-5.3757,7.6448-1.2201,3.2507-3.0349,11.858-3.0149,12.3837.0615.0123-.6296,7.0461.1261,15.8608.5302,8.6455,2.7153,20.3637,3.8344,25.9226.0791.4729.4608,2.3853.4833,2.3814.0123-.0057.025-.0108.0364-.0168.019-.0086-.0314-.3843-.1171-.8975-5.0449-23.3168-4.7124-38.3113-1.5356-53.3485Z"/><path class="cls-7" d="M53.7118,53.4094c.0042-.4281-.637-6.8421-.6903-7.2719.0171.0162-1.0444-7.0147-1.6165-10.5449-.0888-.5819-.3371-1.0964-.3355-1.0967.0014.0002-.012.3209,0,.4324.015.1676.0338.3676.0827.7095.815,5.1651,1.6423,16.5261,1.596,16.5325.0162.4167.0382.8516.0635,1.2694.9444,10.3013,1.5687,21.0056,1.4907,36.5557-.0102.4221.4638,4.9779.4842,5.025.0009-.003.0504-1.3356.08-1.7088.0178-.1487.1353-5.3505.1441-5.7447.0533-14.2008-.4825-24.3516-1.2988-34.1576Z"/><path class="cls-7" d="M41.358,53.1011c-.0157-.4122,1.9203-8.1281,2.1166-8.5116.3501-3.1928.8546-6.4831,1.56-10.0038.121-.3522.3657-1.4382.3254-1.3662-.0185.034-.0516.179-.0954.2798-.0194.041-.0166.1869-.2066.7019-.0738.0888-1.5115,7.481-2.3196,10.6592-.1391.3808-1.5819,4.8657-1.6298,5.2608-.9362,4.2568-2.5493,13.1525-2.9653,23.3127-.6287,9.8549.3387,22.2215.3022,22.2481.0435.4894.3156,2.9584.3346,2.9671-.002-.5216-.0084-1.038-.0079-1.5468-.0128-.0683-.4732-5.7158-.4769-6.1174-.5487-16.82.7434-27.7387,3.0627-37.8838Z"/><path class="cls-7" d="M38.5786,51.8962c.009-.4352,2.9594-7.8563,3.1396-8.2148.8737-2.9479,1.8821-5.9362,3.0677-9.062.12-.3445.4407-1.3672.4015-1.2972-.0185.0324-.083.1646-.1246.2616-.0168.0407-.0718.1609-.2568.6604-.0637.0375-2.9982,6.478-3.8287,9.6941-.1291.3627-2.6585,4.4202-2.7192,4.8333-.9899,4.3032-2.1712,13.8084-2.0262,24.36-.1017,10.2783,1.6761,23.0539,1.6388,23.0944.0339.4675.4473,3.8534.4707,3.8705-.0577-.8399-.1102-1.6666-.1572-2.479-.0103-.0659-.4205-5.601-.4223-5.9977-1.5256-17.3635-.8867-28.7492.8169-39.7235Z"/></g><g id="Frustrated_Face"><path class="cls-2" d="M61.3761,67.6667c-11.2325-3.9006-23.4531-3.9006-34.6856,0-.3109.1078-.6532-.0467-.7625-.3477-.02-.0555-.04-.111-.06-.1666-.109-.301.0627-.6416.3824-.7526,11.5175-3.9996,24.0481-3.9996,35.5656,0,.32.111.4914.4515.3824.7526-.02.0555-.04.111-.06.1666-.1091.3012-.4516.4555-.7625.3477Z"/><rect class="cls-5" x="18.1564" y="64.0176" width="12.4946" height="20.5773" rx="6.2473" ry="6.2473" transform="translate(98.71 49.9026) rotate(90)"/><path class="cls-2" d="M36.6581,74.5886h0c0-4.5413-3.7157-8.2569-8.2569-8.2569h-7.9949c-4.5414,0-8.257,3.7156-8.257,8.2569h0c0,4.5414,3.7156,8.257,8.257,8.257h7.9949c4.5413,0,8.2569-3.7156,8.2569-8.257ZM20.3623,80.5536c-3.436,0-6.2473-2.8113-6.2473-6.2473h0c0-3.4361,2.8113-6.2473,6.2473-6.2473h8.0827c3.436,0,6.2473,2.8113,6.2473,6.2473h0c0,3.436-2.8113,6.2473-6.2473,6.2473h-8.0827Z"/><rect class="cls-5" x="58.9181" y="64.0176" width="12.4946" height="20.5773" rx="5.4231" ry="5.4231" transform="translate(-9.1409 139.4717) rotate(-90)"/><path class="cls-2" d="M52.911,74.3063h0c0,4.5414,3.7157,8.257,8.2569,8.257h7.9949c4.5414,0,8.257-3.7156,8.257-8.2569h0c0-4.5414-3.7156-8.257-8.257-8.257h-7.9949c-4.5413,0-8.2569,3.7156-8.2569,8.2569ZM69.2068,68.059c3.436,0,6.2473,2.8113,6.2473,6.2473h0c0,3.4361-2.8113,6.2473-6.2473,6.2473h-8.0827c-3.436,0-6.2473-2.8113-6.2473-6.2473h0c0-3.4361,2.8113-6.2473,6.2473-6.2473h8.0827Z"/><polygon class="cls-12" points="42.0652 73.0406 39.4698 76.7214 42.4899 83.2808 44.2832 76.0607 42.0652 73.0406"/><polygon class="cls-9" points="42.4284 73.5343 40.2579 76.6124 42.7835 82.0978 44.2832 76.0599 42.4284 73.5343"/><path class="cls-12" d="M47.943,72.4692s-2.1971,2.3824-2.1971,3.1501,2.0648,7.7033,2.5678,8.2062,2.6736-6.3003,2.6736-6.7767-3.0442-4.5796-3.0442-4.5796Z"/><path class="cls-9" d="M47.4127,73.0694s-1.6668,1.9356-1.6668,2.5351,1.3536,5.1981,1.8184,6.4499c.5045,1.359,2.2751-4.9614,2.2751-5.3336s-2.4266-3.6515-2.4266-3.6515Z"/><path class="cls-1" d="M77.3641,56.9007l-23.2615,7.0703c-.2779.0845-.6122-.1376-.7562-.4893l-.1984-.4847c-.144-.3518-.0614-.7445.196-.8791l21.5424-11.2701c3.1048-1.6243,6.6325-2.0332,7.2245-.5869l.8156,1.9925c.592,1.4462-2.2098,3.6283-5.5624,4.6474Z"/><path class="cls-1" d="M11.3297,50.5476l22.1761,9.9654c.265.1191.3709.5061.2481.8659l-.1691.4956c-.1228.3597-.4432.6013-.7257.5336l-23.6418-5.6705c-3.4074-.8173-6.3344-2.8284-5.8297-4.3074l.6954-2.0376c.5047-1.479,4.0505-1.2812,7.2467.1551Z"/><path class="cls-1" d="M51.763,91.2614c-3.549,2.7242-8.5171,2.7241-12.0661,0-.5655-.5114-.9834-1.4603-.9837-1.9969v-.3445c.0003-.537.4183-1.485.9837-1.9969,3.549-2.7242,8.5171-2.7241,12.0661,0,.5655.5117.9834,1.46.9837,1.9969v.3445c-.0003.5372-.4183,1.4854-.9837,1.9969Z"/></g><path id="Mom_vein" class="cls-6" d="M70.0153,44.9579c-4.7092,3.89-5.5139,5.8101-4.9853,11.8953-3.89-4.7092-5.8101-5.5139-11.8953-4.9853,4.7092-3.89,5.5139-5.8101,4.9853-11.8953,3.89,4.7092,5.8101,5.5139,11.8953,4.9853Z"/><path class="cls-1" d="M27.4927,73.2158l-5.3793-1.6818c-.7918-.2475-1.5993.335-1.6142,1.1645l-.0566,3.1705c-.0148.8295.7714,1.4405,1.5716,1.2214l5.4359-1.4887c1.1975-.3279,1.2276-2.0154.0426-2.3859Z"/><path class="cls-1" d="M60.8876,75.4397l5.3793,1.6818c.7918.2475,1.5993-.335,1.6142-1.1645l.0566-3.1705c.0148-.8295-.7714-1.4405-1.5716-1.2214l-5.4359,1.4887c-1.1975.3279-1.2276,2.0154-.0426,2.3859Z"/></g></svg>