<?xml version="1.0" encoding="UTF-8"?><svg id="Layer_2" xmlns="http://www.w3.org/2000/svg" viewBox="0 0 99.8231 106.9778"><defs><style>.cls-1{fill:#908833;}.cls-1,.cls-2,.cls-3,.cls-4,.cls-5,.cls-6,.cls-7,.cls-8,.cls-9,.cls-10,.cls-11,.cls-12{stroke-width:0px;}.cls-2{fill:#e9a94a;}.cls-3{fill:#6e8f3c;}.cls-4{fill:#ea723c;}.cls-5{fill:#f1bf8c;}.cls-6{fill:#f58257;}.cls-7{fill:#f6b864;}.cls-8{fill:#8cac4a;}.cls-9{fill:#a99f3c;}.cls-10{fill:#aac843;}.cls-11{fill:#cab736;}.cls-12{fill:#f29881;}</style></defs><g id="Layer_1-2"><path class="cls-8" d="M34.1934,6.9165l.0265-.0858-.0265.0858Z"/><path class="cls-8" d="M33.7605,11.4337l-.0676.0118.0676-.0118Z"/><path class="cls-8" d="M34.4698,6.0696l.0707-.2074-.0707.2074Z"/><path class="cls-8" d="M35.338,3.8933c.4811-.9895.954-1.71,1.4178-2.246-.4774.5328-.9496,1.2561-1.4178,2.246Z"/><path class="cls-8" d="M34.1308,11.1124l-.0873.1013.0873-.1013Z"/><path class="cls-8" d="M34.0039,11.2583l-.2308.1705c.0677-.0251.1443-.0803.2308-.1705Z"/><polygon class="cls-8" points="33.9155 7.856 33.9032 7.8976 33.862 8.063 33.9034 7.8984 33.9155 7.856"/><path class="cls-8" d="M37.7628,32.5109l-.0005.0013h.0001c.3218-.5114.6441-1.0282.9678-1.5516.1927-.5803.6583-.7155.7821-.7614.2994-.1095.9768-.2576,1.27-.2953.6447-.072,2.8601,1.1216,2.9866,1.5179.1682.2592.3352.5165.502.7721.1856-.3859.3723-.7745.5601-1.1676.2083-.5879.6771-.7399.8024-.7899.2147-.087.6229-.1984.9476-.2737-.5496-.755-1.0625-1.4327-1.0613-1.4327l.0003-.002c-.1319-.0759-.2831-.2281-.4478-.4634-1.3084-1.9734-3.1343-4.2321-3.1343-4.1584-.0009-.001-.141-.8275-.3884-2.1191-.3781-2.0029-.8714-4.1279-1.4584-6.0339.7664,2.5702,1.3815,5.557,1.8463,8.1517-.8059-1.0133-3.6325,1.1289-3.7495,2.9923-.1551,1.8179-.3102,3.6918-.466,5.5947l.0399.02.001-.0011Z"/><path class="cls-8" d="M39.38,4.1956c-.1177-.1464-.2377-.2726-.359-.3846,1.14,1.3402,2.1244,3.2417,2.9654,5.4583-.8525-2.4653-1.7589-4.3611-2.6064-5.0736Z"/><path class="cls-8" d="M34.3109,10.8657c.8091-1.0389,1.5604-1.3732,2.2549-1.1854-.7122-.2368-1.468.088-2.2549,1.1854Z"/><polygon class="cls-8" points="35.3153 3.9425 35.3089 3.9563 35.4483 3.8245 35.3153 3.9425"/><path class="cls-8" d="M39.2736,2.3359c4.5896,4.2476,7.0825,19.4664,8.397,27.5907.0139.1014.0251.1838.0377.276.2496.2363.4309.5514.4962.7639.585.7974,1.1658,1.5782,1.7457,2.3457l.0057-.0209.0132.0194c.8655-.6716,1.7561-1.3693,2.6537-2.0737-.5844-2.2577-1.3767-5.215-2.4033-9.5725-1.7041-6.6532-4.0495-17.1498-7.1437-20.6844-1.3427-1.4082-3.2996-.9368-4.1373-.7635-.7318.2448-1.4487.624-2.1547,1.4009.0276-.0359,1.5978-.1084,2.4899.7185Z"/><path class="cls-3" d="M41.9379,23.9063c0-.0736,1.8259,2.1851,3.1343,4.1584.1647.2352.3159.3875.4478.4634.0012-.0154.1498-.7795.0504-2.0719-.3117-4.6516-1.8339-12.1257-3.5841-17.187-.841-2.2166-1.8254-4.118-2.9654-5.4583-1.4489-1.3384-3.0963-.3569-3.5728.0135l-.1394.1318-.0048.0045c-.2142.4036-.4943,1.1235-.7635,1.9014l-.0707.2074c-.0859.2534-.1705.5088-.2499.7611l-.0265.0858c-.1029.3297-.1975.6489-.2779.9395l-.0121.0425-.0414.1646c-.6255,2.4291-.5397,3.4113-.1692,3.3826l.0676-.0118.0126-.0049.2308-.1705.0396-.0446.0873-.1013.1559-.2155.0242-.0312c.7869-1.0974,1.5427-1.4222,2.2549-1.1854,1.3652.4539,2.5699,2.9707,3.5253,6.0729.587,1.906,1.0803,4.031,1.4584,6.0339.2474,1.2916.3876,2.1182.3884,2.1191Z"/><path class="cls-10" d="M35.4483,3.8245c.4765-.3705,2.1239-1.3519,3.5728-.0135.1213.1121.2413.2383.359.3846.8475.7125,1.7538,2.6083,2.6064,5.0736,1.7502,5.0613,3.2724,12.5354,3.5841,17.187.0994,1.2924-.0493,2.0565-.0504,2.0719l-.0003.002c-.0012,0,.5118.6777,1.0613,1.4327.1284-.0297.246-.0549.3301-.069.3015-.0487.5758.0994.7971.3088-.0126-.0922-.0238-.1746-.0377-.276-1.3145-8.1243-3.8074-23.3431-8.397-27.5907-.8921-.8269-2.4622-.7544-2.4899-.7185l-.0047.001-.0233.0289c-.4637.536-.9367,1.2565-1.4178,2.246l-.0297.0576.0069-.0084.133-.118Z"/><path class="cls-7" d="M33.4514,39.5654c.2355-.3533.4859-.6942.7254-1.0437-.1772.173-.2931.276-.2943.2791-.0389.0667-.2.3518-.4311.7646Z"/><path class="cls-7" d="M53.1923,30.792c-.1943.1528-.3769.2939-.5695.4451-.8976.7045-1.7882,1.4021-2.6537,2.0737.0365.0507.3458.4983.4841,1.0259.3237,1.2004.8297,2.8329,1.3464,4.4391,1.4453-2.9562,2.5529-6.0095,3.3865-9.0763-.3032.0745-.595.1515-.7819.214-.1901.0612-.8832.2548-1.2118.8785Z"/><path class="cls-7" d="M30.1268,89.301l.0413.2444-.0413-.2444Z"/><polygon class="cls-7" points="40.4375 43.3383 40.4479 43.3022 40.3714 43.4901 40.4375 43.3383"/><path class="cls-7" d="M29.494,85.3997c.0337.2241.0699.4519.1048.6776-.0352-.2242-.0699-.4512-.1048-.6776Z"/><path class="cls-7" d="M37.3836,88.8185c.0036.3921.453,5.905.4655,5.9717-.0005.4967.0058,1.0007.0077,1.51-.0056-.0026-.0344-.2323-.0716-.5492.0188.3091.0297.5065.0275.5199-.0823.5905-.1629,1.1896-.2421,1.7975l.0349-.0234c.0057.16.0117.3206.0169.4813.1079.5258,3.5115,1.6196,4.1744,1.6222,1.9826-.2384,3.957-.476,5.9227-.7083.5875-.0358,4.2548-2.8317,5.3135-3.8999-5.7415-4.6646-11.4282-9.6152-15.7667-14.5059-.0075,2.4526.0276,5.031.1174,7.7841Z"/><path class="cls-7" d="M37.6601,50.6605c-.2582,1.663-.4878,3.3394-.6918,5.0421l.0734-.0477c.2747-2.241.5699-4.1837.8461-5.7372-.1381.3939-.2263.6711-.2277.7428Z"/><path class="cls-7" d="M31.8706,98.3887l.0071.1484-.0356.0164c-.0219.0039-.3945-1.863-.4717-2.3246-1.0925-5.4265-3.2255-16.8658-3.7431-25.3054-.7377-8.6047-.0631-15.4712-.1231-15.4832-.0195-.5132,1.7521-8.9155,2.9431-12.0889,1.666-2.613,3.4022-5.0753,5.2478-7.4626.2026-.4781.832-1.2076,1.1428-1.8066.0618-.1298.7895-1.6079.8271-1.5831.0041.0045-.1083.2587-.266.6188.1767-.3302.3382-.6166.3628-.6058l-.0399-.02c-.3871-.2012-.7821-.3999-1.1909-.5961-2.4601-1.1741-3.5966-3.5347-4.5653-3.6083-1.9253-.1262-3.3224,1.7455-3.7634,1.8754-.7493.2324-1.702.5142-2.6359.8049-.3654-.5034-.7349-1.0115-1.1083-1.5248-.2493-.4529-1.1994-1.3817-2.267-1.3979-.4889-.0068-1.6333.041-2.1464.1073-.2136.0295-1.0143.0936-1.3366.6864-4.7899,5.1274-10.4676,9.9242-17.5604,15.5819-3.2192,4.2452,1.3239,14.7404,1.6314,15.125-.0917.1793,2.7417,6.5841,5.3564,14.2288,2.7303,7.6526,5.2419,16.5449,7.1732,21.8829.1835.4237,1.9664,2.1869,2.8973,2.1832.5959-.0132,1.1916-.0262,1.7858-.0386.9316-.0175,1.777-.3967,2.0253-.9084.5317-1.0872,1.0585-2.1633,1.5783-3.2264.4233,1.5923.8455,3.043,1.2753,4.2372.1769.4783,1.9529,2.4867,2.8932,2.5022h1.7847c.9359.0002,1.7748-.3943,2.0043-.9469.1343-.3163.2686-.631.4016-.9445l-.0408.019-.0431-.1456ZM25.3762,32.4996c-2.2966,5.355-4.1418,10.7102-5.4308,16.385-.0593.4286-.1346.8757-.2254,1.3011-1.8832,13.1948-.4711,25.9213,3.7603,42.172.0892.4194.1068.7463.042.7817l-.1232.0682-.0321-.0387-.0082.089-.064.0354c-.0375.0145-.4911-1.5042-.589-1.8866-.0413-.16-.0893-.3361-.1349-.5061-.2168-.7665-.4641-1.635-.735-2.5983-1.3596-4.6412-3.4263-11.2415-4.7125-17.8114-1.7754-8.2308-2.1262-17.1975-1.1903-22.526.0704-.4658,1.1475-3.3787,2.3983-6.8236,2.082-3.1644,4.2291-6.0746,6.4416-8.8693.304-.4292.4119-.6051.4117-.6056.1398-.0648.2794-.1292.42-.1929l-.0058.0063c.0965-.0343-.1072.6624-.2225,1.0195Z"/><polygon class="cls-7" points="24.9284 32.4414 25.0007 32.3201 25.0637 32.1859 24.969 32.3658 24.9284 32.4414"/><path class="cls-7" d="M49.9342,34.7893c-.0477-.3337-.066-.5291-.0807-.6926-.0117-.1088.0013-.4219,0-.4221l.0162.0369c.0026-.1108.0664-.348.0805-.3992-.5799-.7675-1.1606-1.5483-1.7457-2.3457-.0653-.2125-.2466-.5276-.4962-.7639-.2213-.2095-.4956-.3575-.7971-.3088-.0841.014-.2017.0393-.3301.069-.3248.0753-.7329.1866-.9476.2737-.1253.05-.5941.202-.8024.7899-.1878.3931-.3745.7817-.5601,1.1676-.1668-.2556-.3339-.5129-.502-.7721-.1265-.3964-2.342-1.59-2.9866-1.5179-.2932.0377-.9706.1858-1.27.2953-.1238.0459-.5894.181-.7821.7614-.3237.5234-.646,1.0403-.9678,1.5516h-.0001c.0142.0256-.7723,1.7433-1.0703,2.6332-.7,2.0111-2.062,3.8921-2.0637,3.9012-.4462.2168-5.4374,13.9337-5.2251,14.6152-1.6785,12.2253-1.4634,25.1868,2.4623,43.9655.0762.4594.1147.7948.1012.8593l.0014-.0033c1.0801.8695,2.1897,1.6686,2.4987,1.6685,1.0411-.6947,2.0701-1.3867,3.0867-2.072-.0329-.1414-.1113-.7395-.1896-1.3827.0219.3396.0408.6718.0645,1.016-.0228-.0166-.4264-3.3219-.4595-3.7783.0275-.0297-.9495-7.1083-1.3916-14.8871-6.9316-8.5488-9.1434-16.7606.4561-22.7379l.0007-.0004c.3804-3.7159.866-6.7555,1.3131-8.6991.0592-.4032,2.5284-4.3641,2.6544-4.7181.8108-3.1395,3.6754-9.4268,3.7376-9.4634.1805-.4875.2343-.6049.2506-.6447.0406-.0946.1036-.2238.1217-.2554.0125-.0222-.0143.0742-.0573.2181l.0496-.0941c.052-.0934.1405-.2156.1679-.2437l.0076.0216.0007-.0022.0007.0062.0002.0013-.0136.1019c-.0475.2831-.2105.9521-.2966,1.2156-.023.1038-.0421.2031-.0648.3064-.6572,3.3235-1.1347,6.4426-1.4664,9.4679-.1916.3743-2.0815,7.9065-2.0662,8.3088-.1277.5586-.2512,1.1206-.3723,1.6848,4.6368-3.6604,8.1038-7.9718,10.673-12.5865-.2289-2.2937-.4849-4.5303-.7397-6.1456Z"/><path class="cls-2" d="M25.0637,32.1859l-.063.1342-.0723.1213c-2.8945,5.1765-5.4537,10.5153-7.4941,16.4268-.0703.4485-.1516.9115-.235,1.3593-1.1613,13.8086,1.2206,26.4515,6.0533,42.2836.0685.2974.1081.536.1144.6581l.0321.0387.1232-.0682c.0648-.0354.0472-.3623-.042-.7817-4.2313-16.2507-5.6434-28.9772-3.7603-42.172.0908-.4254.1661-.8726.2254-1.3011,1.2889-5.6748,3.1342-11.03,5.4308-16.385.1154-.3572.319-1.0538.2225-1.0195-.0143.0149-.35.3788-.535.7058Z"/><path class="cls-2" d="M22.5708,90.9008c-.207-.7725-.4547-1.6412-.735-2.5983.2709.9633.5182,1.8318.735,2.5983Z"/><path class="cls-2" d="M31.8655,97.6273c-3.9257-18.7787-4.1408-31.7401-2.4623-43.9655-.2123-.6815,4.7789-14.3984,5.2251-14.6152.0017-.0092,1.3636-1.8901,2.0637-3.9012.298-.8899,1.0845-2.6075,1.0703-2.6332l.0005-.0013-.001.0011c-.0246-.0107-.1861.2756-.3628.6058-.2565.5861-.6339,1.4548-.8307,2.001-.5629,1.5129-1.8213,2.8469-2.3914,3.403-.2395.3495-.4899.6904-.7254,1.0437-.9526,1.7019-3.1301,5.6385-3.1871,6.0173-2.5059,11.8617-3.1952,23.701-.7704,39.8169.0349.2264.0696.4534.1048.6776.1636,1.0571.3376,2.1288.5281,3.2238l.0413.2444c.4543,2.5908.9839,5.29,1.5953,8.1156.0538.3221.0908.5762.1072.7277l.0431.1456.0408-.019.0099-.0046.0023-.024c.0135-.0645-.025-.3999-.1012-.8593Z"/><path class="cls-2" d="M49.9691,33.3108l-.0132-.0194-.0057.0209c-.0141.0511-.0779.2883-.0805.3992.0406.0906.2338.5255.3113,1.0337.2397,1.4792.5672,3.587.8619,5.5111.2621-.4904.5139-.984.7565-1.4805-.5167-1.6062-1.0226-3.2386-1.3464-4.4391-.1383-.5276-.4476-.9752-.4841-1.0259Z"/><path class="cls-2" d="M41.7208,43.7922c.7889-3.1025,2.1924-10.3188,2.2644-10.4055.1855-.5027.1827-.645.2017-.6852.0424-.0974.0742-.236.0923-.2709l-.0076-.0216c-.0274.0281-.1159.1503-.1679.2437l-.0496.0941c-.0894.2986-.2556.8212-.3347,1.0481-1.1574,3.0514-2.1417,5.9686-2.9946,8.8463-.0283.0564-.1318.3048-.277.661l-.0104.036-.0662.1519c-.642,1.5853-1.9579,4.9285-2.4836,6.4276-.2762,1.5535-.5715,3.4962-.8461,5.7372.7123-.4707,1.4023-.9545,2.0681-1.4521.3677-2.1486.7278-3.9456,1.0202-5.275.0467-.3857,1.4552-4.7638,1.5909-5.1355Z"/><path class="cls-2" d="M37.2749,95.2931c.0267.4601.0589.9347.0891,1.4039.0784.6432.1567,1.2413.1896,1.3827l.0112.0316.0058-.043c.0792-.6079.1597-1.207.2421-1.7975.0022-.0134-.0087-.2108-.0275-.5199-.0871-.7413-.2253-2.0126-.255-2.3473.0248-.0179-.4226-5.845-.4932-12.6252-.2825-.3218-.5543-.6431-.8245-.9642.1372,3.0017.3482,6.1879.6501,9.624.0018.3873.4023,5.7905.4123,5.8549Z"/><path class="cls-2" d="M43.906,34.0599c.0226-.1033.0417-.2026.0648-.3064.0861-.2634.249-.9325.2966-1.2156-.051.2677-.2134.958-.3049,1.2241-.0202.1008-.0365.1974-.0564.2979Z"/><path class="cls-2" d="M44.2807,32.4347l.0002.0013-.0002-.0013Z"/><path class="cls-5" d="M17.1992,50.2274c.0835-.4478.1647-.9108.235-1.3593,2.0404-5.9115,4.5996-11.2502,7.4941-16.4268l.0406-.0756.0947-.1799c.1851-.327.5207-.6909.535-.7058l.0058-.0063c-.1406.0637-.2802.1281-.42.1929.0002.0005-.1077.1764-.4117.6056-2.2125,2.7947-4.3596,5.7048-6.4416,8.8693-1.2507,3.4449-2.3278,6.3578-2.3983,6.8236-.9359,5.3285-.5851,14.2952,1.1903,22.526,1.2861,6.5699,3.3528,13.1702,4.7125,17.8114.2803.957.5281,1.8258.735,2.5983.0456.17.0936.3461.1349.5061.0978.3824.5515,1.9011.589,1.8866l.064-.0354.0082-.089c-.0063-.1221-.0458-.3607-.1144-.6581-4.8328-15.832-7.2146-28.475-6.0533-42.2836Z"/><path class="cls-5" d="M36.8378,34.0822c-.3108.599-.9401,1.3285-1.1428,1.8066-1.8456,2.3873-3.5818,4.8496-5.2478,7.4626-1.191,3.1733-2.9626,11.5757-2.9431,12.0889.06.012-.6146,6.8784.1231,15.4832.5176,8.4396,2.6506,19.8789,3.7431,25.3054.0772.4615.4499,2.3285.4717,2.3246l.0356-.0164-.0071-.1484c-.0165-.1515-.0535-.4055-.1072-.7277-.6113-2.8256-1.141-5.5248-1.5953-8.1156l-.0413-.2444c-.1905-1.095-.3645-2.1666-.5281-3.2238-.0349-.2257-.0711-.4535-.1048-.6776-2.4248-16.1158-1.7355-27.9552.7704-39.8169.0569-.3788,2.2344-4.3154,3.1871-6.0173.2311-.4128.3922-.698.4311-.7646.0012-.0031.1171-.1061.2943-.2791.5701-.556,1.8285-1.89,2.3914-3.403.1969-.5461.5742-1.4149.8307-2.001.1577-.3601.2701-.6143.266-.6188-.0377-.0248-.7654,1.4534-.8271,1.5831Z"/><path class="cls-5" d="M50.181,34.7451c-.0775-.5082-.2708-.9431-.3113-1.0337l-.0162-.0369c.0013.0002-.0117.3134,0,.4221.0146.1636.033.3589.0807.6926.2549,1.6154.5109,3.8519.7397,6.1456.1255-.2255.2477-.4518.369-.6787-.2947-1.9241-.6223-4.0319-.8619-5.5111Z"/><path class="cls-5" d="M42.4395,43.5278c.3317-3.0253.8092-6.1444,1.4664-9.4679.0199-.1005.0362-.197.0564-.2979.0915-.2661.2539-.9564.3049-1.2241l.0136-.1019-.0002-.0013-.0007-.0062-.0007.0022c-.0181.0349-.05.1735-.0923.2709-.019.0402-.0162.1825-.2017.6852-.072.0867-1.4755,7.303-2.2644,10.4055-.1357.3717-1.5443,4.7498-1.5909,5.1355-.2924,1.3295-.6525,3.1265-1.0202,5.275.3008-.225.5997-.451.8913-.6813.1212-.5642.2446-1.1262.3723-1.6848-.0153-.4023,1.8746-7.9346,2.0662-8.3088Z"/><path class="cls-5" d="M37.5302,93.4037c.0297.3347.1679,1.606.255,2.3473.0372.3169.066.5466.0716.5492-.0019-.5093-.0082-1.0133-.0077-1.51-.0125-.0667-.4619-5.5796-.4655-5.9717-.0898-2.7531-.1249-5.3314-.1174-7.7841l-.2292-.256c.0706,6.7803.5179,12.6073.4932,12.6252Z"/><path class="cls-5" d="M37.8878,49.9177c.5257-1.4991,1.8416-4.8423,2.4836-6.4276l.0765-.1879c.1451-.3562.2487-.6046.277-.661.8529-2.8777,1.8372-5.7949,2.9946-8.8463.079-.2269.2453-.7495.3347-1.0481.043-.1439.0698-.2404.0573-.2181-.0181.0316-.0811.1608-.1217.2554-.0164.0398-.0701.1571-.2506.6447-.0622.0366-2.9268,6.3239-3.7376,9.4634-.126.354-2.5952,4.3149-2.6544,4.7181-.4471,1.9436-.9327,4.9832-1.3131,8.6991.3182-.1982.6249-.4032.9342-.6067.204-1.7028.4337-3.3792.6918-5.0421.0015-.0717.0896-.3489.2277-.7428Z"/><path class="cls-5" d="M37.4284,97.713c-.0237-.3442-.0426-.6764-.0645-1.016-.0302-.4692-.0624-.9438-.0891-1.4039-.01-.0643-.4105-5.4675-.4123-5.8549-.3019-3.4362-.5129-6.6223-.6501-9.624-.2152-.2557-.4282-.5114-.6352-.7666.4421,7.7788,1.4191,14.8574,1.3916,14.8871.0331.4564.4366,3.7617.4595,3.7783Z"/><path class="cls-9" d="M75.3266,14.6765l-.0023-.0381c-.0797-.4116-.1315-.8232-.1862-1.2349.0561.4498.1168.934.1852,1.2358l.0032.0372Z"/><path class="cls-9" d="M71.8116,11.9912c1.3137-.7736,3.141-1.3864,3.1359-1.3808-.0342.701-.0015,1.3804.0898,2.0372l-.0213.0041.0215.0027.0168.1202c-.1714-1.6982-.127-3.3966.1772-5.0962.2378-1.1464-1.2288-1.2385-3.3899-.074-4.5199,2.4061-8.5865,5.2048-11.8897,8.3098.0546,2.1987.0431,4.4543-.0627,6.7203,2.8456-4.5048,6.924-7.6077,11.9223-10.6433Z"/><path class="cls-9" d="M61.0668,32.905c.1346.0531.624.2078.9268.8425.4274.577.8671,1.1539,1.3182,1.7309l.0003-.0002-.0007-.0014.0012.0012c.3668-.2145.7469-.4244,1.1428-.6273.5796-.3001,1.0641-.6786,1.4827-1.0766-.9867-1.2735-2.5486-2.8129-3.0714-3.1193.1825-.5345.4025-1.0583.6359-1.5779l-.1234.2578c-.3344.7958-.5119,1.3207-.5131,1.3207-.0031,0-1.8721-.2936-3.1627-.5138-.1638-.0246-.307-.1165-.4247-.2568l-.0801-.0233c-.1523,1.0179-.3281,2.0273-.5331,3.0226.4296-.2142.8402-.3577,1.0781-.323.2979.0461,1.0009.217,1.3233.3438Z"/><path class="cls-9" d="M69.5185,15.0206c-.9941.6562-2.092,1.476-3.1926,2.4407.9737-.815,2.0374-1.6207,3.1926-2.4407Z"/><path class="cls-1" d="M59.2788,29.8848h-.0002c.1177.1403.2609.2322.4247.2568,1.2906.2202,3.1597.5138,3.1627.5138.0012,0,.1788-.5249.5131-1.3207l.1234-.2578c.0864-.1993.1886-.3962.2844-.5942.1997-.4064.4082-.8099.6376-1.2061.0986-.1691.2027-.3369.3075-.5046.2005-.3248.4132-.6448.6328-.9622.2333-.3313.471-.6613.7257-.9854.0768-.0994.1561-.1978.2347-.2964,1.9709-2.4302,4.4977-4.6312,7.1374-6.3828.1351-.0903.2713-.196.406-.3119l.2035-.1929.191-.189.1201-.1405c.6459-.7461,1.1192-1.7242.9435-2.6346l-.0032-.0372c-.0685-.3018-.1292-.7859-.1852-1.2358-.0292-.2338-.0571-.4483-.0838-.6289l-.0168-.1202-.0215-.0027c-.1082.0248-2.3439.3588-4.866,1.9634-.2042.1263-.4164.2634-.6316.4055-1.1553.82-2.2189,1.6257-3.1926,2.4407-2.9239,2.5628-5.8532,6.1322-6.8181,10.2769-.0229.0906-.0404.1792-.0591.2683-.0499.4172-.1036.8334-.1616,1.2483-.0199.3812-.0082.6304-.0083.6299Z"/><path class="cls-11" d="M66.3259,17.4614c1.1006-.9647,2.1985-1.7845,3.1926-2.4407.2152-.1421.4274-.2792.6316-.4055,2.522-1.6047,4.7578-1.9387,4.866-1.9634l.0213-.0041c-.0913-.6569-.124-1.3362-.0898-2.0372.0051-.0056-1.8222.6072-3.1359,1.3808-4.9984,3.0356-9.0767,6.1385-11.9223,10.6433-.0837,1.7933-.2276,3.5916-.4406,5.3721.0187-.0891.0361-.1777.0591-.2683.9649-4.1447,3.8942-7.7141,6.8181-10.2769Z"/><path class="cls-11" d="M59.2788,29.8848s-.0116-.2488.0083-.6299c-.0283.2026-.0583.4047-.0886.6066l.0801.0233h.0002Z"/><path class="cls-6" d="M70.814,105.2999l.0146.0165c.2719-.438.529-.8745.7698-1.3101.0286-.0018.2316-.2681.5208-.6719-.3059.3857-.5583.6948-.5721.6937.2687-.3754.5264-.7504.7729-1.1251.0983-.0017,1.746-2.502,2.549-3.8608.1537-.2861.3039-.5722.4464-.8582,6.5347-13.4772.8083-26.736-6.551-39.2636-.1956-.5186-6.0558-10.1023-6.3482-10.5265-1.7341-3.7064-3.4337-7.41-4.8828-11.0988-.9999,3.2064-2.3589,6.1746-4.1777,8.7188,1.4566,5.7306,3.511,11.7366,3.5662,11.7401.1859.5134.3717,1.0444.5464,1.5566,3.9373,12.5923,8.217,25.3121,4.4293,38.0264-.0117.138-.2609.6989-.5765,1.3554l8.2712,7.3513c.4677-.1464.8299-.2882.9396-.3976.095-.1154.1891-.2307.2822-.3461Z"/><path class="cls-6" d="M53.9471,58.7309c-.2188-.5341-2.0179-8.4438-2.0975-8.9488-.0179-.0065-.0811-.6813-.1573-1.7133-1.7047,1.8713-3.7286,3.43-6.1331,4.5674-1.1606.549-2.2007,1.1073-3.1754,1.6696.0314.8956.0698,1.7963.1179,2.7045.061.4725.1137.9587.16,1.4283.5804,9.3518,3.2474,19.1204,5.3464,28.4213l12.2187,10.8598c.2083-1.0568.3917-2.111.3727-2.2956,2.142-12.1658-2.5222-24.4353-6.6523-36.6933Z"/><path class="cls-6" d="M38.9761,59.1486c-.0796-.2961-.2748-1.3678-.4164-2.284-12.4442,9.9035-1.2581,20.4798-1.2581,20.4798l7.952,7.0676c-.2933-1.0076-.6022-2.0524-.9269-3.1289-2.4579-8.0604-4.3547-17.5465-5.3506-22.1345Z"/><path class="cls-6" d="M42.613,66.4725c.4317,2.3875.9461,4.777,1.5109,7.1564-.5605-2.5132-1.0784-4.9582-1.5109-7.1564Z"/><path class="cls-6" d="M69.6914,53.567c2.951,5.2141,9.6057,17.4452,10.1286,28.3187,1.2629,10.8807-6.2773,20.4036-6.3618,20.3616-.212.3679-2.2624,2.8159-2.3176,2.8122.1513-.1818.2817-.3633.4277-.545-.3617.4191-.6658.759-.7325.8101.4468.4911.8822.9822,1.3113,1.4733.2496,0,1.6241-.5653,2.9839-1.2047l-.0007.0023c.0248-.0469.2457-.2905.5598-.6308,13.4806-13.9327,10.5589-29.2036,4.381-43.9.195-.756-10.9487-17.7636-11.4243-17.9447,0-.0087-2.1829-2.3137-3.5179-4.639-.5948-1.0362-1.8371-2.9806-1.8168-3.0026l-.0003.0002c-.451-.577-.8908-1.1539-1.3182-1.7309-.3028-.6348-.7922-.7894-.9268-.8425-.3224-.1268-1.0255-.2977-1.3233-.3438-.2379-.0347-.6486.1088-1.0781.323-.2734,1.327-.5981,2.6279-.9752,3.8953.9615,1.5403,4.7954,7.4001,6.9577,10.847.272.426,4.7758,5.4259,5.0436,5.9404Z"/><path class="cls-6" d="M76.5339,35.9444c.0444.0695.0853.132.1404.2233l.1288.1739-.085-.1207c-.0449-.0846-.1111-.1798-.1842-.2765Z"/><polygon class="cls-6" points="64.4015 48.1743 64.5017 48.3135 64.4008 48.1732 64.4015 48.1743"/><path class="cls-6" d="M69.0175,42.5981c.3405.3779.6807.7557,1.0226,1.1395-.3845-.4783-.6449-.8014-.7026-.8737-.0003-.003-.1222-.1-.32-.2658Z"/><path class="cls-6" d="M70.2655,56.4227c2.5594,4.7103,6.4816,12.3807,8.2146,20.1757-1.3793-6.4506-4.2763-12.8627-7.5692-19.1775-.0381-.0952-.2815-.4664-.6454-.9982Z"/><path class="cls-6" d="M63.3125,35.478c.0182-.0134.2512.3051.5145.6756-.251-.4021-.4243-.6823-.417-.6859.0222-.0306,1.1501,1.6467,1.2612,1.8007.488.6877,1.3674,1.5463,1.7376,2.1094,2.7073,2.8332,5.5422,5.8691,8.3032,9.095,2.6237,3.9071,7.6128,14.1249,7.6368,14.684-.1464-.0391,3.3808,8.4221,3.4565,17.6777.6865,9.3016-4.9219,19.185-8.968,23.0837-.2903.3542-1.6207,1.7339-1.6445,1.7256l-.0196-.0117.0717-.0886-.099.0867-.0223-.0139c-.0696.2278-.1418.4554-.2169.6832-.1348.3969.3045.6785,1.0622.6785h1.4416c.785,0,3.3445-1.4955,3.7162-1.8741.9709-.9139,2.0217-2.0515,3.039-3.358-.0717.8439-.1675,1.6879-.2841,2.5318-.0579.3969.415.6785,1.1346.6785h1.3706c.747,0,2.8453-1.4957,3.1125-1.8741,8.0443-8.5485,8.2922-36.7258,9.066-36.7258-.0724-.5356,2.4573-11.0435.5353-15.327-4.6732-5.9683-10.9717-11.9366-16.6453-17.9049-.4162-.66-1.2407-.8217-1.4639-.877-.5323-.1292-1.7176-.3093-2.2227-.3554-1.1027-.1016-1.9448.7754-2.1204,1.2324-.2966.507-.5833,1.014-.86,1.5209-1.0359-.4039-2.0947-.7962-2.9283-1.1102-.5024-.1846-2.2932-2.2894-4.2769-2.2848-.7574.0035-1.4095,1.3488-2.6454,2.5238-.4185.3979-.9031.7765-1.4827,1.0766-.3959.2029-.7759.4128-1.1428.6273ZM75.8565,35.1887c.1596.0828.3195.1662.4799.2501.0007.0005.1493.2009.5634.6992,2.9345,3.2652,5.8987,6.7542,8.5672,10.4445,2.0179,3.9561,3.5193,7.2432,3.6747,7.7599,1.9003,5.9524,3.5942,15.969,3.1729,24.905-.0826,7.1248-2.4142,13.5652-4.7435,17.7566-.4895.8956-.9818,1.6827-1.4603,2.3489-.1181.1676-.237.3388-.3521.4916-.2075.3298-1.1752,1.6025-1.2043,1.5866l-.033-.0266.0289-.0684-.0378.0291-.0635-.0513c-.0342-.0266.1206-.294.3588-.6434,9.4984-13.8203,6.6625-28.9744,1.9988-43.8448-.1918-.4913-.3817-1.002-.5529-1.4979-2.658-6.53-6.2574-12.9088-9.9273-18.9997-.2065-.4011-.5723-1.1815-.4625-1.1321l-.0074-.0071Z"/><path class="cls-4" d="M44.1239,73.6288c-.5648-2.3794-1.0792-4.7689-1.5109-7.1564-.4912-2.4965-.8731-4.675-1.0756-6.2485-.1068-.4794-.5203-3.0535-.5415-3.5344.0126-.5289.0307-1.049.0469-1.5721-.9088.5789-1.747,1.1612-2.4831,1.747.1416.9162.3368,1.9879.4164,2.284.9959,4.588,2.8927,14.0741,5.3506,22.1345.3248,1.0765.6336,2.1213.9269,3.1289l1.7428,1.549c-.3102-1.4135-.6547-2.9177-1.0358-4.48-.6239-2.5455-1.2524-5.2326-1.8367-7.8521Z"/><path class="cls-4" d="M76.3263,36.3279c3.6699,6.0909,7.2693,12.4697,9.9273,18.9997.1712.4959.3611,1.0066.5529,1.4979,4.6637,14.8705,7.4996,30.0245-1.9988,43.8448-.2382.3494-.393.6168-.3588.6434l.0635.0513.0378-.0291c.056-.0989.1899-.2981.3644-.5487,9.8513-13.4797,7.4975-28.6428,3.8171-43.914-.1729-.5057-.3499-1.0303-.5173-1.5372-3.0226-6.6792-7.1861-13.054-11.4115-18.9944l-.1288-.1739c-.0551-.0913-.096-.1538-.1404-.2233-.2639-.349-.639-.719-.67-.7486-.1098-.0494.256.731.4625,1.1321Z"/><path class="cls-4" d="M87.5711,97.0039c-.4948.8903-.9872,1.6776-1.4603,2.3489.4786-.6662.9708-1.4532,1.4603-2.3489Z"/><path class="cls-4" d="M75.245,105.5433c.094-.1068.2757-.303.5087-.5547,3.0529-3.1533,5.2836-6.3805,6.8389-9.6589l.1033-.2233c.2162-.4653.4193-.9315.6088-1.3987l.0812-.1989c5.4937-13.8298-.4904-28.4902-7.5463-42.3234-.2076-.4749-4.1517-5.3978-5.7995-7.4478-.3419-.3838-.6821-.7617-1.0226-1.1395-.7554-.6329-2.6816-2.3248-3.7664-4.142-.3815-.6402-1.0094-1.6382-1.4242-2.3026-.2632-.3705-.4963-.689-.5145-.6756l-.0012-.0012.0007.0014c-.0203.022,1.222,1.9664,1.8168,3.0026,1.335,2.3253,3.5178,4.6302,3.5179,4.639.4756.1811,11.6193,17.1887,11.4243,17.9447,6.1779,14.6964,9.0995,29.9673-4.381,43.9-.3141.3403-.5349.5839-.5598.6308l-.0116.0176.005.0031.0223.0139.099-.0867Z"/><path class="cls-4" d="M56.5748,59.2659c-.2167-.5207-2.6113-8.3767-2.7038-8.8851-.033-.0039-.4354-1.6771-.8856-3.8729-.4091.5414-.8393,1.0627-1.2932,1.561.0763,1.0319.1394,1.7067.1573,1.7133.0796.505,1.8788,8.4147,2.0975,8.9488,4.1302,12.258,8.7944,24.5275,6.6523,36.6933.019.1846-.1644,1.2388-.3727,2.2956l.7604.6758c.3828-1.2662.8248-2.8692.8074-3.099,2.639-12.0316-1.4426-24.079-5.2198-36.0308Z"/><path class="cls-4" d="M75.3154,98.184c-.1425.286-.2927.5721-.4464.8582.2509-.4246.4218-.7411.4339-.8309l.0125-.0273Z"/><path class="cls-4" d="M67.5091,55.2194c2.9797,5.218,9.7931,16.6802,10.7292,27.0634,1.6317,10.3452-4.9146,19.6108-4.9895,19.5637-.1411.2222-.6915.9358-1.1295,1.488-.2892.4037-.4922.67-.5208.6719-.2408.4356-.4979.8721-.7698,1.3101l-.0184.0312.0255-.0233c.0667-.051.3708-.3909.7325-.8101.3314-.4128.6672-.8255.9714-1.2382.1215-.0019,2.9022-4.2024,2.9592-4.5691,3.5937-6.376,4.3912-12.7779,3.5212-19.1503-.0222-.1625-.0437-.325-.0681-.4875-.0337-.2249-.072-.4496-.1097-.6744-.1006-.5992-.2343-1.1978-.3623-1.7964-1.733-7.795-5.6552-15.4655-8.2146-20.1757-1.3298-1.9437-4.3646-6.1627-5.7638-8.1091l-.1002-.1392-.0007-.0012c-.3411-.4745-.5752-.8007-.6204-.8662-2.1744-3.5213-4.2841-6.9808-6.138-10.3704-.0303.1002-.0603.2005-.0912.3002.9493,2.2593,3.6896,8.2776,5.7328,11.4908.2844.4474,3.9655,5.9932,4.2252,6.4918Z"/><path class="cls-12" d="M42.5016,57.0104c-.0482-.9082-.0865-1.8089-.1179-2.7045-.467.2695-.9142.5399-1.3409.8116-.0162.5231-.0344,1.0432-.0469,1.5721.0212.4809.4348,3.0549.5415,3.5344.2025,1.5735.5844,3.752,1.0756,6.2485.4326,2.1982.9504,4.6432,1.5109,7.1564.5843,2.6195,1.2128,5.3066,1.8367,7.8521.3812,1.5623.7256,3.0665,1.0358,4.48l1.0116.899c-2.0991-9.3008-4.7661-19.0695-5.3464-28.4213-.0463-.4696-.0989-.9557-.16-1.4283Z"/><path class="cls-12" d="M76.5339,35.9444c.0731.0967.1393.1919.1842.2765l.085.1207c4.2254,5.9404,8.3889,12.3152,11.4115,18.9944.1674.5069.3444,1.0315.5173,1.5372,3.6804,15.2712,6.0341,30.4343-3.8171,43.914-.1744.2506-.3084.4498-.3644.5487l-.0289.0684.033.0266c.0291.0159.9969-1.2568,1.2043-1.5866.1151-.1528.2339-.324.3521-.4916.4731-.6713.9655-1.4586,1.4603-2.3489,2.3293-4.1914,4.6609-10.6318,4.7435-17.7566.4213-8.936-1.2725-18.9526-3.1729-24.905-.1555-.5168-1.6568-3.8039-3.6747-7.7599-2.6685-3.6903-5.6327-7.1793-8.5672-10.4445-.4141-.4982-.5627-.6986-.5634-.6992-.1604-.0839-.3203-.1672-.4799-.2501l.0074.0071c.031.0296.4061.3996.67.7486Z"/><path class="cls-12" d="M69.0175,42.5981c.1978.1658.3197.2628.32.2658.0577.0723.3181.3954.7026.8737,1.6478,2.0499,5.5919,6.9729,5.7995,7.4478,7.0559,13.8332,13.04,28.4936,7.5463,42.3234l-.0812.1989c-.1895.4672-.3926.9335-.6088,1.3987l-.1033.2233c-1.5552,3.2784-3.7859,6.5056-6.8389,9.6589-.233.2517-.4147.4479-.5087.5547l-.0717.0886.0196.0117c.0237.0084,1.3542-1.3713,1.6445-1.7256,4.0461-3.8987,9.6544-13.7822,8.968-23.0837-.0757-9.2556-3.603-17.7167-3.4565-17.6777-.024-.5591-5.0132-10.7769-7.6368-14.684-2.761-3.2258-5.5959-6.2618-8.3032-9.095-.3702-.5631-1.2496-1.4216-1.7376-2.1094-.111-.1539-1.239-1.8312-1.2612-1.8007-.0073.0035.166.2838.417.6859.4148.6644,1.0427,1.6624,1.4242,2.3026,1.0848,1.8171,3.0109,3.5091,3.7664,4.142Z"/><path class="cls-12" d="M57.4684,59.3106c-.1747-.5121-.3605-1.0432-.5464-1.5566-.0552-.0035-2.1096-6.0095-3.5662-11.7401-.12.1679-.2464.3298-.3704.494.4502,2.1957.8526,3.869.8856,3.8729.0925.5084,2.4871,8.3644,2.7038,8.8851,3.7772,11.9517,7.8588,23.9991,5.2198,36.0308.0173.2298-.4247,1.8328-.8074,3.099l.3339.2968c.3157-.6565.5649-1.2174.5765-1.3554,3.7877-12.7143-.4919-25.434-4.4293-38.0264Z"/><path class="cls-12" d="M68.7644,58.9204c7.3593,12.5276,13.0857,25.7864,6.551,39.2636l-.0125.0273c-.0121.0898-.183.4064-.4339.8309-.8029,1.3589-2.4507,3.8591-2.549,3.8608-.2465.3748-.5042.7497-.7729,1.1251.0138.001.2662-.308.5721-.6937.438-.5522.9884-1.2658,1.1295-1.488.0749.0471,6.6212-9.2184,4.9895-19.5637-.9361-10.3832-7.7495-21.8455-10.7292-27.0634-.2597-.4987-3.9408-6.0444-4.2252-6.4918-2.0432-3.2132-4.7835-9.2315-5.7328-11.4908l-.0177.0583c1.449,3.6887,3.1487,7.3924,4.8828,11.0988.2924.4242,6.1526,10.0079,6.3482,10.5265Z"/><path class="cls-12" d="M64.4008,48.1732l.1009.1404c1.3992,1.9464,4.434,6.1655,5.7638,8.1091.3639.5319.6073.903.6454.9982,3.2929,6.3148,6.1899,12.7269,7.5692,19.1775.1331.5986.2567,1.1977.3623,1.7964.0377.2248.076.4496.1097.6744.0244.1625.0459.325.0681.4875.87,6.3724.0724,12.7743-3.5212,19.1503-.0569.3667-2.8376,4.5672-2.9592,4.5691-.3043.4127-.64.8254-.9714,1.2382-.1459.1817-.2764.3632-.4277.545.0552.0037,2.1055-2.4443,2.3176-2.8122.0845.0421,7.6247-9.4809,6.3618-20.3616-.5229-10.8735-7.1776-23.1046-10.1286-28.3187-.2678-.5145-4.7715-5.5144-5.0436-5.9404-2.1623-3.447-5.9962-9.3068-6.9577-10.847l-.0477.1571c1.8539,3.3896,3.9636,6.8491,6.138,10.3704.0452.0656.2794.3917.6204.8662Z"/><path class="cls-12" d="M78.8424,78.3948c-.1056-.5988-.2292-1.1979-.3623-1.7964.128.5986.2617,1.1972.3623,1.7964Z"/></g></svg>