<?xml version="1.0" encoding="UTF-8"?><svg id="Layer_2" xmlns="http://www.w3.org/2000/svg" viewBox="0 0 145.1023 103.9358"><defs><style>.cls-1{fill:#f4f4f5;}.cls-1,.cls-2,.cls-3,.cls-4{stroke-width:0px;}.cls-5,.cls-2{opacity:.5;}.cls-2,.cls-3{fill:#b7b7b7;}.cls-4{fill:#fff;}</style></defs><g id="Layer_1-2"><g class="cls-5"><path class="cls-1" d="M80.0881,23.5038c-16.3503,40.2592-33.7576,35.2748-50.816,39.4914-1.3837.3502-3.4583-.8663-4.6105-2.7093-7.1567-11.5801-14.229-20.2908-21.1117-22.783-1.1072-.3625-.9319-2.6115.3926-4.9009C20.2928,4.2976,37.7001,13.287,54.7585,5.1243c1.3837-.6594,3.4583-.0219,4.6104,1.4461,7.1567,9.3119,14.2291,14.3434,21.1117,11.7438,1.1073-.468.9319,1.9212-.3926,5.1896Z"/></g><rect class="cls-2" x="27.5855" y="22.7753" width="5.223" height="91.1862" rx="2.6115" ry="2.6115" transform="translate(-36.842 35.3251) rotate(-39.9313)"/><g class="cls-5"><path class="cls-1" d="M137.9202,88.9647c-43.4055,2.0245-46.1742-15.8694-57.1508-29.591-.8978-1.1097-.6626-3.503.528-5.3214,7.5155-11.3506,12.461-21.4221,11.8397-28.7156-.1348-1.1572,1.9807-1.9405,4.6144-1.6972,32.5509,2.985,31.6831,22.5572,46.2427,34.6252,1.1786.98,1.469,3.1308.6189,4.7921-5.456,10.4001-7.0608,18.93-1.8164,24.0898.8889.8093-1.3539,1.6512-4.8765,1.8182Z"/></g><rect class="cls-2" x="73.6668" y="16.872" width="5.223" height="91.1862" rx="2.6115" ry="2.6115" transform="translate(34.0034 -26.6028) rotate(25.2948)"/><path class="cls-4" d="M135.9195,51.2958c-24.6671,25.7484-51.4851-13.5484-76.1523-4.8422-1.7375.5677-3.1464-.1724-3.1465-1.9589,0-12.8943,0-25.7889,0-38.6832.0002-1.7801,1.409-3.9581,3.1465-4.5256,24.6672-8.7059,51.4851,30.5903,76.1523,4.8422,1.7376-1.7657,3.1465-2.1041,3.1465-.3165v38.6832c-.0002,1.7786-1.4089,5.035-3.1465,6.801Z"/><rect class="cls-3" x="54.8135" y=".1842" width="5.9427" height="103.7516" rx="2.9714" ry="2.9714"/></g></svg>