<?xml version="1.0" encoding="UTF-8"?><svg id="Layer_2" xmlns="http://www.w3.org/2000/svg" viewBox="0 0 68.0791 83.4952"><defs><style>.cls-1{fill:#908833;}.cls-1,.cls-2,.cls-3,.cls-4,.cls-5,.cls-6,.cls-7,.cls-8,.cls-9,.cls-10,.cls-11,.cls-12{stroke-width:0px;}.cls-2{fill:#b53127;}.cls-3{fill:#ea723c;}.cls-4{fill:#b7b7b7;}.cls-5{fill:#f58257;}.cls-6{fill:#fff;}.cls-7{fill:#7a2017;}.cls-8{fill:#a09f9f;}.cls-9{fill:#a99f3c;}.cls-10{fill:#cab736;}.cls-11{fill:#f29881;}.cls-12{fill:#eaeaea;}</style></defs><g id="Layer_1-2"><g id="Mom_Head"><path class="cls-9" d="M46.1137,9.4744c-4.1854,2.7421-7.4297,6.3267-8.8287,10.4246.6304.3693,3.0751,2.8907,3.2545,3.7779.3411,2.0632.8351,4.1264,1.4299,6.1896.4263,1.4769-2.2672.8823-3.3801.6843-3.7446-.6635-7.3256-1.327-10.6686-1.9905-1.0127-.1981-3.1772-1.601-3.1297-3.0078.0848-1.7191.2551-3.4382.5527-5.1573.1148-.9213,2.1052-2.274,2.801-2.312,1.7454-6.9065,8.2697-12.9463,16.6188-17.391,1.8008-.9703,3.0228-.8936,2.8246.0617-.3462,1.9343-.2967,3.8667.0773,5.7994.1623.9574-.518,2.2365-1.5518,2.9211Z"/><path class="cls-1" d="M37.2845,19.8995c-.0025,0-1.5599-.2447-2.6353-.4281-.5301-.0796-.8153-.98-.5055-1.9776,1.6814-5.169,4.8941-8.0865,10.1137-11.6132,1.0235-.6816,1.9329-1.2235,3.1692-.9804.0684.4216.1453,1.2447.2382,1.6539.2351,1.1045-.6932,2.3481-1.5506,2.9214-3.5834,2.3779-6.9294,5.744-8.402,9.3235-.2786.6631-.4265,1.1005-.4276,1.1005Z"/><path class="cls-10" d="M34.2955,19.2574c-.0037.0068-1.2562-.4244-1.7447-.3156-.2213.0581-.1547-.3109.2305-1.5311,2.2087-6.2148,6.4008-9.6887,11.9571-13.0631,1.0947-.6446,2.6172-1.1553,2.6131-1.1506-.0285.5842-.0013,1.1502.0748,1.6975.008.0073-1.9139.2661-4.0723,1.6394-3.0443,1.8826-7.6955,5.8998-8.8677,10.9349-.2337.9231-.1907,1.7894-.1908,1.7886Z"/><path class="cls-5" d="M67.0312,49.6471c-.6448,0-.8514,23.4788-7.5543,30.6019-.2227.3153-1.971,1.5616-2.5935,1.5616h-1.1421c-.5996,0-.9936-.2347-.9454-.5654.0972-.7032.177-1.4064.2368-2.1096-.8477,1.0886-1.7232,2.0365-2.5322,2.798-.3097.3154-2.4424,1.5616-3.0965,1.5616h-1.2012c-.6313,0-.9973-.2347-.8851-.5654.0647-.1962.127-.3923.1868-.5885-1.1331.5327-2.2783,1.0038-2.4863,1.0038-.3635-.416-.732-.832-1.1108-1.2481-.0775.0962-.156.1923-.2351.2884-.318.3173-3.1438.9597-3.5908.9596-1.2222-.1384-2.4456-.2769-3.6764-.4154-.3758,0-2.2276-2.3057-2.208-2.6231.2556-.5506.4865-1.1012.6938-1.6519-.713.8654-1.4763,1.7308-2.2904,2.5962-.3462.3269-1.0547.5595-1.6917.5596h-1.2234c-.6109,0-2.9999-1.0481-3.0092-1.3751.089-.641.1426-1.282.1636-1.9231-.2942.4878-.6003.9757-.9183,1.4635-.2842.3385-1.1152.9866-1.6812.9115.1356-.0345-6.7785-4.5674-7.4851-4.6634-.132-.0404-.6273-.1595-.7994-.6481-.8694-11.0244-4.8918-22.0487-6.4254-33.0731-.1426-.3962-.1391-.8058-.0035-1.2,4.2028-5.991,6.0183-11.9821,8.5225-17.9731.0434-.2923.3405-.5.7162-.5.2396,0,.4814,0,.7252,0,.3819,0,.7435.2077.8645.5.233.6269.4809,1.2538.7427,1.8807.2618-.9013.5425-1.8026.8514-2.7039.0762-.3788.5107-1.1019,1.1361-1.0192.2872.0384.9676.1864,1.2797.2962.1305.0443.6077.1769.892.723.839.7263,1.7182,1.4526,2.6346,2.1789.3067-.7365.6348-1.4731.9884-2.2096.046-.3655.3726-1.0692.8768-.9885.2324.0384.7785.1808,1.028.2865.1047.0442.4872.1731.7286.702.2005.3532.4066.7064.6181,1.0596.0943-.2352.1912-.4705.2907-.7058.0367-.3673,1.7063-1.423,2.2604-1.3423.2482.0384.8339.1808,1.1026.2865.1121.0442.5199.1731.7722.702.3561.4808.7226.9615,1.0984,1.4423.3059-.1789.6228-.3539.9528-.5231,1.909-.9885,2.5949-2.9962,3.4397-3,1.6529-.0039,3.1451,1.75,3.5638,1.9038.6946.2616,1.5768.5885,2.44.925.2306-.4224.4695-.8449.7166-1.2673.1463-.3808.848-1.1116,1.7668-1.0269.4209.0384,1.4085.1885,1.852.2962.186.0461.873.1808,1.2198.7307,4.7275,4.9731,9.9758,9.9462,13.8697,14.9193,1.6015,3.5692-.5064,12.3249-.446,12.7712Z"/><path class="cls-3" d="M19.3561,41.1849c.0497.3914.0872.7931.1085,1.1793.7726,12.0275,5.8581,24.6581,7.3968,35.3338.0149.3052-.0256.8444-.0264.844.0695.0467-1.3821-3.6345-1.5055-3.7539-.0228-.0313-.0994-.1149-.213-.5599.1018-.0011-1.2434-5.3928-3.2797-12.1431-2.0481-6.7164-3.6286-14.6207-4.4585-18.4436-.1104-.4107-.4899-2.6175-.4809-3.0242,1.0533-5.7894,2.0748-10.8801,4.0329-15.098.0547-.2404.1807-.2383.1808-.2386,0-.0002-.0541.2826-.0536.3473-.0004.3418-.0114.6271-.0383.8829-1.181,4.3948-1.5358,9.3509-1.663,14.6739Z"/><path class="cls-3" d="M57.2331,41.7058c-.1598-.4094-.318-.8349-.4607-1.2481-2.2148-5.4412-5.214-10.7563-8.2719-15.8315-.1728-.3356-.4799-.9908-.3848-.9438.0434.0214.174.1238.2527.2062.0327.0345.1374.1323.422.6041,2.0807,2.7747,4.1705,5.68,6.0596,8.6968,1.8847,3.1831,3.4636,5.8314,3.5863,6.2633,1.5347,4.9318,3.2886,13.2084,3.1132,20.7179.1083,7.5555-2.8441,14.3435-5.1792,17.359-.1768.2739-1.0111,1.312-1.0487,1.2888-.0178-.0142-.0351-.0286-.053-.0427-.0285-.0222.1005-.245.299-.5361,7.9145-11.5158,5.5515-24.1429,1.6655-36.5338Z"/><path class="cls-3" d="M51.6207,45.2379c.1625-.63-9.123-14.8016-9.5193-14.9525,0-.0072-1.8189-1.9278-2.9313-3.8654-.4966-.8651-1.5356-2.4911-1.5145-2.5031.0299-.0322.981,1.3564,1.0768,1.4835.4176.5662,1.133,1.5298,1.4458,1.9973,2.2054,2.3963,4.5115,4.9529,6.753,7.6587,2.1952,3.2414,6.3272,11.7267,6.3436,12.1892-.121-.0306,2.8598,6.9041,2.9723,14.5518.6152,7.6775-3.9631,15.8947-7.3465,19.1427-.2441.2945-1.3594,1.4409-1.3836,1.432-.0074-.0048-.0153-.0095-.0228-.0142-.0122-.0078.1907-.2311.4761-.5403,11.2327-11.6094,8.7982-24.334,3.6505-36.5797Z"/><path class="cls-3" d="M29.8529,43.2934c-.1823-.4451-1.6815-7.0358-1.7478-7.4566-.0535-.0194-.5842-7.0265-.4055-10.1825.0053-.5342.1872-.9962.1877-.9961,0-.0002.124.3056.1394.4082.0223.1547.0461.3411.0505.6537-.2607,4.6139,3.4918,16.3802,3.5677,16.3854.1631.4298.3171.873.4526,1.3016,3.4741,10.6449,7.3475,21.3612,4.3733,32.0367-.0373.318-1.4513,3.202-1.5612,3.213.0036.001-.3259-.6789-.2756-.9241.0928-.0575.7951-3.5434.7619-3.8648,1.7848-10.1372-2.1016-20.3607-5.543-30.5747Z"/><path class="cls-3" d="M42.5768,43.2399c-.1752-.4406-5.319-8.3517-5.5533-8.6985-1.5594-3.2-3.0871-6.3904-4.3693-9.5603-.1672-.3272-.5517-1.3053-.4885-1.2481.028.0267.1188.1378.1773.2242.0246.0353.0996.1393.3489.6035-.0927-.0228,3.6707,6.5571,5.8722,9.9364.2417.3652,3.816,4.8809,4.0328,5.3142,2.4481,4.4484,8.0404,14.5111,8.413,23.5058.9974,8.9861-5.3712,16.9042-5.4392,16.869-.2127.3134-1.6204,1.9568-1.6665,1.9508.2326-.3737.4513-.7461.6568-1.1177.0963-.0062,2.5544-3.5933,2.6054-3.9062,6.3468-11.5453,1.6042-22.9878-4.5895-33.8731Z"/><path class="cls-11" d="M20.3159,41.8599c.0509.3937.0947.7988.1333,1.1901.722,11.6323,5.3235,24.043,6.4312,34.767.0215.3092-.0172.8594-.0178.8588.0767.0382-.9784-3.9195-1.0852-4.041-.0152-.0351.0039-.1009-.0958-.5581-.0409.0546-.8986-5.3313-2.4834-11.8267-1.585-6.4669-3.2135-14.0435-3.6857-17.7124-.0889-.3994-.4335-2.5443-.4512-2.945.1398-5.8725.5171-11.3187,1.9301-16.0857.0508-.2517.1217-.2908.122-.2911.0001.0004.003.333-.0022.3948-.0288.3297-.0832.6617-.1169.9216-.9343,4.7025-.9669,9.8873-.6783,15.3276Z"/><path class="cls-11" d="M58.8373,41.7455c-.144-.4214-.2915-.8585-.431-1.2809-2.5356-5.6028-6.0343-10.9495-9.5795-15.9277-.1781-.3359-.7181-.8611-.7179-.8601.133.069.2663.1385.3999.2084.0005.0005.1244.1674.4694.5826,2.4452,2.7208,4.9151,5.6279,7.1386,8.7029,1.6815,3.2964,2.9325,6.0354,3.062,6.466,1.5835,4.9599,2.9949,13.3062,2.6438,20.7522-.0872,7.5126-3.1749,14.125-5.4627,17.1625-.1729.2748-.9793,1.3352-1.0035,1.322-.0089-.0074-.0186-.0148-.0275-.0222-.0149-.012.1263-.2249.3277-.5142,8.2086-11.232,6.2473-23.8667,3.1806-36.5915Z"/><path class="cls-11" d="M48.0948,37.0062c-.2133-.488-5.1638-6.6154-5.4179-6.9339-.0012-.012-2.2644-1.7622-3.405-3.6728-.5102-.8563-1.5502-2.4823-1.5342-2.4901.0185-.0255.9584,1.3722,1.0509,1.5004.4066.5731,1.1394,1.2884,1.4479,1.7576,2.2559,2.3608,4.6181,4.8905,6.9187,7.5784,2.1862,3.2556,6.3434,11.7696,6.3634,12.2354-.122-.0325,2.8171,7.0178,2.8802,14.73.572,7.7506-4.1012,15.9859-7.4726,19.2346-.2419.2952-1.3505,1.4448-1.3703,1.4379-.0055-.0034-.0107-.0064-.0163-.0098-.0083-.0056.1982-.2278.4836-.5361,13.6854-14.135,7.6111-30.0502.0715-44.8316Z"/><path class="cls-11" d="M32.0424,43.7392c-.1805-.4339-2.1758-6.9799-2.2529-7.4036-.062-.0073-1.6904-7.0867-1.8105-10.3049-.0455-.5405.048-1.0187.0483-1.0185-.0005.0008.061.2927.0745.3957.0194.1541.0412.3398.0702.6565.1115,4.6765,4.0893,16.4107,4.1598,16.4151.1549.4278.3097.8703.4553,1.297,3.2808,10.4926,6.8468,21.0913,3.6907,31.6855-.0267.3164-1.5456,3.2904-1.6208,3.2953.0045-.0004.3469-.8547.4181-1.1009.0974-.0611,1.1409-3.575,1.1168-3.8946,2.199-10.0254-1.2021-20.0639-4.3494-30.0227Z"/><path class="cls-11" d="M42.1994,43.4513c-.163-.4322-5.046-8.4177-5.2896-8.7712-1.5143-3.2366-3.004-6.471-4.2472-9.6909-.1705-.3263-.5476-1.3049-.5004-1.2384.0204.0311.0701.1607.1214.2517.0215.0375.0428.1684.2878.6355-.0927-.0021,2.9388,6.9818,5.0615,10.32.2369.3728,3.3042,4.9938,3.5206,5.4093,2.4828,4.3479,8.1601,13.8989,8.9401,22.5507,1.3596,8.6202-4.0951,16.3407-4.1575,16.3015-.1996.3144-1.39,1.82-1.4179,1.8179.2239-.3128.4387-.6253.644-.9375.1075-.0019,2.4429-3.5952,2.4855-3.9094,5.4624-11.2377.6881-22.2935-5.4482-32.7392Z"/><path class="cls-11" d="M43.988,42.2018c-.181-.4527-5.7159-8.1005-5.9415-8.4275-1.8361-2.9733-3.6187-5.8943-5.1783-8.7548-.1674-.3179-.5982-1.2413-.5525-1.1767.0201.0306.0926.1472.1426.2356.0218.0367.0825.1432.3226.5984-.0838-.0319,3.8959,6.0282,5.9883,9.3637.2267.355,3.9795,4.5211,4.2026,4.9499,2.4589,4.3446,8.0039,14.5362,8.4397,23.5966,1.0523,9.0663-5.2306,17.0013-5.301,16.9663-.1767.3065-1.8852,2.3464-1.9311,2.3433.4125-.4956.8007-.9907,1.1658-1.4859.1013-.0015,2.4183-3.5017,2.4657-3.8072,6.4945-11.5227,2.0462-23.1467-3.823-34.4018Z"/></g><g id="Mom_Smile_Face"><path class="cls-7" d="M0,42.3009c4.3502-10.4147,21.6034-10.4328,25.9418.0001-2.4359-.95-4.5717-1.6884-6.7032-2.1592-6.6678-1.5428-12.8425-.4781-19.2387,2.159h0Z"/><path class="cls-7" d="M29.9911,42.3009c4.3502-10.4147,21.6034-10.4328,25.9418.0001-2.4359-.9499-4.5717-1.6884-6.7032-2.1592-6.6677-1.5428-12.8424-.4781-19.2386,2.159h0Z"/><rect class="cls-2" x="24.5014" y="51.8326" width="2.4403" height="6.3464" rx="1.2202" ry="1.2202"/><rect class="cls-7" x="24.9048" y="51.8326" width="2.0369" height="6.3464" rx="1.0185" ry="1.0185"/><rect class="cls-2" x="28.3812" y="51.8326" width="2.4403" height="6.3464" rx="1.2202" ry="1.2202"/><rect class="cls-7" x="28.3812" y="51.8326" width="2.0369" height="6.3464" rx="1.0185" ry="1.0185"/><path class="cls-7" d="M18.604,65.1996c4.8909.4134,10.2742.8233,15.14.4133,1.6769-.1028,3.4065-.2915,5.4968-.4133-.9545,1.875-2.5591,3.2408-4.3707,4.1802-5.3858,2.7924-13.235,1.4024-16.2661-4.1802h0Z"/></g><path class="cls-4" d="M20.7112,59.0702c-3.1258,1.4113-6.2516,2.8227-9.3773,4.234-3.3711,1.9473-10.1812-4.1993-10.1956-14.2844,0,0,0,0,0,0,.0141-10.0852,6.8242-16.2319,10.1956-14.2844,3.1258,1.4113,6.2516,2.8227,9.3773,4.234,3.4554,1.8822,4.8447,6.3078,4.9565,10.0504h0c-.1117,3.7425-1.5011,8.1683-4.9565,10.0504Z"/><path class="cls-12" d="M15.3788,49.0198c-.1088,3.7608-1.4838,8.1629-4.9565,10.0504-3.3984,1.9404-9.248-2.3428-9.2841-10.0504.0361-7.7077,5.886-11.9908,9.2841-10.0504,3.473,1.8874,4.848,6.2896,4.9565,10.0504Z"/><path class="cls-6" d="M12.6974,49.0198c-.0782,2.7021-1.0661,5.8651-3.5612,7.2211-2.4415,1.3942-6.6451-1.6832-6.6706-7.2211.0256-5.5378,4.229-8.6153,6.6706-7.2212,2.4952,1.3562,3.4833,4.519,3.5612,7.2212Z"/><path class="cls-7" d="M8.3813,48.7123c-.0212.7399-.2918,1.6061-.9752,1.9775-.6684.3818-1.8195-.4609-1.8267-1.9775.0068-1.5165,1.158-2.3593,1.8267-1.9775.6832.3714.9539,1.2375.9752,1.9775Z"/><path class="cls-8" d="M28.8635,53.3134c-2.4778,1.1187-4.9554,2.2375-7.4332,3.3562-1.257.6949-3.9064-1.9007-4.2168-6.0378-.0817-1.0732-.0817-2.1511,0-3.2242.3105-4.137,2.9597-6.7327,4.2168-6.0378,2.4778,1.1187,4.9554,2.2375,7.4332,3.3562,1.2846.6789,1.8052,2.3046,1.7293,3.7009-.03.3946-.03.7909,0,1.1855.076,1.3962-.4448,3.022-1.7293,3.7009Z"/><path class="cls-4" d="M39.8421,59.0702c-3.1258,1.4113-6.2516,2.8227-9.3773,4.234-3.3712,1.9474-10.1814-4.1992-10.1956-14.2844,0,0,0,0,0,0,.0141-10.0852,6.8241-16.2318,10.1956-14.2844,3.1258,1.4113,6.2516,2.8227,9.3773,4.234,3.4554,1.8822,4.8447,6.3078,4.9565,10.0504h0c-.1116,3.7425-1.501,8.1683-4.9565,10.0504Z"/><path class="cls-12" d="M34.5097,49.0198c-.1086,3.7608-1.4834,8.1629-4.9565,10.0504-3.398,1.9404-9.2486-2.3428-9.2841-10.0504.0356-7.7077,5.8859-11.9908,9.2841-10.0504,3.4727,1.8874,4.8479,6.2896,4.9565,10.0504Z"/><path class="cls-6" d="M31.6932,49.0198c-.0782,2.7021-1.066,5.8651-3.5613,7.2212-2.4417,1.3942-6.645-1.6833-6.6706-7.2212.0256-5.5378,4.2291-8.6154,6.6706-7.2212,2.4951,1.3562,3.4832,4.5191,3.5613,7.2212Z"/><path class="cls-7" d="M27.3614,48.7123c-.0215.7399-.2919,1.6061-.9752,1.9775-.6683.3818-1.8196-.4609-1.8267-1.9775.0071-1.5165,1.158-2.3593,1.8267-1.9775.6835.3714.9537,1.2375.9752,1.9775Z"/></g></svg>