<?xml version="1.0" encoding="UTF-8"?><svg id="Layer_2" xmlns="http://www.w3.org/2000/svg" viewBox="0 0 457.2207 221.6681"><defs><style>.cls-1{fill:#ad5984;}.cls-1,.cls-2,.cls-3,.cls-4,.cls-5,.cls-6,.cls-7,.cls-8,.cls-9,.cls-10,.cls-11,.cls-12,.cls-13,.cls-14,.cls-15,.cls-16,.cls-17,.cls-18,.cls-19,.cls-20,.cls-21,.cls-22,.cls-23,.cls-24,.cls-25,.cls-26,.cls-27,.cls-28,.cls-29,.cls-30,.cls-31,.cls-32,.cls-33,.cls-34,.cls-35,.cls-36,.cls-37,.cls-38,.cls-39,.cls-40,.cls-41,.cls-42,.cls-43,.cls-44,.cls-45,.cls-46,.cls-47,.cls-48,.cls-49,.cls-50,.cls-51,.cls-52,.cls-53,.cls-54,.cls-55,.cls-56,.cls-57,.cls-58,.cls-59,.cls-60,.cls-61,.cls-62,.cls-63,.cls-64{stroke-width:0px;}.cls-2{fill:#473019;}.cls-3{fill:#464020;}.cls-4{fill:#7676b7;}.cls-5{fill:#e9c375;}.cls-6{fill:#65c5b2;}.cls-7{fill:#ac7c9e;}.cls-8{fill:#461c22;}.cls-9{fill:#b791ac;}.cls-10{fill:#908833;}.cls-11{fill:#462015;}.cls-12{fill:#e9a94a;}.cls-13{fill:#464035;}.cls-14{fill:#53a966;}.cls-15{fill:#6e8f3c;}.cls-16{fill:#ea723c;}.cls-17{fill:#f4e37b;}.cls-18{fill:#dce689;}.cls-19{fill:#c7559e;}.cls-20{fill:#c6dc6f;}.cls-21{fill:#ca9f48;}.cls-22{fill:#6b9055;}.cls-23{fill:#f3ddbc;}.cls-24{fill:#b7b7b7;}.cls-25{fill:#479058;}.cls-26{fill:#ecefaf;}.cls-27{fill:#6463ac;}.cls-28{fill:#454724;}.cls-29{fill:#f1bf8c;}.cls-30{fill:#f58257;}.cls-31{fill:#63aca7;}.cls-32{fill:#ab9b9f;}.cls-33{fill:#ad8e72;}.cls-34{fill:#f2f1f1;}.cls-35{fill:#c79672;}.cls-36{fill:#f4dbab;}.cls-37{fill:#f6b864;}.cls-38{fill:#8cac4a;}.cls-39{fill:#a4a4d2;}.cls-40{fill:#907940;}.cls-41{fill:#3f3d47;}.cls-42{fill:#b6a3cf;}.cls-43{fill:#a99f3c;}.cls-44{fill:#62bd60;}.cls-45{fill:#c7b9db;}.cls-46{fill:#bbcaac;}.cls-47{fill:#ea5653;}.cls-48{fill:#d1c2cd;}.cls-49{fill:#1e2147;}.cls-50{fill:#a98d4c;}.cls-51{fill:#90775d;}.cls-52{fill:#f398aa;}.cls-53{fill:#aac843;}.cls-54{fill:#c8a9b3;}.cls-55{fill:#518e8f;}.cls-56{fill:#f4888b;}.cls-57{fill:#81a965;}.cls-58{fill:#908182;}.cls-59{fill:#cab736;}.cls-60{fill:#904868;}.cls-61{fill:#f29881;}.cls-62{fill:#472942;}.cls-63{fill:#f2e3a4;}.cls-64{fill:#eada5e;}</style></defs><g id="Layer_1-2"><path id="Mom_Body" class="cls-3" d="M384.7064,214.8795c-5.4503,3.0167-10.8929,3.0167-16.3437,0-.4763-.2614-.8531-1.0882-.8397-1.811.4755-25.5422-.0511-50.112-4.6469-69.1554-.3124-1.2647-.0004-3.1055.7326-4.0177,8.3454-10.4573,17.5061-10.4573,25.8517,0,.7325.912,1.045,2.7531.7326,4.0177-4.5959,19.0435-5.1221,43.613-4.647,69.1554.014.7229-.3633,1.5495-.8397,1.811Z"/><g id="Mom_Head"><path class="cls-14" d="M358.7892,90.684c7.4142-3.9817,13.0156-1.4971,14.8403,1.5977-.8827.2955-3.4817,2.9892-3.4167,3.7803.003,1.7124-.0648,3.4626-.0526,5.212.0238,1.2083,1.9589-.0116,2.8769-.2607,2.987-1.056,6.2504-.9378,9.2385.2686.8831.2798,3.2241.8284,3.8616.0457.7137-1.0761,1.3412-2.216,1.7786-3.5055.3392-.6537-1.4182-3.3504-2.3219-3.893.9834-4.8687-9.6591-20.299-27.7962-10.2685-3.6897,2.2525-5.7342,4.9381-4.9733,4.9143,1.4263.2202,2.1307,1.312,2.428,2.8392.193.7197,1.7492.2264,3.5367-.7303Z"/><path class="cls-25" d="M373.6301,92.282c-.0012-.0191,1.9816-.3552,3.3867-.3144.6792.0112,1.1545-.6355.8281-1.5031-1.7693-4.1754-7.3246-8.2756-17.4127-4.3267-1.943.8479-3.7039,1.9067-5.541,4.0861.0758.3183.3195.8427.3626,1.1895.1532.89,2.0514.0386,3.5351-.7283,6.3453-3.5191,12.191-1.9357,14.2281.7691.4079.489.6107.8289.613.8278Z"/><path class="cls-44" d="M377.4903,91.8513c-.0013-.0149,1.6783-.0794,2.2979.2066.2712.1241.2641-.1875-.073-1.2823-1.9066-5.4529-9.6871-10.4915-20.618-4.9592-2.1246,1.057-4.8434,3.4438-4.8236,3.4606.2981.2295.4967.5521.6157.944-.0358.0565,3.1528-3.2682,7.2786-4.7172,5.9348-2.7085,14.2956.2997,15.2092,4.8766.2484.7828.1105,1.4717.1133,1.4709Z"/><path class="cls-17" d="M398.2704,121.0923c-.4828-.0474-.6351,17.6387-5.7211,23.1917-.169.2428-1.4938,1.212-1.9647,1.2115-.2874-.0014-.5757-.0028-.8641-.0042-.4537-.002-.7514-.1893-.7142-.4515.0747-.5573.1366-1.114.1833-1.6707-.6433.8553-1.308,1.6049-1.9215,2.21-.235.249-1.8512,1.2436-2.3459,1.2448h-.9088c-.4778,0-.7544-.1889-.6689-.4548.0492-.1576.0967-.3156.1423-.4732-.8582.4268-1.7253.8073-1.8827.807-.2746-.3356-.553-.6718-.8392-1.0082-.0589.0776-.118.1552-.1782.2328-.2412.2556-2.3797.775-2.7179.775-.9247-.1121-1.8505-.2245-2.7818-.3365-.2844-.0003-1.6864-1.8667-1.6722-2.1231.1932-.4461.3677-.8922.5246-1.3383-.5395.7018-1.117,1.4033-1.7328,2.1043-.2617.2649-.7978.4536-1.2799.4544-.3083.0004-.6169.001-.926.0016-.4623,0-2.272-.8381-2.2796-1.0995.0663-.5154.1056-1.0309.1208-1.5462-.222.3939-.4529.7874-.6929,1.1803-.2149.2733-.8424.7958-1.2709.7377.1028-.0471-5.1388-3.5883-5.6723-3.6268-.1001-.0295-.4747-.1146-.6056-.4941-.6797-8.6655-3.7309-16.9913-4.8799-25.1846-.1067-.2849-.1044-.5984-.0036-.9185,3.1332-5.1528,4.4888-10.0869,6.3654-15.1431.0322-.2363.2558-.4399.5398-.4884.1812-.0309.3639-.0614.5482-.0916.2887-.0475.5629.0744.6553.2923.1776.4703.3667.9403.5664,1.4101.197-.7448.4076-1.4924.6406-2.2433.0573-.3096.3855-.9336.8611-.9313.2185.0009.7361.0536.9741.1133.0995.0233.4632.0866.6806.5006.6406.5113,1.3123,1.0292,2.0132,1.5554.233-.6123.4825-1.2261.752-1.8405.0345-.2971.2835-.8846.6693-.8468.1779.0181.5957.1053.787.1795.0802.0307.3732.1176.5585.5352.1538.2771.312.5547.4742.8326.0721-.1936.1461-.3872.222-.5809.0277-.3006,1.3062-1.2051,1.7314-1.1472.1902.026.6394.1322.8456.215.0858.0344.3984.1347.5922.5618.2731.3872.5542.7759.8422,1.166.2344-.1443.4772-.2849.7305-.4191,1.4634-.7819,1.9906-2.3808,2.6381-2.3583,1.2673.0515,2.4068,1.5514,2.7264,1.6989.5308.2504,1.2042.5695,1.8625.9033.1767-.3226.3593-.6438.5486-.9633.1121-.2943.6486-.8245,1.3481-.6705.3205.069,1.0714.2873,1.4078.4212.1411.056.6627.2385.9243.7157,3.578,4.4848,7.4977,9.1687,10.3835,13.5648,1.1892,2.9425-.3776,9.2667-.3353,9.6382Z"/><path class="cls-64" d="M362.1046,113.3349c.0384.3055.0674.6202.0844.9243.6064,9.4006,4.4872,19.2924,5.6683,27.9052.0116.245-.018.6787-.0188.6785.0529.0349-1.0525-2.9084-1.1461-3.0001-.0173-.0246-.0756-.091-.1624-.4462.0772.0016-.9513-4.3209-2.5068-9.6208-1.5643-5.2756-2.7751-11.3956-3.4082-14.3256-.0839-.3141-.3746-2.0131-.3685-2.3331.7837-4.6564,1.5437-8.795,3.0191-12.3612.041-.1971.1367-.2091.1366-.2092-.0002-.0001-.0406.2305-.0399.2819.0006.2717-.0075.4997-.0274.7059-.8863,3.6193-1.1445,7.5762-1.2303,11.8004Z"/><path class="cls-64" d="M390.9261,113.9038c-.1196-.3377-.2385-.688-.3455-1.0274-1.6617-4.5007-3.9233-9.0277-6.2477-13.3307-.131-.2823-.3646-.8311-.292-.7865.0331.0202.1326.1122.1924.1842.0253.0303.1047.1165.3208.5168,1.5817,2.3859,3.1636,4.9002,4.5873,7.4806,1.4203,2.7127,2.6048,4.9598,2.6964,5.3111,1.147,4.0453,2.4524,10.6401,2.3095,16.4493.0716,5.8526-2.169,11.0393-3.9427,13.4117-.1344.2134-.7677,1.0255-.7959,1.0074-.0135-.0114-.0263-.0229-.0399-.0343-.0215-.0178.0764-.1931.2272-.4213,6.0072-8.9667,4.2326-18.5502,1.3301-28.7609Z"/><path class="cls-64" d="M386.6704,116.2708c.1347-.5033-6.9192-12.3891-7.233-12.4853,0-.0075-1.3898-1.6089-2.2418-3.1876-.3803-.7075-1.1761-2.0286-1.1601-2.0374.023-.0269.7515,1.1023.8251,1.2073.32.4617.8675,1.2521,1.1068,1.6365,1.6876,1.9784,3.4484,4.1332,5.1532,6.4291,1.6716,2.7289,4.7904,9.7824,4.8004,10.1434-.0905-.0269,2.1516,5.6759,2.2212,11.7074.4514,6.056-3.03,12.4607-5.5967,15.089-.185.2349-1.0312,1.1542-1.0493,1.1474-.0054-.0039-.0117-.0075-.0173-.0114-.0092-.0061.1445-.1856.3611-.4336,8.5207-9.2678,6.7094-19.012,2.8304-29.2046Z"/><path class="cls-64" d="M370.0821,114.3881c-.1391-.3577-1.2905-5.6054-1.3419-5.9361-.0408-.0144-.4556-5.6235-.3239-8.1729.0033-.4301.1416-.8137.1418-.8137,0-.0002.0952.2382.107.3198.0172.1231.0359.2718.0394.5232-.1912,3.7047,2.6858,13.0411,2.7425,13.065.1248.343.2429.6972.3464,1.0405,2.6624,8.526,5.5978,17.25,3.3421,25.8882-.0285.2575-1.0989,2.595-1.1819,2.6041.0026.0008-.2474-.5491-.2092-.7477.0702-.0464.601-2.8709.5759-3.1311,1.3528-8.2065-1.6006-16.5192-4.2383-24.6392Z"/><path class="cls-64" d="M379.7903,114.2744c-.1306-.3753-4.0569-6.8459-4.2386-7.1068-1.1925-2.5894-2.3639-5.1468-3.3479-7.6693-.1284-.2596-.4234-1.0369-.375-.9928.0215.0206.0912.1072.1359.1751.0189.0279.0764.109.2676.4765-.0706-.0282,2.8157,5.2079,4.4975,7.9778.186.2878,2.9146,4.0039,3.0785,4.3678,1.8694,3.6569,6.1025,12.0013,6.3655,19.1871.7382,7.1721-4.0979,13.471-4.1479,13.4659-.1618.2512-1.2289,1.5755-1.2636,1.571.1766-.3016.3424-.6021.4983-.9015.0724-.0076,1.9383-2.889,1.9778-3.1371,4.8229-9.1732,1.2678-18.3919-3.4483-27.4137Z"/><path class="cls-63" d="M362.8323,113.7892c.0391.3083.0735.6263.1032.9338.5688,9.1281,4.0817,18.8883,4.9363,27.5369.017.2483-.0118.6908-.0121.6904.0584.0288-.7471-3.1414-.8283-3.2357-.0119-.0278.0028-.081-.0735-.4466-.031.0469-.6896-4.2753-1.9028-9.4099-1.2136-5.1169-2.4614-11.02-2.8257-13.882-.0681-.3098-.3326-1.978-.347-2.2929.0944-4.6567.3679-9.0011,1.4295-12.9438.038-.2055.0915-.2444.0919-.2446.0002.0003.0028.2644-.0009.3141-.0211.2651-.0618.5349-.0868.745-.6988,3.8373-.7129,7.9417-.4839,12.2351Z"/><path class="cls-63" d="M392.1358,114.0922c-.1078-.3448-.2177-.7032-.3224-1.049-1.8999-4.6574-4.536-9.2776-7.2314-13.5445-.1352-.2835-.5461-.7454-.5461-.7444.1014.0652.203.1307.3047.197.0006.0004.0948.1436.357.5035,1.8597,2.3725,3.7282,4.9341,5.4022,7.6023,1.2644,2.7859,2.2003,5.0677,2.2972,5.4185,1.1826,4.0682,2.2305,10.668,1.9559,16.4126-.075,5.801-2.4183,10.852-4.156,13.2417-.1313.2141-.7433,1.0445-.7617,1.0343-.0066-.0061-.0141-.0121-.0208-.0178-.0114-.0098.096-.1768.249-.4037,6.2302-8.7449,4.7534-18.2845,2.4725-28.6505Z"/><path class="cls-63" d="M384.0043,109.4648c-.159-.4153-3.9297-5.5834-4.1265-5.8344-.0008-.0128-1.7303-1.4921-2.604-3.0481-.3904-.7009-1.1873-2.0225-1.1752-2.028.0141-.0213.7343,1.1156.8052,1.2213.3115.4674.8724,1.057,1.1084,1.443,1.7263,1.9515,3.5299,4.0887,5.2797,6.3765,1.6646,2.7427,4.8016,9.8236,4.8145,10.1872-.0911-.0281,2.1187,5.7635,2.1508,11.8407.4184,6.1082-3.1346,12.5252-5.6921,15.1546-.1834.2354-1.0245,1.1574-1.0392,1.1521-.0043-.0026-.0079-.0052-.0124-.0079-.0063-.0045.1504-.183.3668-.4302,10.3765-11.1984,5.8337-23.515.1241-36.0269Z"/><path class="cls-63" d="M371.7518,114.6836c-.1375-.3523-1.6664-5.5743-1.7263-5.9066-.0471-.0088-1.2987-5.636-1.3954-8.2125-.0358-.4322.0356-.8231.0354-.823-.0004.0008.0469.2319.0575.314.0148.123.0319.2712.0545.5243.093,3.7299,3.1412,13.0546,3.1939,13.0784.1185.3421.2371.6967.3483,1.0388,2.5138,8.4233,5.2145,17.0468,2.8211,25.6198-.0204.256-1.1704,2.667-1.227,2.6709.0033-.0004.2624-.6926.3163-.8921.0735-.0495.8636-2.8971.8454-3.1559,1.6679-8.1147-.9121-16.2795-3.3237-24.256Z"/><path class="cls-63" d="M379.5022,114.4367c-.1216-.3665-3.8489-6.8886-4.0374-7.1566-1.1584-2.618-2.3002-5.2115-3.2545-7.7757-.131-.2589-.4204-1.0368-.3841-.9845.0154.0244.0538.1275.0931.1993.0165.0297.0329.1345.2209.5042-.0705-.0066,2.2554,5.562,3.8776,8.2813.182.295,2.5245,4.0697,2.6885,4.416,1.8973,3.5558,6.2012,11.4798,6.7738,18.4218,1.0141,6.9088-3.1303,13.0461-3.176,13.0353-.1516.2521-1.0544,1.4632-1.0756,1.4621.17-.2522.3326-.5037.4886-.7549.0813-.0041,1.8546-2.886,1.8875-3.1351,4.1536-8.9216.5715-17.8652-4.1022-26.5131Z"/><path class="cls-63" d="M380.8675,113.4738c-.1346-.3876-4.3582-6.6829-4.5333-6.9271-1.4041-2.4156-2.7702-4.7581-3.9664-7.0241-.1282-.2524-.459-.9845-.424-.9337.0154.024.0713.1158.1094.1856.0168.0291.0633.113.2475.4736-.0637-.0377,2.9875,4.7804,4.5863,7.5183.1743.2787,3.0397,3.7208,3.2084,4.0826,1.8777,3.5785,6.074,12.0351,6.3844,19.2701.7795,7.2331-3.9921,13.5319-4.0441,13.5284-.1342.2451-1.43,1.8871-1.4646,1.8854.3128-.3998.607-.7984.8841-1.1968.0763-.0038,1.8361-2.811,1.8724-3.0528,4.9353-9.1398,1.6033-18.4637-2.86-27.8095Z"/></g><path id="Mom_Body-2" class="cls-13" d="M94.5929,206.7209c-7.4339.2393-15.4947.2393-22.9285,0-.651-.0318-1.1164-.6853-1.0446-1.4443,2.2879-27.0158,1.9299-51.0416-5.9175-73.92-.5471-1.5482-.3022-3.3406.6407-3.8725,10.6869-5.4519,24.8842-5.4519,35.5712,0,.943.532,1.1878,2.3242.6407,3.8726-7.8474,22.8784-8.2055,46.9045-5.9175,73.92.0717.7594-.3935,1.4127-1.0445,1.4443Z"/><g id="Mom_Head-2"><path class="cls-57" d="M61.4682,74.6081c4.6792,4.0371,13.8686,3.6455,17.4674,7.0749-1.1171.2837-5.1976,2.4497-5.1789,2.9915.2337,1.164.2632,2.1606.0724,3.0283-.0932.466,5.5277-.4026,7.4387-.0387,6.912.5372,10.4341,3.4573,12.7954,3.7684.7253.2895,2.0345-1.2546,2.0979-2.9592-.0059-1.9209.0462-3.7843.1749-5.517.186-.8958-1.8389-2.022-2.842-2.1094,1.9187-6.9427-12.5661-11.4977-20.8396-17.2439-.3774-1.7757.5918-3.0206-1.6525-1.7266-4.0831,2.5744-6.6347,5.2798-8.7431,7.6031-1.0563,1.1435-1.8128,3.8675-.7906,5.1285Z"/><path class="cls-22" d="M78.9367,81.6833c.0204-.0228,2.9871-.2696,4.7946-.2792.8972-.0027,1.1951-.7236.5476-1.6062-2.7619-4.9434-10.9644-5.9159-17.8079-9.5409-.9978-.9804-1.5126-2.0084-2.2773-2.8462-.5613.5151-1.5033,1.592-1.9354,2.0707-1.2779,1.3116-1.6961,4.139-.7911,5.1278,3.6993,3.8336,12.5964,3.4508,16.2732,6.3385.7577.4371,1.1947.7362,1.1963.7355Z"/><path class="cls-46" d="M84.2985,81.2665c.0186.0038,2.0589-.2087,2.826-.0414.3564.0858.2006-.259-.4957-1.3896-2.7899-6.2803-13.4109-7.38-19.3453-11.6482-1.0042-.9808-.8425-2.9695-.7044-3.0221-.8957.8038-1.6723,1.554-2.3783,2.238-.0962.0573.201,2.3422,3.276,3.6639,4.137,1.8384,13.8989,4.022,16.1827,8.6917.532.7963.6365,1.5104.639,1.5076Z"/><path class="cls-36" d="M110.387,111.232c-.9396-.0949,1.068,19.5986-4.8705,23.5669-.1959.1989-1.9163.7999-2.5836.6696-.4051-.0822-.8109-.162-1.2175-.2399-.6395-.1223-1.0805-.3853-1.0587-.6411.0406-.5448.0626-1.0933.0648-1.646-.7966.7101-1.6472,1.3098-2.4514,1.7806-.3011.1926-2.4999.8515-3.2087.772-.431-.054-.8617-.1049-1.2927-.1529-.6798-.0753-1.0851-.2987-.9805-.5491.0598-.1482.117-.2966.1711-.4455-1.185.295-2.3997.5725-2.6235.5565-.4061-.3576-.8147-.7132-1.2314-1.0666-.08.0709-.1613.1418-.2432.2126-.3277.2142-3.3516.6036-3.8356.6127-1.3158-.1302-2.63-.2313-3.9492-.3033-.411.0043-2.3392-1.7258-2.3034-1.972.2841-.4489.5395-.8953.7682-1.3396-.7658.7167-1.5947,1.4459-2.49,2.1926-.3791.2848-1.144.5278-1.8237.5916-.4342.0401-.8693.0836-1.3049.13-.6561.0585-3.1334-.447-3.1172-.6979.1362-.5233.2332-1.0417.2949-1.5549-.3386.4306-.6923.8651-1.0618,1.3033-.3223.313-1.2516.9653-1.8472,1.0065.1022-.1068-6.7218-2.3309-7.3965-2.1821-.1322-.0016-.6315.0239-.754-.3324.2775-8.7693-2.7268-17.0641-3.8735-26.1167-.1234-.307-.1122-.6542.0194-1.0135,3.9759-5.8425,5.5332-10.9447,7.6662-16.0586.0299-.241.302-.4372.6568-.4708.2264-.0216.4547-.0427.6853-.064.3611-.0329.7108.1045.8352.3299.2417.4857.4953.9703.7603,1.4535.2217-.7474.4596-1.4943.7232-2.2406.0598-.3097.4482-.9216,1.0473-.8969.2752.0112.9286.0858,1.2295.1545.1257.0271.5854.1042.8713.5235.8196.5302,1.6739,1.0607,2.56,1.5927.2784-.6003.577-1.2003.9008-1.7994.0367-.2918.3353-.8636.821-.8185.2238.0215.7506.115.9918.1905.1012.0315.4708.1212.71.532.1974.2733.3996.5462.6065.8193.0874-.1888.1772-.3772.2696-.5658.0293-.2932,1.6212-1.1659,2.1566-1.1089.2392.0258.8039.1298,1.063.21.1081.0334.5015.1304.7461.5451.3444.3757.6973.7518,1.0584,1.129.2926-.1424.5962-.2812.9127-.4147,1.8295-.7771,2.503-2.3484,3.3192-2.3418,1.5976.0178,3.0103,1.4431,3.4081,1.5778.6627.227,1.5028.515,2.322.8171.228-.3255.4647-.6505.7103-.9752.1474-.2958.838-.8468,1.7171-.7346.4026.0506,1.3441.2221,1.7647.3344.1766.0473.8289.1954,1.1425.6576,4.3596,4.2599,9.0824,8.9204,12.6643,13.8033,1.4275,3.2998-.2238,10.3086-.1195,10.6779Z"/><path class="cls-5" d="M65.3236,102.6922c.0429.3126.0741.6351.0894.9469.5495,9.7346,4.7264,19.1408,5.7599,27.4175-.0027.2408-.0784.6759-.0793.6759.0652.0268-1.2135-2.6949-1.3279-2.7701-.0215-.0215-.095-.0764-.1834-.4146.1033-.0185-.9357-4.1123-2.5644-9.2384-1.6274-5.0906-2.8439-11.3135-3.5749-14.3327-.0944-.32-.4201-2.0777-.4102-2.4134,1.0334-4.905,1.8795-9.1702,3.6083-12.7369.0448-.1983.1638-.207.1639-.2073,0-.0002-.0432.2322-.041.2843.009.2754.0061.506-.0128.7148-.9986,3.6452-1.2596,7.7206-1.4276,12.074Z"/><path class="cls-5" d="M101.0161,103.002c-.1535-.3526-.3051-.7172-.4413-1.0695-2.1085-4.6833-4.8342-9.1768-7.6636-13.3331-.1591-.2739-.441-.8061-.3509-.765.0411.0186.164.1055.2377.1741.0308.0289.1288.1107.3919.4978,1.935,2.2959,3.8549,4.7507,5.5981,7.3515,1.7357,2.7305,3.2197,5.0934,3.3374,5.4614,1.434,4.1933,3.29,11.3504,3.6521,17.527.632,6.2786-1.6026,11.1227-3.7977,13.0686-.1583.1841-.9398.853-.9823.8277-.02-.0148-.0393-.0298-.0593-.0446-.0319-.0232.0843-.1773.2664-.3723,7.0639-7.5398,3.3889-18.7567-.1885-29.3237Z"/><path class="cls-5" d="M95.7784,105.2336c.1002-.6301-8.6342-12.3508-9.0049-12.36.0003-.0078-1.7183-1.5489-2.779-3.0744-.4721-.6834-1.4685-1.9609-1.4492-1.9701.0292-.0262.941,1.0653,1.0317,1.1663.3994.4457,1.0803,1.2079,1.377,1.5786,2.0959,1.9033,4.2639,3.9729,6.3696,6.2251,2.037,2.6303,5.9966,9.8069,6.0466,10.2139-.1185-.0608,2.8049,5.9087,3.3538,12.1608,1.0604,6.3578-2.874,12.0713-6.3508,14.2268-.2404.2007-1.3708.9797-1.3989.9716-.0082-.0047-.0169-.0093-.0251-.0137-.0135-.0074.1927-.1622.4812-.3743,11.1013-7.5019,7.1075-18.3432,2.348-28.7507Z"/><path class="cls-5" d="M75.1781,103.3722c-.1625-.3403-1.5619-5.4851-1.6342-5.8174-.0414-.011-.5874-5.559-.4873-8.0781-.0044-.4251.1598-.8015.1604-.8013,0-.0002.1237.2369.1402.3175.024.1217.0498.2689.0594.517-.1297,3.6869,3.4034,12.823,3.4596,12.8208.1524.3323.2962.6757.4224,1.0086,3.1551,8.2468,7.0201,16.6501,3.9379,25.1167-.0352.2476-1.5534,2.5734-1.6757,2.5917.0034.0005-.3279-.5197-.2698-.7155.1029-.0515.8925-2.8319.8589-3.0828,1.9054-8.0566-1.844-15.9988-4.9718-23.8773Z"/><path class="cls-5" d="M87.2155,103.103c-.1727-.3829-5.0312-6.6512-5.2545-6.8969-1.477-2.5064-2.9356-4.9884-4.193-7.4576-.1627-.254-.5419-1.0156-.481-.9725.0271.0203.1155.1054.1722.1721.0238.0271.0972.1072.3403.4672-.0758-.0173,3.5507,5.0795,5.6183,7.7474.2296.2748,3.6049,3.8737,3.8108,4.2355,2.2946,3.5035,7.6539,11.9251,8.4375,19.2331,1.4535,7.2938-4.6915,12.8012-4.8563,12.8209-.2095.2263-1.6547,1.4199-1.7076,1.4155.2378-.2796.4593-.5587.6658-.837.1147-.007,2.5679-2.6276,2.5953-2.8618,5.9179-8.3846.5828-18.341-5.1479-27.0659Z"/><path class="cls-23" d="M66.2157,103.1195c.0438.3134.0803.6373.1115.9503.4985,9.3886,4.283,18.7044,4.8584,27.0788.0039.2434-.0705.6867-.0713.6864.0757.0201-.7784-2.9817-.8783-3.0633-.0135-.0256.0101-.0808-.0645-.4315-.0454.0487-.5979-4.1193-1.8313-9.1127-1.223-4.9646-2.5193-10.8929-2.9136-13.8235-.075-.313-.3684-2.016-.3827-2.341.1923-4.808.4567-9.2907,1.6542-13.2519.0408-.207.1067-.2446.107-.2447.0001.0005.0122.268.009.3182-.0181.268-.0608.5401-.0858.7526-.7577,3.8724-.7267,8.0981-.5126,12.4821Z"/><path class="cls-23" d="M102.5175,103.2431c-.1391-.3638-.281-.7399-.4143-1.1025-2.4098-4.9049-5.5866-9.4922-8.8794-13.5973-.1636-.275-.67-.7146-.6699-.7135.1259.0603.2518.121.3782.1822.0005.0003.1159.1382.4373.4833,2.2823,2.2719,4.5553,4.7643,6.6066,7.4667,1.5393,2.826,2.7196,5.2352,2.8436,5.6035,1.4803,4.2445,3.0375,11.431,3.2368,17.5183.4532,6.2047-1.941,10.8699-4.0854,12.8466-.1542.1857-.9044.878-.9321.8633-.0099-.0076-.0208-.0156-.0308-.0231-.0168-.0127.1131-.1561.2984-.3489,7.4037-7.2385,4.0403-18.3468,1.2112-29.1785Z"/><path class="cls-23" d="M92.4163,98.4071c-.2005-.4318-4.852-5.4627-5.096-5.6908-.0005-.0129-2.1409-1.43-3.2286-2.9331-.4849-.6766-1.4822-1.9547-1.4676-1.9605.0182-.0207.919,1.0784,1.0067,1.18.3887.4514,1.0864,1.0178,1.3793,1.3902,2.1444,1.8761,4.3655,3.927,6.526,6.1708,2.0269,2.6433,6.0064,9.8525,6.06,10.2637-.12-.0628,2.7641,6.0029,3.2713,12.3022,1.026,6.4128-3.0014,12.1204-6.4665,14.2787-.2379.2016-1.3607.9832-1.3842.9774-.0061-.0034-.0119-.0062-.0179-.0095-.0093-.0052.2009-.1588.4893-.3698,13.3087-9.0316,5.568-23.4081-1.0718-35.5993Z"/><path class="cls-23" d="M77.2451,103.6046c-.1642-.3348-2.0328-5.4192-2.1127-5.7522-.0504-.0009-1.6207-5.5367-1.8037-8.0909-.0522-.4273.028-.8121.0282-.8118-.0005.0007.0633.2297.0779.3107.0211.1215.0451.268.0778.5182.2195,3.716,3.9571,12.8155,4.0113,12.8159.1449.3314.2894.6749.4253,1.006,2.9788,8.1478,6.5672,16.4679,3.2944,24.8695-.0235.2453-1.6535,2.6467-1.74,2.6594.0052-.0008.3808-.6903.4588-.8873.1092-.055,1.2383-2.8609,1.2111-3.1099,2.2846-7.9476-1.06-15.8079-3.9284-23.5276Z"/><path class="cls-23" d="M86.8588,103.26c-.1611-.3723-4.7731-6.6903-5.0053-6.9435-1.4341-2.5348-2.8567-5.0522-4.0775-7.5619-.1657-.2534-.538-1.0156-.4923-.9645.0199.0239.0691.1251.1191.1955.0211.0287.0431.1319.2823.4941-.076.0014,2.8576,5.4303,4.8522,8.0498.2252.2833,3.1224,3.9364,3.3279,4.2777,2.3321,3.4048,7.7559,11.3367,8.8853,18.3973,1.7417,7.035-3.4463,12.5184-3.5912,12.5151-.1952.2286-1.4037,1.3239-1.4362,1.3224.228-.2307.4451-.4612.6516-.6915.1252-.0008,2.4301-2.6251,2.4493-2.8628,4.9949-8.2488-.2691-17.8779-5.9653-26.2276Z"/><path class="cls-23" d="M88.5472,102.3281c-.1777-.401-5.4036-6.5074-5.619-6.7335-1.7381-2.3357-3.4374-4.6033-4.9554-6.8215-.1626-.2465-.5852-.9645-.5409-.9146.0196.0236.0904.1138.1392.1822.0212.0285.0807.1109.3149.464-.0682-.0267,3.7606,4.6603,5.7261,7.2983.2158.2659,3.7594,3.5972,3.9704,3.9573,2.3048,3.4282,7.6021,11.9602,8.449,19.3373,1.5062,7.3792-4.5096,12.8866-4.6753,12.9017-.1686.2214-1.9126,1.6981-1.967,1.6972.4253-.363.8214-.724,1.1903-1.0856.1186-.0004,2.4078-2.5475,2.4324-2.7783,6.0274-8.3131.9564-18.4281-4.4646-27.5047Z"/></g><path class="cls-24" d="M288.831,48.072c0-10.3184-13.5189-18.683-30.1954-18.683s-30.1954,8.3647-30.1954,18.683c0,10.1234,13.0151,18.3604,29.2556,18.6683l2.4763,4.9728,2.4645-5.1264c14.7839-1.2119,26.1943-9.0363,26.1943-18.5148Z"/><path class="cls-24" d="M408.4302,44.0054c-2.5526-6.2357-12.7918-7.9465-22.87-3.821-10.0782,4.1255-16.1788,12.5249-13.6262,18.7606,2.5043,6.1179,12.4075,7.8761,22.2984,4.0446l2.7267,2.3927.2212-3.7077c8.6346-4.3896,13.5947-11.9409,11.2499-17.6691Z"/><path id="Body" class="cls-62" d="M173.98,203.3711c-7.0834,4.8065-14.3664,4.8065-21.4499,0-.6168-.4177-1.2438-1.4543-1.4016-2.2617-5.3163-28.591-17.6339-59.1355-9.8206-76.3205.4801-1.2065,1.9736-2.2594,3.1716-2.3553,13.8172-.649,23.7335-.6489,37.551,0,1.1983.0963,2.6916,1.1484,3.1716,2.3553,7.8133,17.185-4.5044,47.7294-9.8206,76.3205-.1573.8069-.7849,1.8449-1.4016,2.2617Z"/><g id="Head"><path class="cls-33" d="M151.7467,74.9922c4.9754-1.8865,3.1613,3.0314,4.4064,7.1177-.493-.6547-2.561.5582-2.42,1.7053.1965,1.9723.7453,4.1629,2.1965,6.9689,1.0897,2.0115,3.3985,2.2142,4.2735,2.2427,3.1399.2376,5.9632,0,9.0496-.33,1.0084.0317,2.5891-.7229,1.4953-1.7324-1.0881-.8129-2.0214-1.5169-2.812-2.2453-.337-.2557-1.1148,1.3068-1.9039,1.1407-1.7033-1.506-4.2681-3.9104-4.8009-7.8485-.5816-3.4602.9163-8.5627.0324-10.898-.4332-.8259-1.8803-.56-2.4863-.5087-1.4198.3029-2.6007.7306-6.2564,2.9238-1.935,1.291-2.1939,2.1886-.7742,1.4638Z"/><path class="cls-51" d="M156.1535,82.1107c.016-.0471,1.1434,1.3023,2.1369,2.6643.502.632.7104.5002.4639-.4025-1.3389-4.3877.3539-9.6917-1.1075-12.2111-.3963-.3594-.6527-.6643-2.535-.1178-.5453.2704-1.7561.9447-2.5909,1.4851-2.3424,1.5964-1.93,2.0759-.7765,1.4654,4.4556-1.7932,3.375,2.2565,4.2,5.9573.11.6939.2103,1.1593.2092,1.1593Z"/><path class="cls-35" d="M158.6147,85.1099c-.0248-.0108,1.2446,1.475,1.9321,2.1686.3152.318.1031.0375-.3931-1.0357-2.7261-5.5136-.0268-11.915-1.7965-14.5443-.3485-.4645-1.4342-.5332-1.4491-.5219-.4973.2164-1.0674.4937-1.7899.8635.05.0063,2.2387-.6153,2.7678.5439,1.008,1.35-.3541,7.1529.5719,11.3017.1346.7615.1595,1.2226.1568,1.2242Z"/><path class="cls-9" d="M131.7074,103.4629c-.0576.0993,2.4654,5.4594,4.749,11.5319,2.3811,6.1165,4.374,12.9287,5.6915,17.0322.1273.3346,1.3075,1.9091,1.9153,2.0691.3893.097.779.1898,1.1689.2798.611.1429,1.1649.0045,1.3235-.3184.3398-.6858.6743-1.3701,1.0031-2.0508.3044,1.1841.5979,2.2659.8907,3.1648.1216.3631,1.3055,2.0053,1.93,2.1183.3954.0669.7914.13,1.1877.1894.6233.0939,1.1833-.1131,1.335-.4856.0918-.2201.1838-.4393.2745-.6582.7252.7063,1.4691,1.3467,1.6758,1.3666.708-.4336,1.4085-.8794,2.1009-1.3326.0042.1145.0083.2287.0123.3433.0733.3903,2.36,1.2702,2.8056,1.266,1.3321-.1463,2.66-.335,3.98-.5599.4568-.0234,3.7214-2.9662,3.7762-3.3169.0447-.6254.0904-1.239.1364-1.8423.2798.9211.5676,1.8608.8635,2.8196.1477.3588.6916.5684,1.2989.4893.3879-.0496.7756-.1032,1.1632-.1593.6126-.0828,3.309-1.7051,3.4047-2.0701.1579-.7136.3189-1.4113.4836-2.0966.1165.4814.2363.9669.3577,1.4564.1409.3294.6642.9129,1.2055.7153.1903-.1549,6.9216-6.0939,7.2914-6.2208.1115-.0633.5245-.2798.7059-.7568,1.5134-10.0154,4.7349-19.3206,8.211-29.7047.2407-.4234.278-.7655.1047-.9988-5.8378-2.1247-10.951-4.3771-15.2147-7.2209-.0938-.1766-.5467-.1795-1.0773-.023-.3388.1-.6745.1965-1.0079.289-.522.1455-.9827.4101-1.107.6444-.2361.4961-.4692.9865-.7006,1.4709-.4777-.5022-.9499-1.0138-1.4198-1.5367-.1327-.2346-.727-.6075-1.4664-.4067-.343.0955-1.1258.3393-1.4693.4705-.146.055-.678.2336-.9326.6465-.8503.6266-1.6804,1.2218-2.4929,1.7906-.443-.4537-.8886-.9175-1.3379-1.3918-.0939-.2446-.4992-.7039-.9928-.6217-.2283.0397-.7528.1606-.9835.2405-.0966.0336-.4576.1337-.6179.5007-.1447.2459-.2885.4894-.4313.7314-.1279-.1587-.2567-.3179-.3857-.4789-.097-.2413-1.8022-.9942-2.2985-.9703-.2257.0169-.7467.0904-.9768.1477-.095.0248-.4531.0914-.6001.4441-.2476.3125-.4939.6211-.7392.9263-.3075-.1488-.6223-.298-.9476-.4482-1.8939-.879-2.773-2.4489-3.515-2.5801-1.4773-.2623-2.5388.7214-2.8739.7508-.5711.0525-1.2962.1032-2.0052.1508-.2816-.3683-.5659-.7415-.8521-1.1191-.1918-.3207-.9163-1.0458-1.7252-1.2405-.3707-.0869-1.2363-.2643-1.6232-.3215-.1612-.0213-.7653-.1362-1.0064.17-3.5815,2.2599-7.7459,4.0687-12.4789,5.7086-2.0601,1.8473,2.0004,10.6556,2.2331,11.0063Z"/><path class="cls-7" d="M179.6177,100.2815c.0304.2677.0779.5383.1383.7961,1.2715,8.3413-1.1138,18.1286-4.6785,29.3036-.0884.3224-.2038.891-.2045.8925.0188-.005,2.0176-3.9496,2.0547-4.0227.0233-.0316.0994-.1261.2509-.5655-.0278-.0218,1.6778-5.3139,2.9714-10.9005,1.4162-5.6548,1.9453-11.6328,2.283-14.4998.063-.318.1455-1.9428.0609-2.208-2.3842-3.4587-5.3989-5.927-8.5837-8.0361-.1103-.1377-.2683-.0991-.2692-.0981-.0006-.0006.115.1664.1259.2072.0586.2199.1236.3978.2067.5521,2.3264,2.4237,4.294,5.1778,5.6441,8.5791Z"/><path class="cls-7" d="M143.2387,100.908c.0493-.2727.0872-.5625.1142-.8419.7285-3.6116,1.9793-6.8159,3.6753-9.8697.0844-.2106.2352-.6232.1597-.6115-.0354.005-.1332.0508-.1868.0939-.0222.0175-.0971.0659-.2601.3493-1.311,1.5684-2.507,3.1979-3.5661,4.9699-.9907,1.9026-1.9893,3.4886-2.0105,3.7892-.3252,3.3907.165,9.5005,1.5868,15.6519,1.3146,6.0877,3.2925,12.5545,4.1775,15.8211.0783.283.4498,1.4083.4928,1.3941.0266-.0104.0533-.0209.0807-.0313.0426-.0162.0253-.2502-.0408-.5592-3.0868-12.1001-5.0771-21.5419-4.2227-30.1559Z"/><path class="cls-7" d="M150.4869,104.601c-.2255-.5294,3.2733-9.1785,3.6599-9.243.0009-.0044,1.02-1.1295,1.5461-2.3676.2231-.5498.8223-1.5934.8093-1.6056-.0403-.0224-.6048.8619-.6553.9399-.2501.3563-.6492.954-.8027,1.245-1.3331,1.4365-2.5595,2.9102-3.6977,4.4914-.8592,1.9317-1.8997,7.4023-1.8553,7.7702.0359.0121-.2992,4.531.4095,10.625.5676,5.9382,2.1427,14.2872,2.8946,18.2255.0578.3337.3255,1.6883.3451,1.6853.0114-.0037.0231-.0083.0338-.0126.0172-.0073-.0117-.2735-.0697-.6352-2.7265-13.6925-3.5693-23.0065-2.6175-31.1185Z"/><path class="cls-7" d="M169.3938,103.5352c.0238-.3083-.733-4.4541-.7802-4.7118.0176-.0115-1.6798-4.2863-2.372-6.3522-.1094-.3454-.3759-.6322-.3763-.6317,0,.0003-.0733.2122-.0695.2816.0061.1028.016.2276.0732.4313.9226,3.0312,1.5317,10.3721,1.4917,10.4089-.0021.2753.0069.5597.0277.8338.3927,6.8403.4108,14.1881.0018,25.0966-.0076.2968.2079,3.3383.2556,3.3714.0006-.0003.577-.781.6177-1.0439.0143-.1029.4231-3.7112.4421-3.9874.5593-9.9879.7729-17.0363.6882-23.6966Z"/><path class="cls-7" d="M158.1782,103.9029c-.014-.2889,1.635-5.2018,1.7823-5.4267.3071-2.0126.7327-4.0509,1.3104-6.181.0872-.2195.2787-.8818.2317-.8441-.0213.0178-.0892.0944-.1291.1532-.0175.0241-.0713.0968-.219.4091-.0581.0275-1.9178,4.3353-2.5639,6.3972-.1105.2333-1.6463,2.9963-1.6723,3.2675-.6249,2.8027-1.4305,8.9516-1.295,16.2543-.0178,7.0731,1.0626,16.1896,1.0233,16.2026.0327.3468.2512,2.2758.2794,2.2798.053-.4397.1065-.8736.1619-1.3009.0106-.0523-.2721-4.0694-.2784-4.354-.7108-12.3112-.1748-19.9745,1.3687-26.8572Z"/><path class="cls-48" d="M178.6687,100.9886c.038.2637.0812.539.1302.8029,1.4743,7.9669-.476,17.4983-3.7681,28.7174-.0972.3273-.219.912-.2204.9128.0222-.0186,1.7528-4.1972,1.7727-4.2641.0155-.0356.0123-.0984.1552-.5489.0696.0191,1.4198-5.2237,2.2935-10.5279.974-5.3675,1.3423-10.9927,1.1281-13.5569.0228-.2946-.0367-1.8048-.1052-2.0676-1.4355-3.7865-3.6233-6.7793-6.2244-9.4041-.1063-.1469-.2029-.1494-.2029-.1503-.0003.0002.0517.2158.0681.2536.0933.2031.2214.3973.3135.5527,2.0806,2.6888,3.702,5.7017,4.6596,9.2803Z"/><path class="cls-48" d="M141.3908,100.474c.041-.2888.0803-.5871.1126-.8778,1.2497-3.6311,3.0493-6.6859,5.2139-9.5437.0924-.2071.4758-.4702.4756-.47-.1066.02-.2121.0402-.318.0606.0004.0004-.0808.0951-.3077.3211-1.6548,1.4361-3.2249,2.944-4.6839,4.6342-.8312,2.0342-1.4906,3.7888-1.5221,4.0894-.4683,3.3964.3488,9.7155,2.0149,15.8707,1.5638,6.1158,3.7292,12.4477,4.5533,15.7238.0734.2851.4001,1.4236.424,1.4185.0137-.0064.0284-.0105.0419-.0162.021-.0089-.0119-.2356-.0827-.5435-3.4604-11.8775-6.1394-21.4921-5.9219-30.6669Z"/><path class="cls-48" d="M150.9417,99.2648c.0305-.3084,2.4743-3.9161,2.6348-4.1186.0027-.004,1.4657-.9585,2.0214-2.1792.2378-.5423.837-1.5863.8291-1.594-.0294-.0177-.5815.8741-.628.9533-.2354.3613-.7131.7876-.8645,1.0787-1.3952,1.405-2.6879,2.8525-3.8974,4.4056-.8588,1.9432-1.937,7.4268-1.8957,7.7971.0349.0123-.2224,4.6223.5727,10.768.6515,5.9972,2.3138,14.3711,3.0516,18.3095.0551.3349.3127,1.6913.3269,1.6899.0077-.0031.0164-.005.0237-.0087.0121-.0045-.0218-.269-.08-.6313-3.4358-16.633-4.1949-27.0876-2.0946-36.4703Z"/><path class="cls-48" d="M167.5478,103.9964c.0137-.2946-.3664-4.4321-.4051-4.6918.017-.0022-.6943-4.4317-1.1116-6.5606-.0634-.3545-.2471-.6579-.2459-.6583.0006,0-.0101.1976-.0019.2658.0105.1027.0238.2247.0585.4332.5987,3.095,1.066,10.4191,1.0247,10.4556.0061.2723.016.5568.0288.8303.5544,6.7262.7215,14.0172.4834,24.8404-.0125.2941.2575,3.4308.2717,3.4615.0005-.0021.044-.9315.0672-1.1931.01-.105.146-3.7282.1597-4.0021.2353-9.8727.1207-16.776-.3296-23.1809Z"/><path class="cls-48" d="M158.585,104.0497c-.0217-.2862,1.3699-5.2563,1.5223-5.484.2536-2.0365.6276-4.1015,1.1573-6.265.0907-.2168.2744-.882.2445-.8374-.0139.0208-.0387.1095-.0717.1713-.0148.0253-.0126.1143-.1551.4302-.0572.0382-1.1336,4.6218-1.7185,6.6664-.1051.237-1.1475,3.1037-1.177,3.3643-.6711,2.7396-1.7395,8.5698-1.8951,15.5363-.2971,6.7361.4324,15.4191.3952,15.4275.0314.3429.2189,2.0707.2308,2.0774-.0027-.363-.0087-.7223-.0101-1.0764-.006-.0476-.3379-3.9966-.346-4.2757-.4961-11.7401.1776-19.1273,1.8234-25.7349Z"/><path class="cls-48" d="M156.5552,103.1713c-.0102-.2944,2.1069-4.9947,2.2504-5.2096.6356-1.8594,1.3836-3.7194,2.2726-5.6397.09-.212.3306-.8388.3013-.7952-.0138.0198-.0622.1009-.0935.1603-.0124.025-.0541.0983-.1927.4048-.0515.019-2.2433,3.979-2.835,6.0163-.0992.229-1.9331,2.7477-1.9679,3.0128-.696,2.7328-1.3924,8.9484-1.1186,16.2128.1135,7.05,1.3788,16.0654,1.3395,16.08.0257.3271.3081,2.6995.3223,2.7119-.0396-.5858-.0768-1.1632-.1106-1.7303-.0044-.0457-.3036-3.9153-.3103-4.1913-1.1501-12.1637-1.0076-19.92.1425-27.0327Z"/></g><path id="Body-2" class="cls-28" d="M284.6058,212.6795c-7.502,2.7198-13.9254,2.7198-21.4274,0-.6504-.236-1.3922-1.1263-1.6418-1.955-8.5459-29.9908-21.1849-53.3014-22.4949-75.6987-.0752-1.5495,1.2308-4.282,2.8897-5.8938,19.0035-19.5884,44.9178-19.5885,63.9214,0,1.6585,1.6118,2.9654,4.3445,2.8897,5.8938-1.31,22.3975-13.9486,45.7077-22.4949,75.6987-.2495.8281-.9916,1.7191-1.6419,1.955Z"/><g id="Head-2"><path class="cls-31" d="M301.0995,75.1538c-5.3983-10.1768-17.8971-6.8657-21.0191-1.3708,1.8463-.4735,6.1109,3.1446,5.2937,4.4449-.9924,2.3636-2.1756,4.8183-3.4748,7.2865-.9737,1.6545-3.4962.6105-4.6389.4462-3.7726-.7381-7.63-.5503-11.2784,1.054-.9481.5531-3.6335,1.4083-4.7972.3365-.809-1.0589-1.4175-1.9624-2.0138-2.8664-.1597-.4525,4.001-.5781,4.8033-1.0677-.4721-2.0899-.9248-4.9231.2269-11.1398,1.0361-5.4882,6.1808-15.9445,17.6334-16.1942,4.7819-.0733,11.0971,3.4581,13.4702,5.2216,5.0213,3.6024,9.0392,8.4928,8.574,13.6677-.4605,2.5008-1.8936,2.4354-2.7792.1814Z"/><path class="cls-55" d="M280.0791,73.7837c-.0056-.1059-3.8113.8174-5.922,2.3289-1.0429.6583-1.7253.4566-1.4814-.7099.9297-5.0314,7.0118-16.6495,21.9391-11.8694,2.5048,1.0976,5.2846,2.4135,8.6485,7.1091.5317,1.1861.7618,3.2097.6147,4.3299-.5544,3.0295-2.0473,2.0287-2.7788.1851-4.1439-8.7491-16.2212-7.7433-19.7917-2.7256-.7976.8006-1.2242,1.3534-1.2283,1.3519Z"/><path class="cls-6" d="M273.4322,76.4472c-.0439-.031-2.4159,1.6181-3.0655,2.473-.3212.3761-.3093.0629-.172-1.2572.277-5.8034,6.4722-20.8629,23.1912-15.7593,3.0685.9761,7.5163,4.5023,7.4539,4.5453,1.0044,1.2931,1.8486,2.698,2.4192,4.1802.2287.1305-4.6906-6.2554-10.9528-7.8036-9.3663-3.5744-19.0822,6.4785-18.9436,11.9993-.1711,1.0128.0746,1.618.0698,1.6223Z"/><path class="cls-18" d="M239.5604,108.83c-.0467.1413,3.0237,3.9035,5.8423,9.0392,2.9233,5.0869,5.5884,11.4565,7.3749,15.3075.166.2993,1.5042,1.4687,2.1108,1.3899.3896-.0613.78-.1207,1.169-.1779.6099-.0883,1.1368-.4417,1.2633-.8529.2705-.8736.5442-1.7394.8206-2.5946.394,1.1919.7704,2.2806,1.1301,3.1729.1511.3546,1.4329,1.7983,2.0402,1.7645.3864-.0312.7732-.0607,1.1598-.0881.6078-.0435,1.1364-.3837,1.2638-.8226.0775-.2597.1551-.5187.2323-.7758.745.6322,1.4933,1.2199,1.6946,1.2106.6676-.5825,1.3355-1.1587,2.0021-1.7237.0072.1246.0138.2503.021.3752.0866.4019,2.3271,1.207,2.7552,1.2119,1.2913-.1979,2.5826-.3756,3.8723-.5295.4277-.039,3.7267-2.8544,3.8111-3.1895.0691-.6771.1375-1.3416.206-1.9942.2471,1.0555.4945,2.1364.7406,3.2427.129.4211.6513.7553,1.2511.805.3835.0323.7665.0662,1.1499.1026.5986.0308,3.3719-.9161,3.5027-1.2549.2145-.726.43-1.4333.6474-2.1234.0804.5672.1596,1.141.2387,1.7197.1131.4108.5748,1.2409,1.1248,1.2391.1579-.2859,7.511-3.4654,7.9404-3.1793.1199-.0032.5629.0109.8027-.3944,2.6887-9.9231,6.3868-17.9216,11.0747-25.9226.3001-.2345.3724-.5652.2047-.9752-6.1745-7.6329-11.5402-13.6116-16.1151-19.4073-.0879-.2639-.6053-.5231-1.2292-.6145-.3979-.0584-.7918-.1139-1.1832-.1665-.6125-.0828-1.1649.0277-1.327.2563-.3128.4957-.6178.9886-.9171,1.4778-.5083-.8105-1.0133-1.6269-1.5174-2.453-.1352-.339-.7964-1.0356-1.6686-1.0396-.4043-.0024-1.3278.0538-1.7336.1212-.1726.025-.8.1002-1.1145.5518-1.0145.5635-1.9951,1.1316-2.9474,1.7014-.4977-.6369-1.0007-1.2806-1.5123-1.933-.103-.3186-.5656-.9497-1.1435-.8915-.2672.0277-.8806.1415-1.1501.2305-.1126.0359-.5344.1456-.7233.6027-.1697.3043-.3377.6061-.5038.9062-.1481-.2011-.2962-.4033-.4463-.6062-.1091-.3174-2.1005-1.2331-2.6815-1.1498-.2631.0369-.8693.1756-1.1362.2739-.1104.0405-.5258.1667-.6883.6289-.2805.4236-.5576.8438-.8331,1.2605-.3592-.1395-.7273-.2736-1.1087-.4023-2.2155-.7374-3.3281-2.4213-4.205-2.3653-1.7431.1381-2.8983,1.797-3.2809,1.9618-.6549.2941-1.4855.6662-2.294,1.0548-.3551-.3166-.7155-.6329-1.0821-.9483-.2509-.2951-1.1628-.8074-2.117-.5826-.4365.1007-1.4518.4004-1.9018.5752-.1874.0723-.8934.3178-1.1276.8373-3.7908,4.9818-8.1502,10.0693-13.1286,16.1952-1.9741,3.8176,3.1296,9.6459,3.3696,9.9419Z"/><path class="cls-20" d="M292.2854,98.2141c.0177.3197.0542.6516.1054.9755.9197,10.1352-2.0491,19.349-6.503,30.2659-.113.3196-.2722.9005-.273.9018.0143-.0156,2.3358-3.5585,2.3827-3.6055.0257-.0254.111-.097.2981-.5129-.0277-.0438,2.1126-5.0854,3.7836-10.524,1.8044-5.4505,2.6708-11.7322,3.2265-14.7401.0867-.3159.2837-2.082.2101-2.4338-2.3741-5.3801-5.5112-9.9764-8.9897-13.8919-.115-.2144-.2989-.2345-.2999-.2336-.0008-.0008.1187.2499.1285.3041.0509.2901.1121.5332.1958.7542,2.4725,3.9148,4.4534,8.1552,5.735,12.7402Z"/><path class="cls-20" d="M251.9686,98.3598c.0388-.3347.0642-.6835.0779-1.0156.5952-4.4843,1.7482-8.8623,3.43-13.3362.0792-.2928.2166-.863.1312-.814-.0403.0225-.1481.1232-.2057.2006-.0234.0314-.1059.1249-.2675.5444-1.3632,2.5121-2.5709,5.0546-3.6163,7.6811-.959,2.7389-1.9518,5.1105-1.9547,5.4639-.1212,4.0435.717,10.5457,2.527,16.604,1.6947,6.037,4.1543,12.2911,5.2882,15.5629.0996.2801.5571,1.3815.5988,1.3518.0255-.0206.052-.0412.0782-.0617.0414-.032.007-.282-.0824-.5974-4.0007-12.1626-6.4627-21.3559-6.0046-31.584Z"/><path class="cls-20" d="M260.0772,99.6518c-.2773-.5032,3.3284-11.5935,3.7834-11.7902-.0003-.0085,1.1203-1.5744,1.6891-3.1833.2392-.7142.9015-2.1041.8869-2.1172-.0475-.0224-.6739,1.1653-.729,1.2703-.2776.4823-.7162,1.2897-.8826,1.6752-1.478,2.0118-2.8065,4.0935-4.0192,6.2911-.8853,2.5595-1.8379,9.1813-1.7787,9.5669.0405.0057-.1784,5.259.7697,11.7897.789,6.4057,2.7696,15.1252,3.7119,19.3015.0741.3531.4063,1.7851.425,1.7783.0114-.0062.0218-.0134.0323-.0204.0162-.0112-.0258-.297-.1007-.6827-3.4022-14.4218-4.5834-24.2674-3.7882-33.879Z"/><path class="cls-20" d="M280.9017,97.9088c.0341-.3364-.6895-5.3596-.7348-5.6905.0237-.0032-1.7565-5.4687-2.4974-8.1549-.1156-.4457-.4143-.8474-.4147-.8464.0003.0005-.0904.2512-.088.3375.0045.1284.0124.2842.0724.5453.9703,3.9624,1.4738,12.7043,1.4338,12.7035-.008.3194-.0037.6514.0135.9723.2867,7.9918.2144,16.171-.5213,28.044-.0135.3241.1031,3.6902.1465,3.7339,0-.0011.6087-.7544.6606-1.0334.0194-.1102.5662-3.9827.5941-4.2815.9039-10.8279,1.2474-18.6183,1.3353-26.3297Z"/><path class="cls-20" d="M268.524,97.3984c-.0249-.3233,1.7745-6.2034,1.9476-6.4875.3372-2.4137.8116-4.8981,1.4806-7.5392.101-.2713.3235-1.0952.2697-1.0488-.0246.0217-.1032.1166-.1499.1892-.0204.0301-.0828.1199-.2536.5077-.0785.0378-2.1926,5.3808-2.8855,7.8807-.1261.284-1.8073,3.7015-1.8281,4.0242-.6562,3.3737-1.4474,10.5726-1.1838,18.6432.0966,7.8483,1.4276,17.6593,1.3831,17.6938.0415.3761.3072,2.4678.3348,2.4699.0404-.4878.0826-.968.1266-1.4417.0084-.0587-.3646-4.4319-.3764-4.7421-.9782-13.3879-.5003-22.0196,1.1349-30.1494Z"/><path class="cls-26" d="M291.204,98.5136c.0274.3189.0597.6528.0991.9764,1.1862,9.8028-1.295,19.0328-5.472,30.0882-.1222.3228-.2889.9178-.2905.9186.021-.0258,2.0844-3.9351,2.1112-3.9866.0187-.0322.0192-.1024.1978-.5361.07.041,1.8309-5.1048,3.0239-10.4886,1.3035-5.4055,1.9637-11.437,1.878-14.4464.0404-.3174.0618-2.0509.003-2.3873-1.3487-5.0729-3.5459-9.7362-6.3202-14.0236-.1104-.2233-.2209-.2673-.2206-.2682,0,0,.0433.2834.0594.3358.0918.2853.2236.5741.3174.8004,2.173,4.1314,3.759,8.4679,4.6135,13.0174Z"/><path class="cls-26" d="M249.9183,98.8617c.0271-.3488.0524-.7086.0694-1.0555,1.1441-4.8147,2.8954-9.3548,5.1218-13.8266.088-.2937.5035-.7916.5037-.7909-.1204.0732-.2393.1472-.3587.2218.0005.0003-.0841.1531-.3238.534-1.7648,2.5234-3.395,5.1469-4.8788,7.9414-.7585,2.825-1.3626,5.2008-1.3767,5.5589-.2687,4.1309.9448,10.632,3.0207,16.5574,1.9708,5.9234,4.614,11.9685,5.6852,15.2726.0951.2848.5083,1.4151.532,1.4019.0129-.0117.0276-.0213.0406-.0321.0201-.0168-.0294-.2534-.1239-.5656-4.3813-11.7979-7.6065-20.7466-7.9116-31.2172Z"/><path class="cls-26" d="M260.3996,93.3333c.0153-.3759,2.625-5.3252,2.8084-5.6003.0018-.0135,1.6285-1.4799,2.2324-3.0673.2558-.7081.9178-2.1.9091-2.1083-.0352-.0177-.647,1.1781-.6969,1.2838-.2605.4858-.7939,1.0975-.9578,1.4846-1.5497,1.9923-2.9535,4.0688-4.2443,6.2671-.8817,2.582-1.869,9.242-1.8127,9.6309.0393.007-.0866,5.3383.9578,11.8953.8834,6.4413,2.9556,15.1663,3.884,19.346.0717.3547.3945,1.7904.4079,1.7867.0079-.0047.0156-.009.0227-.0141.0119-.0073-.0351-.2903-.1108-.6764-4.2657-17.4582-5.3779-28.5329-3.3998-40.2279Z"/><path class="cls-26" d="M278.8581,98.0388c.0204-.3239-.3109-5.2321-.3471-5.5623.019.0139-.6713-5.394-1.091-8.1131-.0629-.4479-.2659-.8543-.2644-.8544.0013.0003-.0174.2433-.0094.3287.0092.1284.0211.2816.0556.5444.5977,3.9774.9622,12.6548.9201,12.6562.0016.3173.0072.6486.0162.9676.4763,7.8788.5711,16.0261.0149,27.8332-.0183.3205.1497,3.7989.1594,3.8352.0009-.0023.0779-1.0121.1107-1.2947.0168-.1129.2729-4.0572.2932-4.3555.5288-10.7747.499-18.4931.1418-25.9852Z"/><path class="cls-26" d="M268.9739,97.5395c-.0324-.3167,1.4853-6.2351,1.6628-6.5255.2786-2.4386.6946-4.9527,1.3081-7.6355.1048-.2681.3193-1.0949.2845-1.0402-.0161.0259-.045.1362-.0834.2127-.0169.0312-.0148.1424-.1802.5342-.0722.065-1.3016,5.705-1.9381,8.1439-.1198.2904-1.261,3.7404-1.2885,4.0446-.723,3.2683-1.8304,10.1023-1.8992,17.8502-.2264,7.5199.7176,16.9108.6778,16.9345.0396.3719.2658,2.2472.2779,2.2534-.0116-.3974-.0253-.7906-.035-1.1784-.0069-.0523-.4269-4.3441-.4402-4.6495-.7404-12.79-.1042-21.1498,1.6537-28.9445Z"/><path class="cls-26" d="M266.7235,96.7135c-.0243-.3376,2.2777-6.0948,2.4468-6.3644.6991-2.2675,1.5346-4.5636,2.5596-6.9459.1034-.2628.3831-1.0413.3491-.9879-.0159.0244-.0723.1251-.1085.1989-.0143.0309-.0629.1224-.223.5028-.0716.0173-2.5634,4.9599-3.1911,7.4473-.1141.2738-2.1279,3.4635-2.1577,3.7862-.7293,3.3235-1.3853,10.6071-.968,18.6176.2457,7.8088,1.7659,17.4816,1.7199,17.5181.0343.3549.3756,2.9246.3898,2.9375-.0545-.6386-.1063-1.2672-.1541-1.885-.006-.0503-.3991-4.256-.4119-4.5575-1.4454-13.1735-1.4172-21.8337-.2511-30.2677Z"/></g><path id="Mom_Body-3" class="cls-11" d="M128.2319,212.9053c-6.5143,3.539-13.0287,3.539-19.5431,0-.5692-.3094-1.0197-1.2846-1.002-2.1337.5798-30.1399.0627-58.3365-5.559-82.7563-.3867-1.6457.0017-3.7102.9039-4.4931,10.2858-8.823,20.5716-8.823,30.8574,0,.9021.7828,1.2906,2.8474.9039,4.4931-5.6217,24.4196-6.1388,52.6164-5.559,82.7563.0177.8491-.4327,1.8242-1.002,2.1337Z"/><g id="Mom_Head-3"><path class="cls-43" d="M125.5154,64.457c-3.7878,2.4816-6.7239,5.7257-7.9901,9.4344.5705.3342,2.783,2.6161,2.9454,3.419.3087,1.8672.7558,3.7345,1.2941,5.6017.3858,1.3366-2.0519.7985-3.0591.6193-3.3889-.6005-6.6298-1.201-9.6552-1.8014-.9165-.1792-2.8754-1.449-2.8324-2.7221.0767-1.5558.2309-3.1116.5002-4.6675.1039-.8338,1.9053-2.058,2.5349-2.0923,1.5796-6.2504,7.4842-11.7166,15.0402-15.739,1.6297-.8781,2.7357-.8087,2.5563.0558-.3133,1.7506-.2685,3.4994.0699,5.2485.1469.8665-.4688,2.024-1.4044,2.6436Z"/><path class="cls-10" d="M117.5249,73.8918c-.0023,0-1.4117-.2214-2.385-.3875-.4798-.0721-.7379-.8869-.4575-1.7898,1.5217-4.678,4.4293-7.3183,9.153-10.51.9262-.6169,1.7493-1.1073,2.8682-.8873.0619.3816.1315,1.1264.2156,1.4968.2128.9996-.6273,2.125-1.4033,2.6439-3.243,2.152-6.2711,5.1984-7.6039,8.4379-.2521.6001-.386.996-.387.996Z"/><path class="cls-59" d="M114.8198,73.3108c-.0033.0061-1.1369-.3841-1.579-.2856-.2003.0526-.14-.2814.2086-1.3857,1.9989-5.6245,5.7928-8.7684,10.8213-11.8223.9907-.5834,2.3686-1.0455,2.3648-1.0413-.0258.5287-.0011,1.0409.0677,1.5363.0072.0066-1.7321.2408-3.6855,1.4837-2.7551,1.7038-6.9645,5.3394-8.0254,9.8962-.2115.8354-.1726,1.6194-.1727,1.6187Z"/><path class="cls-30" d="M144.446,100.8138c-.5835,0-.7705,21.2486-6.8367,27.6951-.2015.2854-1.7838,1.4133-2.3471,1.4132h-1.0336c-.5427,0-.8992-.2124-.8556-.5117.088-.6364.1602-1.2728.2143-1.9092-.7671.9852-1.5595,1.843-2.2917,2.5322-.2803.2855-2.2104,1.4133-2.8024,1.4132h-1.0871c-.5714,0-.9026-.2124-.801-.5117.0586-.1775.1149-.355.1691-.5326-1.0254.4821-2.0619.9085-2.2501.9085-.329-.3765-.6625-.753-1.0053-1.1295-.0702.087-.1411.174-.2128.261-.2878.2871-2.8452.8685-3.2497.8685-1.1061-.1253-2.2133-.2506-3.3271-.3759-.3401,0-2.016-2.0867-1.9983-2.3739.2314-.4983.4403-.9966.6279-1.495-.6452.7832-1.336,1.5664-2.0729,2.3496-.3133.2958-.9546.5064-1.531.5064h-1.1072c-.5529,0-2.7149-.9486-2.7234-1.2444.0805-.5801.129-1.1603.148-1.7404-.2663.4415-.5433.883-.831,1.3245-.2572.3063-1.0093.8929-1.5215.8249.1227-.0313-6.1347-4.1335-6.7741-4.2205-.1195-.0366-.5677-.1444-.7235-.5866-.7868-9.9772-4.4272-19.9543-5.815-29.9315-.129-.3585-.1259-.7292-.0032-1.086,3.8036-5.4219,5.4466-10.8439,7.7129-16.2659.0393-.2645.3081-.4525.6482-.4525.2169,0,.4357,0,.6563,0,.3457,0,.6729.188.7824.4525.2109.5674.4352,1.1347.6722,1.7021.2369-.8157.491-1.6313.7705-2.447.069-.3428.4622-.9972,1.0282-.9224.26.0348.8757.1687,1.1581.268.1181.0401.55.1601.8072.6543.7593.6573,1.555,1.3146,2.3844,1.9719.2776-.6666.5745-1.3331.8945-1.9997.0416-.3308.3372-.9677.7935-.8946.2103.0348.7045.1636.9304.2593.0948.04.4409.1567.6594.6353.1814.3196.368.6393.5594.9589.0854-.2129.1731-.4258.2631-.6387.0333-.3325,1.5442-1.2879,2.0457-1.2148.2246.0348.7547.1636.9979.2593.1015.04.4705.1567.6989.6353.3223.4351.6539.8702.9941,1.3053.2768-.1619.5636-.3203.8623-.4734,1.7276-.8946,2.3484-2.7116,3.113-2.7151,1.4959-.0035,2.8464,1.5838,3.2252,1.723.6286.2367,1.427.5326,2.2082.8371.2087-.3823.4249-.7646.6485-1.1469.1324-.3446.7675-1.006,1.599-.9293.3809.0348,1.2747.1706,1.6761.268.1683.0417.79.1636,1.1039.6613,4.2785,4.5007,9.0282,9.0014,12.5522,13.5021,1.4494,3.2302-.4583,11.1542-.4037,11.5581Z"/><path class="cls-16" d="M101.2995,93.1554c.045.3542.0789.7178.0982,1.0673.6992,10.885,5.3017,22.3158,6.6942,31.9775.0135.2762-.0232.7642-.0239.7638.0629.0422-1.2509-3.2893-1.3625-3.3973-.0207-.0283-.09-.1039-.1928-.5067.0922-.001-1.1253-4.8805-2.9682-10.9896-1.8535-6.0784-3.2839-13.2319-4.035-16.6917-.0999-.3717-.4433-2.3689-.4352-2.7369.9533-5.2395,1.8777-9.8466,3.6498-13.6638.0495-.2176.1635-.2157.1636-.2159,0-.0002-.049.2558-.0485.3143-.0004.3093-.0103.5675-.0347.7991-1.0688,3.9774-1.3899,8.4627-1.5051,13.28Z"/><path class="cls-16" d="M135.5786,93.6268c-.1446-.3705-.2878-.7556-.4169-1.1296-2.0044-4.9243-4.7188-9.7346-7.4862-14.3277-.1564-.3038-.4343-.8967-.3482-.8541.0393.0194.1575.112.2287.1866.0296.0312.1243.1198.3819.5467,1.883,2.5112,3.7743,5.1405,5.484,7.8707,1.7057,2.8807,3.1346,5.2775,3.2457,5.6684,1.3889,4.4634,2.9762,11.9538,2.8175,18.7499.098,6.8378-2.5739,12.981-4.6873,15.7101-.16.2479-.9151,1.1874-.9491,1.1664-.0161-.0128-.0317-.0258-.0479-.0386-.0258-.0201.0909-.2217.2706-.4852,7.1628-10.4219,5.0242-21.8496,1.5073-33.0635Z"/><path class="cls-16" d="M130.4993,96.8234c.1471-.5701-8.2564-13.3956-8.6151-13.5322,0-.0066-1.6462-1.7447-2.6528-3.4982-.4494-.7829-1.3897-2.2545-1.3706-2.2653.027-.0291.8878,1.2275.9746,1.3426.378.5124,1.0254,1.3845,1.3085,1.8075,1.9959,2.1687,4.083,4.4825,6.1115,6.9312,1.9867,2.9335,5.7262,10.6128,5.741,11.0314-.1095-.0277,2.5881,6.2483,2.6899,13.1696.5568,6.9482-3.5866,14.3849-6.6487,17.3244-.221.2665-1.2303,1.3041-1.2522,1.296-.0067-.0044-.0139-.0086-.0206-.0128-.0111-.007.1726-.2091.4309-.489,10.1658-10.5067,7.9625-22.0225,3.3037-33.1051Z"/><path class="cls-16" d="M110.7992,95.0636c-.165-.4028-1.5217-6.3675-1.5818-6.7483-.0484-.0176-.5287-6.359-.367-9.2152.0048-.4834.1694-.9016.1698-.9015,0-.0001.1122.2765.1261.3694.0202.14.0417.3087.0457.5916-.236,4.1757,3.1601,14.8243,3.2288,14.829.1476.3889.287.7901.4096,1.178,3.1441,9.6338,6.6495,19.3321,3.9579,28.9936-.0337.2878-1.3135,2.8978-1.4129,2.9078.0032.0009-.295-.6144-.2494-.8363.084-.052.7195-3.2068.6896-3.4977,1.6153-9.1742-1.9019-18.4267-5.0165-27.6705Z"/><path class="cls-16" d="M122.3145,95.0152c-.1586-.3987-4.8137-7.5584-5.0258-7.8722-1.4113-2.896-2.7939-5.7834-3.9542-8.6522-.1513-.2962-.4993-1.1813-.4421-1.1296.0253.0242.1075.1247.1604.2029.0222.032.0901.1261.3158.5462-.0839-.0206,3.322,5.9343,5.3144,8.9925.2188.3305,3.4535,4.4172,3.6497,4.8094,2.2156,4.0259,7.2767,13.1327,7.6139,21.273.9027,8.1326-4.861,15.2985-4.9225,15.2666-.1925.2836-1.4665,1.7709-1.5082,1.7655.2105-.3382.4084-.6752.5944-1.0115.0872-.0056,2.3117-3.252,2.3579-3.5352,5.744-10.4487,1.4518-20.8043-4.1536-30.6555Z"/><path class="cls-61" d="M102.1682,93.7662c.046.3563.0857.7229.1206,1.0771.6534,10.5274,4.8178,21.7592,5.8203,31.4645.0194.2798-.0156.7778-.0161.7772.0694.0346-.8854-3.5472-.9822-3.6571-.0138-.0317.0035-.0913-.0867-.505-.037.0494-.8133-4.8249-2.2475-10.7033-1.4345-5.8526-2.9082-12.7095-3.3356-16.0299-.0805-.3615-.3923-2.3026-.4083-2.6653.1265-5.3147.468-10.2436,1.7468-14.5577.0459-.2278.1101-.2632.1104-.2634.0001.0003.0027.3013-.002.3573-.0261.2984-.0753.5989-.1058.8341-.8456,4.2558-.8751,8.9481-.6139,13.8717Z"/><path class="cls-61" d="M137.0304,93.6627c-.1304-.3813-.2638-.777-.39-1.1592-2.2947-5.0706-5.4611-9.9095-8.6695-14.4147-.1611-.304-.6499-.7793-.6497-.7784.1204.0625.241.1253.3619.1886.0005.0004.1125.1515.4248.5272,2.2129,2.4623,4.4483,5.0933,6.4606,7.8762,1.5217,2.9833,2.6539,5.4621,2.7711,5.8518,1.4331,4.4887,2.7104,12.0422,2.3926,18.7809-.0789,6.799-2.8733,12.7832-4.9438,15.5323-.1565.2487-.8863,1.2084-.9082,1.1964-.0081-.0067-.0168-.0134-.0249-.02-.0135-.0108.1143-.2035.2966-.4654,7.4289-10.1651,5.6539-21.5996,2.8785-33.1157Z"/><path class="cls-61" d="M127.3084,89.3736c-.193-.4416-4.6733-5.987-4.9032-6.2752-.0011-.0108-2.0493-1.5948-3.0815-3.3239-.4618-.775-1.403-2.2465-1.3884-2.2536.0167-.023.8673,1.2418.9511,1.3579.368.5186,1.0312,1.166,1.3103,1.5907,2.0416,2.1365,4.1794,4.4259,6.2615,6.8586,1.9785,2.9464,5.7408,10.6516,5.759,11.0732-.1104-.0294,2.5495,6.3511,2.6066,13.3308.5176,7.0143-3.7116,14.4674-6.7628,17.4075-.2189.2672-1.2222,1.3076-1.2401,1.3013-.005-.0031-.0097-.0058-.0148-.0088-.0075-.005.1794-.2061.4377-.4851,12.3854-12.7923,6.8881-27.1958.0647-40.5731Z"/><path class="cls-61" d="M112.7808,95.467c-.1634-.3926-1.9692-6.3169-2.0389-6.7003-.0562-.0066-1.5298-6.4135-1.6385-9.3261-.0412-.4891.0435-.9219.0437-.9218-.0004.0008.0552.2649.0674.3581.0175.1395.0373.3076.0635.5941.1009,4.2323,3.7009,14.8519,3.7646,14.8559.1402.3871.2803.7876.412,1.1738,2.9691,9.4959,6.1964,19.0879,3.3401,28.6758-.0242.2863-1.3988,2.9779-1.4668,2.9823.0041-.0004.3139-.7735.3784-.9963.0882-.0553,1.0325-3.2354,1.0107-3.5246,1.9901-9.0731-1.0879-18.1581-3.9363-27.1709Z"/><path class="cls-61" d="M121.9729,95.2065c-.1475-.3911-4.5666-7.6182-4.7872-7.9381-1.3705-2.9291-2.7186-5.8564-3.8438-8.7704-.1543-.2953-.4956-1.181-.4529-1.1207.0184.0281.0635.1454.1098.2278.0195.0339.0388.1524.2605.5752-.0839-.0019,2.6596,6.3186,4.5807,9.3397.2144.3374,2.9904,4.5195,3.1862,4.8955,2.247,3.9349,7.385,12.5786,8.0909,20.4086,1.2304,7.8014-3.7061,14.7885-3.7626,14.753-.1807.2845-1.2579,1.6471-1.2832,1.6452.2027-.2831.397-.5659.5828-.8485.0973-.0017,2.2108-3.2537,2.2494-3.5381,4.9436-10.1703.6227-20.1759-4.9307-29.6293Z"/><path class="cls-61" d="M123.5916,94.0757c-.1638-.4097-5.173-7.331-5.3771-7.6269-1.6616-2.6909-3.2749-5.3344-4.6864-7.9232-.1515-.2877-.5414-1.1234-.5001-1.0649.0182.0277.0838.1333.1291.2132.0198.0332.0746.1296.292.5416-.0758-.0289,3.5259,5.4556,5.4195,8.4743.2051.3212,3.6015,4.0917,3.8034,4.4797,2.2253,3.9319,7.2436,13.1555,7.638,21.3552.9523,8.2051-4.7338,15.3864-4.7974,15.3547-.1599.2774-1.7061,2.1235-1.7477,2.1207.3733-.4485.7246-.8966,1.0551-1.3447.0916-.0014,2.1886-3.169,2.2315-3.4455,5.8776-10.4282,1.8518-20.948-3.4598-31.134Z"/></g><path id="Mom_Body-4" class="cls-8" d="M435.6355,220.9794c-9.7314.3051-20.2846.3051-30.0158,0-.8524-.0402-1.4599-.8759-1.3646-1.8459,3.0019-34.8134,2.7447-63.7039-7.7371-96.6839-.7419-2.2944-.4076-4.5167.8676-4.7468,14.4731-1.563,32.0101-1.563,46.484,0,1.275.2302,1.6096,2.4522.8675,4.7468-10.4813,32.98-10.7388,61.8704-7.737,96.6839.0956.9703-.5122,1.8055-1.3646,1.8459Z"/><g id="Mom_Head-4"><path class="cls-50" d="M432.9178,46.7791c-4.5164,7.887-8.227,12.5585-8.9896,17.0013.9915.1658,4.7784.2275,5.1395.5778.8752,1.2765,1.8925,2.2963,2.9064,3.0021.7584.5716-2.2492,3.6979-3.7361,4.4267-4.7555,3.0297-10.14,3.1609-14.3025,1.1966-1.3286-.459-3.9548-3.5508-4.1666-5.259-.2975-1.9401-.5153-3.8237-.6203-5.5909-.1292-.9478,1.5847-.856,2.4084-.5283-.1054-7.0612,6.7338-7.7255,17.8384-19.7911,2.283-2.6405,3.8462-4.3997,3.7638-3.4153-.0887,1.8804.3403,3.2308,1.0703,4.0063.3254.4018-.2241,2.4028-1.3118,4.3738Z"/><path class="cls-40" d="M423.9276,63.7811c.0012.0285-2.1784.6051-3.6918.6048-.7401.0375-1.3711-.8221-1.2267-1.819.7862-5.3537,4.6163-7.8249,10.8668-16.1441,1.1979-1.6722,2.287-3.1808,3.808-4.8199.1528.1987.3757.6628.545.8041.4311.3958-.4058,2.7452-1.3104,4.3723-3.8316,6.8572-7.6755,11.8252-8.6992,15.7946-.2045.7408-.2902,1.2065-.2915,1.2072Z"/><path class="cls-21" d="M419.6982,64.2479c-.0051.0359-1.8138-.2608-2.4261-.2215-.2767.0435-.2899-.3245-.1148-1.5229,1.1093-6.2003,6.2178-8.9881,13.022-17.8059,1.3315-1.6874,3.1363-4.1893,3.1215-4.2019.0681.4603.1999.8275.3819,1.1035.0262-.0014-2.2445,3.083-4.8668,6.2859-3.7069,4.8569-9.2055,9.774-9.3487,14.6169-.0633.9217.2317,1.7474.231,1.7459Z"/><path class="cls-56" d="M456.2708,96.0933c-1.2467-.0653,1.39,25.6701-6.3437,30.798-.2551.2577-2.5027,1.0291-3.3766.8654-.5305-.102-1.062-.2006-1.5944-.2963-.8376-.1507-1.4162-.477-1.389-.7974.0497-.6821.0762-1.3691.0757-2.0612-1.0385.9005-2.1481,1.6545-3.198,2.2445-.3931.2431-3.2671,1.0658-4.1955.9678-.5642-.0655-1.1285-.1271-1.6927-.1852-.8902-.0915-1.4214-.3644-1.2856-.6716.0779-.1822.1517-.3647.2222-.5475-1.549.3676-3.1386.709-3.4317.6904-.5327-.4367-1.068-.8698-1.6144-1.2998-.1048.0867-.2105.1732-.3177.2603-.4281.2637-4.385.7422-5.0187.7529-1.7225-.1577-3.4422-.2812-5.1685-.3703-.5384.0061-3.0577-2.1084-3.0104-2.4101.3725-.5467.7072-1.0899,1.007-1.6305-1.0023.8703-2.0881,1.7556-3.2614,2.6644-.4967.3461-1.4984.6405-2.3879.7153-.5684.0472-1.1381.098-1.7079.1528-.859.0697-4.0979-.5706-4.0755-.8825.1808-.6457.3102-1.2849.3931-1.9185-.4452.5274-.9098,1.0604-1.3952,1.5995-.4232.3835-1.6424,1.1853-2.422,1.232.1346-.1072-8.7826-3.0153-9.6677-2.873-.1732-.005-.8266.0142-.9857-.4467.4061-11.192-3.519-22.1351-5.0789-34.3134-.1651-.4295-.1516-.8827.0226-1.3218,5.2692-6.711,7.3178-12.8306,10.1266-18.7973.0388-.2973.3976-.4811.8655-.4442.2982.0233.5992.0466.9026.0695.4754.0362.9355.2802,1.0989.5874.3181.6569.6513,1.3123.9994,1.9651.2906-.8925.6023-1.78.9478-2.6612.0783-.3757.5874-1.0634,1.3721-.9274.3603.063,1.2155.2648,1.6089.3969.1643.0539.7653.2213,1.1385.7807,1.0705.7753,2.1841,1.5399,3.338,2.2933.3626-.7067.7518-1.4109,1.1733-2.1119.0477-.3546.437-1.0236,1.0682-.9203.2911.0488.976.2118,1.2893.3243.1313.0475.6118.1881.9224.7086.2564.3491.5189.6978.7874,1.0457.1136-.2243.2301-.4488.3503-.673.0383-.3531,2.1047-1.3222,2.7988-1.234.3102.0426,1.0427.1904,1.3785.2959.1403.0443.6501.1741.9673.6845.4465.4654.9041.9298,1.3719,1.393.3793-.1702.7729-.337,1.1832-.4992,2.3716-.9488,3.2447-2.8907,4.3028-2.909,2.0712-.0359,3.9059,1.6023,4.4227,1.7383.8606.2289,1.9523.5116,3.0181.8009.2966-.4214.604-.8447.9239-1.2699.192-.3788,1.0903-1.131,2.2365-1.1086.5246.0112,1.7536.0901,2.303.1634.2305.0323,1.0829.1129,1.4935.6337,5.6983,4.5776,11.9361,9.3477,16.6951,14.8005,1.8856,3.9705-.329,13.5276-.1856,13.9569Z"/><path class="cls-47" d="M397.4368,86.5858c.0562.3988.0962.8082.1163,1.2019.7132,12.3754,6.1308,24.3607,7.4442,34.5423-.0045.2976-.1057.8342-.1068.8339.0852.0369-1.5746-3.3527-1.7237-3.4529-.028-.0273-.1239-.097-.2379-.5187.1347-.0253-1.2029-5.1046-3.3138-11.6149-2.108-6.4625-3.6909-14.463-4.6502-18.3981-.1236-.4183-.5508-2.6962-.538-3.1206,1.3615-6.0347,2.4738-11.2346,4.7422-15.367.0587-.2396.2148-.2281.2151-.2285.0002-.0002-.0564.282-.0536.3475.0117.3458.0082.6335-.0165.8906-1.3096,4.3711-1.6526,9.4434-1.8772,14.8845Z"/><path class="cls-47" d="M443.9248,87.0937c-.2015-.4203-.4009-.8556-.5795-1.2768-2.7685-5.5627-6.3331-10.7376-10.0157-15.5526-.2069-.3203-.574-.9453-.4568-.9034.0535.0189.2134.113.3093.19.0399.0322.1675.1229.5102.5708,2.5189,2.6177,5.0252,5.3942,7.3081,8.376,2.2725,3.1427,4.223,5.8763,4.3777,6.3214,1.8854,5.0292,4.3338,13.8488,4.8256,21.7138.8443,7.9819-2.0597,14.2987-4.9201,16.7598-.2061.2354-1.2251,1.088-1.2809,1.056-.026-.0183-.0518-.0367-.0779-.0549-.0421-.0287.1093-.2233.3466-.471,9.2034-9.6793,4.3615-24.1419-.3466-36.7291Z"/><path class="cls-47" d="M437.0826,90.456c.1169-.7595-11.2519-14.5084-11.7225-14.5722.0004-.0071-2.2294-1.8375-3.6042-3.6951-.6117-.8283-1.9039-2.3916-1.8787-2.4037.0382-.03,1.2197,1.3046,1.3374,1.4259.5176.5434,1.4005,1.4657,1.7853,1.9126,2.7175,2.2896,5.5316,4.7129,8.2706,7.3237,2.6464,3.076,7.8238,11.555,7.8928,12.064-.1558-.0686,3.6765,7.054,4.4192,14.8575,1.4091,7.9313-3.7041,15.2347-8.2433,17.8701-.3136.2498-1.7896,1.213-1.8264,1.2026-.0106-.0058-.0221-.0113-.0329-.0168-.0178-.0091.2515-.2.6282-.4621,14.4874-9.3583,9.2023-23.24,2.9745-35.5065Z"/><path class="cls-47" d="M410.3027,88.4531c-.2107-.4201-2.025-6.839-2.1192-7.2613-.0539-.0144-.7593-6.8889-.6284-9.9782-.0058-.5232.2088-.9673.2093-.9671.0003-.0001.1609.3048.1824.4059.0312.1524.0647.3359.0771.6418-.168,4.5576,4.4166,16.014,4.4886,15.9816.1976.4141.3842.841.5479,1.2535,4.0851,10.2264,9.1235,20.4096,5.0974,30.7236-.0456.3014-2.0325,3.1288-2.1932,3.1508.0046.0006-.4279-.6354-.3514-.874.135-.0625,1.1707-3.4473,1.127-3.7531,2.4927-9.8126-2.3843-19.4639-6.4373-29.3234Z"/><path class="cls-47" d="M425.939,88.3391c-.2269-.4377-6.5323-8.0272-6.8206-8.3604-1.9152-3.0734-3.8062-6.1535-5.4378-9.2476-.2109-.3198-.7031-1.2762-.6242-1.2193.035.0266.1498.1367.2236.2219.0308.0348.1263.1378.4417.5925-.0974-.0061,4.6051,6.3891,7.2865,9.6115.2975.3494,4.6774,4.6816,4.9461,5.1039,2.9757,4.2162,9.9666,14.192,11.0204,23.1915,1.9265,8.9958-6.0814,15.877-6.3003,15.8672-.2733.2793-2.1605,1.7442-2.23,1.7381.3101-.3422.5999-.6837.869-1.0249.1509-.0051,3.3505-3.232,3.385-3.5246,7.7021-10.4689.6829-22.5688-6.7593-32.9497Z"/><path class="cls-52" d="M398.606,87.2491c.0571.3987.1044.8088.1449,1.2046.6425,11.882,5.5477,23.6875,6.2625,33.9901.0037.3004-.0952.8476-.0964.847.0988.0279-1.0042-3.6989-1.1344-3.8049-.0172-.0322.0136-.1001-.0823-.5358-.0599.0554-.7624-5.1031-2.3558-11.3893-1.5792-6.2432-3.2618-13.816-3.7759-17.5557-.0976-.4021-.4807-2.5838-.4991-2.9949.2574-6.0135.604-11.6017,2.1747-16.3269.0536-.2511.1401-.2854.1403-.2857,0,.0003.0161.3369.0119.3991-.0235.3313-.0798.6636-.1124.9244-.993,4.6998-.9529,10.0113-.6779,15.528Z"/><path class="cls-52" d="M445.8946,87.1781c-.183-.4367-.3699-.8883-.5448-1.3235-3.1678-5.7971-7.3273-10.994-11.6133-15.6912-.2131-.3203-.8718-.8086-.8719-.8076.164.0615.3277.1233.4921.1856.0006.0005.1507.1576.5693.5478,2.9714,2.5485,5.9407,5.3094,8.6299,8.3592,2.0183,3.283,3.5708,6.1247,3.7342,6.5696,1.9474,5.0909,4.0027,14.0166,4.2805,21.7908.609,7.9153-2.5042,14.0043-5.2984,16.5033-.201.2374-1.1788,1.1187-1.215,1.0998-.0131-.0094-.0275-.0191-.0405-.0285-.0222-.0154.1468-.1972.3885-.4421,9.6485-9.2975,5.2203-23.7008,1.4895-36.7632Z"/><path class="cls-52" d="M432.6932,82.3378c-.2643-.4956-6.3098-6.3712-6.6237-6.6641-.0008-.0113-2.7773-1.6729-4.1876-3.505-.6285-.8196-1.9214-2.3825-1.9025-2.3907.0239-.0236,1.1915,1.3194,1.305,1.4418.5037.55,1.4086,1.2338,1.7883,1.6824,2.7808,2.2547,5.6632,4.6496,8.4739,7.2419,2.6335,3.0885,7.8376,11.6013,7.9113,12.1154-.1577-.0712,3.624,7.1742,4.3122,15.0435,1.365,8.0072-3.8699,15.3069-8.3945,17.9449-.3105.2509-1.7766,1.2176-1.8071,1.2096-.0081-.0042-.0153-.0075-.0235-.0116-.012-.0066.2623-.1953.6388-.4566,17.369-11.3949,7.1578-29.5229-1.4904-43.6515Z"/><path class="cls-52" d="M412.9903,88.851c-.2129-.4073-2.6363-6.7417-2.7403-7.1649-.0652.0035-2.1028-6.9221-2.3409-10.0921-.0679-.5308.0368-.9949.0371-.9947-.0008.0007.0826.2891.1013.3904.0274.1517.0584.3342.1011.645.2865,4.6334,5.1355,16.025,5.2053,15.9951.1881.4114.3753.8372.5516,1.2473,3.856,10.0731,8.5365,20.1591,4.2613,30.3929-.0305.2987-2.1637,3.2179-2.2774,3.233.0066-.001.4987-.84.6012-1.0796.1434-.0668,1.622-3.4803,1.586-3.7835,2.9849-9.6791-1.3716-19.2181-5.0863-28.7889Z"/><path class="cls-52" d="M425.4759,88.5397c-.2113-.4275-6.1974-8.088-6.4969-8.4281-1.8598-3.1087-3.7042-6.2313-5.288-9.3725-.2148-.3189-.6984-1.2757-.6387-1.2102.0257.0307.0897.1574.1546.2469.0273.0367.0561.1641.3663.6219-.0983.0097,3.706,6.7935,6.2929,9.9818.2912.3583,4.0513,4.7908,4.3186,5.1927,3.0236,4.125,10.0915,13.5228,11.5936,22.1765,2.2995,8.637-4.4565,15.4862-4.649,15.4525-.2544.2821-1.8324,1.6288-1.8746,1.6264.2975-.2832.5812-.5659.8504-.8489.1644.0023,3.1691-3.2349,3.193-3.5318,6.4951-10.301-.4258-21.9567-7.8221-31.907Z"/><path class="cls-52" d="M427.6682,87.3508c-.2338-.4554-7.0182-7.7966-7.2951-8.1067-2.2539-2.8534-4.457-5.6708-6.4267-8.4705-.2112-.3104-.7594-1.2147-.7019-1.1511.0254.0301.1176.145.1806.2317.0276.036.1046.1407.4086.5865-.0877-.0141,4.8774,5.8791,7.4264,9.0592.2791.3396,4.878,4.3354,5.1531,4.7531,2.9891,4.1168,9.9001,14.2162,11.0364,23.3035,1.9957,9.1038-5.8421,16.0025-6.0623,15.9857-.2197.2744-2.4966,2.0888-2.5681,2.0863.5555-.4447,1.0726-.8882,1.5542-1.3325.1556.0024,3.1404-3.1405,3.1713-3.4283,7.8447-10.402,1.1679-22.7494-5.8765-33.5169Z"/></g><path id="Body-3" class="cls-2" d="M53.554,212.1728c-9.0673,3.9857-18.1346,3.9857-27.202,0-.7887-.3484-1.5808-1.4465-1.7603-2.403-6.2902-33.9441-11.0537-65.7-8.712-93.202.1653-1.8534,1.3574-4.1785,2.598-5.0602,14.3168-9.9366,28.6336-9.9366,42.9504,0,1.2406.8817,2.4328,3.2068,2.598,5.0602,2.3417,27.502-2.4218,59.2578-8.712,93.202-.1794.9565-.9716,2.0547-1.7603,2.403Z"/><path class="cls-24" d="M334.6355,26.9355c-16.6818,0-30.2049,8.8553-30.2049,19.7789,0,3.7469,1.5917,7.2502,4.3557,10.2366l-4.9748,9.5423,15.3465-2.7939c4.527,1.7727,9.8194,2.7939,15.4776,2.7939,16.6817,0,30.2049-8.8553,30.2049-19.7789s-13.5232-19.7789-30.2049-19.7789Z"/><g id="Head-3"><path class="cls-38" d="M29.0768,46.4829c3.219-4.1814,5.3662,4.777,6.4869,11.0343-.6834-.8593-3.0805.9574-3.1796,2.5376-.2426,2.8438-.4852,5.8423-.732,8.8784-.1671,2.1415,2.3218,2.1976,3.356,2.2481,3.4886.2251,6.8954.1341,10.5356.1387,1.0705.2148,3.4722-.6015,3.3641-2.3018-.1992-1.4096-.3836-2.569-.5561-3.7283-.0645-.4175-2.2025,1.864-2.9703,1.6271-.4482-2.2921-1.3493-5.1663-2.7943-11.2997-1.4451-5.642-3.434-14.5433-6.058-17.5408-1.1386-1.1943-2.7981-.7945-3.5085-.6475-1.4808.4951-2.8912,1.6136-4.27,6.5137-.6639,2.537-.4732,3.7541.3262,2.5402Z"/><path class="cls-15" d="M35.5642,57.5184c0-.0624,1.5484,1.8529,2.658,3.5264.542.7738.9219.5313.7707-.7289-.7937-6.0058-2.6008-16.4295-6.1851-20.1764-.6923-.5003-1.3475-1.0504-2.8693.4648-.3433.6469-.8882,2.2487-1.1878,3.3391-.81,3.0696-.3308,3.5384.3251,2.5429,2.7414-3.8753,5.0416,3.3148,6.159,9.235.2099,1.0954.3287,1.7963.3294,1.7971Z"/><path class="cls-53" d="M38.6017,61.4394c-.0017,0,1.331,1.7564,1.834,2.5584.2305.3681.183.0319-.0101-1.3741-1.1147-6.8895-3.2287-19.7954-7.1208-23.3974-.7629-.7072-2.1142-.6387-2.1154-.6085-.4076.4662-.8238,1.0978-1.2472,1.9781-.0091-.0432,1.94-1.6748,3.4529.2074,2.1942,1.845,4.8565,13.0115,5.2497,18.8775.0849,1.1033-.0438,1.7542-.043,1.7587Z"/><path class="cls-37" d="M2.3567,87.7413c-.0778.1521,2.325,5.5835,4.5424,12.0663,2.3154,6.4895,4.4452,14.0305,6.083,18.5572.1556.3594,1.6676,1.8545,2.457,1.8515.5053-.0112,1.0105-.0223,1.5144-.0327.7901-.0148,1.5069-.3364,1.7175-.7703.4509-.9219.8976-1.8346,1.3385-2.7361.359,1.3502.7169,2.5805,1.0815,3.5931.1501.4056,1.6561,2.1088,2.4536,2.1219h1.5134c.7936.0003,1.5051-.3343,1.6997-.803.1178-.2773.2355-.5533.3521-.8281.9159.7374,1.8569,1.415,2.119,1.4149.8977-.599,1.7853-1.1959,2.6616-1.7866.0049.1357.0099.2718.0144.4081.0915.4459,2.9778,1.3735,3.5399,1.3757,1.6813-.2022,3.3556-.4036,5.0225-.6007.5788-.0352,4.6902-3.2345,4.753-3.6193.0498-.7402.0997-1.4664.149-2.1803.3668,1.1323.743,2.2921,1.1273,3.4792.1905.4496.8822.7789,1.6544.7872.4932.0059.9863.0119,1.4799.0186.7781-.0053,4.2109-1.3295,4.3279-1.7263.1883-.8192.3776-1.6189.5677-2.4016.1654.6107.3329,1.2282.5016,1.8518.1901.4351.878,1.2861,1.5754,1.2105.2403-.2502,8.8477-5.0086,9.347-4.8695.1453-.0287.6878-.1068.8984-.6104,1.3124-11.6538,3.882-21.6076,6.8703-32.9028.2496-.4029.2508-.8204,0-1.2212-7.6568-6.094-13.5481-10.9006-18.4019-16.0786-.1076-.2678-.616-.4129-1.209-.3546-.3783.0371-.7531.0731-1.1248.1082-.582.055-1.0931.2983-1.229.5846-.2572.6128-.51,1.2179-.7596,1.8151-.5425-.7863-1.0758-1.5826-1.603-2.3943-.1495-.3467-.8126-.9847-1.6311-.8477-.3799.065-1.2452.2642-1.6247.3913-.1612.0518-.749.216-1.0276.745-.9361.7362-1.8494,1.4502-2.7441,2.1443-.4936-.653-.9878-1.3178-1.4857-1.9963-.1045-.34-.5526-.9977-1.0967-.9098-.2516.0421-.8295.1876-1.0836.2906-.1062.0425-.5038.1713-.6805.67-.1593.3333-.3176.6629-.475.9901-.1415-.2168-.2831-.435-.4257-.6547-.1073-.3361-1.986-1.3483-2.5327-1.2873-.2486.032-.8231.1575-1.077.2504-.105.039-.4999.1536-.6633.6457-.2745.4438-.5478.8821-.8207,1.3158-.3389-.1765-.6857-.3507-1.0443-.5227-2.0862-.9956-3.05-2.9975-3.8715-3.06-1.6327-.107-2.8175,1.4802-3.1915,1.5904-.6354.1972-1.4434.436-2.2353.6826-.3098-.4269-.6232-.8577-.9398-1.293-.2114-.3841-1.0171-1.1717-1.9225-1.1855-.4146-.0057-1.3851.0348-1.8202.091-.1812.0251-.8601.0794-1.1335.5821-4.0619,4.3482-8.8768,8.4159-14.8916,13.2138-2.73,3.6,1.1226,12.5,1.3834,12.8262Z"/><path class="cls-12" d="M58.229,79.3387c.0552.3497.1312.7084.2219,1.0544,2.1464,11.003.5384,22.0386-3.6958,34.5515-.1021.3648-.2327,1.0204-.2337,1.022.0346-.0083,2.449-4.2143,2.4811-4.2843.0281-.0314.1221-.1237.2933-.6095-.0305-.0405,1.8781-5.9125,2.9618-12.3013,1.2416-6.4216,1.2284-13.6735,1.3896-17.189.0451-.377.0014-2.4081-.1198-2.7792-3.1151-5.2983-6.6331-9.4983-10.2352-13.0797-.1257-.2114-.3018-.1961-.3027-.1951-.0006-.0007.1315.2501.1445.3075.0697.3082.1462.5622.2426.7876,2.6559,3.7876,5.0181,7.9605,6.8525,12.7152Z"/><path class="cls-12" d="M16.7229,79.8039c.0769-.3608.1409-.74.1911-1.1034,1.0931-4.8124,2.6579-9.3537,4.6054-13.8948.0983-.3043.2725-.9002.188-.8652-.0396.0158-.1493.1027-.21.1747-.0248.0295-.1096.1137-.2964.5382-1.4933,2.4529-2.8941,4.9531-4.1946,7.5853-1.2256,2.7792-2.5127,5.139-2.5599,5.5309-.61,4.4544-.6508,11.9265.5534,18.9897,1.0618,7.0286,3.21,14.2606,4.2544,17.9749.0896.3199.5319,1.5812.5884,1.5533.0344-.0192.0692-.0388.1045-.0579.0549-.0301.04-.3072-.0356-.663-3.5883-13.7809-4.7858-24.5732-3.1888-35.7627Z"/><path class="cls-12" d="M24.9345,82.7517c-.18-.578,4.0525-12.2102,4.431-12.394.0014-.0078,1.1564-1.6029,1.75-3.3084.2532-.7562.923-2.2182.9081-2.2341-.0438-.0269-.6744,1.2173-.7314,1.3262-.2797.5028-.7281,1.3429-.9024,1.7467-1.4971,2.055-2.8957,4.1619-4.2284,6.3932-1.0097,2.669-2.4624,9.7598-2.4409,10.191.0518.009-.5981,5.7292-.0692,12.9813.3465,7.1023,2.0453,16.7881,2.9891,21.3877.0688.3897.3977,1.9697.4231,1.9632.0144-.0064.0291-.0133.043-.0201.0216-.0113-.0134-.3246-.0838-.7491-3.3291-15.9247-3.5115-26.9163-2.088-37.2836Z"/><path class="cls-12" d="M46.5664,81.1102c.0094-.3706-.9741-5.7614-1.0265-6.1167.0099-.003-1.9826-5.767-2.7546-8.63-.1244-.4748-.4215-.8873-.4217-.8864,0,.0007-.0794.2798-.0748.3736.0077.1393.0193.3079.0845.5871,1.0293,4.2288,1.8851,13.6899,1.8502,13.6937.0044.3483.022.7087.0528,1.0565.612,8.6668.9673,17.5806.6905,30.5364-.0019.3532.3206,4.0054.3795,4.0504.0008-.0007.7161-.8588.7624-1.1664.021-.1204.4553-4.3725.4671-4.7008.4193-11.8539.3023-20.3859-.0095-28.7975Z"/><path class="cls-12" d="M33.7751,81.0357c-.0018-.347,1.8947-6.6798,2.0504-6.9917.3506-2.6149.8253-5.3052,1.4625-8.1749.0963-.2948.307-1.191.2553-1.1402-.0233.0238-.0983.1274-.1424.2066-.0194.0327-.0784.1307-.2416.5524-.0605.0498-2.1209,5.829-2.8675,8.5091-.1198.3092-1.8799,3.9436-1.9189,4.2884-.7365,3.6278-1.8195,11.3967-1.85,20.1827-.2255,8.5381,1.0235,19.2521.9926,19.2839.0376.4102.3037,2.6905.3402,2.6938.0686-.5281.1387-1.048.2102-1.5608.0104-.0634-.3138-4.8242-.315-5.1621-.7299-14.5814.2102-23.9301,2.0242-32.6872Z"/><path class="cls-29" d="M57.167,79.9407c.0635.3461.1337.7075.2106,1.0559,2.3185,10.5505,1.1962,21.456-2.6781,34.0895-.1136.369-.252,1.0416-.2541,1.0423.0406-.0216,2.0996-4.5888,2.1083-4.6591.0183-.0387.011-.115.1708-.6185.0994.0381,1.5439-5.8864,2.151-12.0815.7404-6.2318.6202-13.1024.1679-16.4177.0017-.3623-.1885-2.2916-.2877-2.6495-1.9787-5.2778-4.5968-9.8491-7.5526-13.9829-.1216-.2222-.2296-.2483-.2295-.2493-.0004,0,.0618.3021.0808.3563.1083.2944.2553.5844.3621.8135,2.3867,4.0851,4.3741,8.474,5.7505,13.301Z"/><path class="cls-29" d="M14.5852,79.8393c.0708-.3798.1397-.7724.1994-1.1527,1.7386-5.0373,3.9204-9.5847,6.3896-13.9943.1071-.3027.5393-.7571.5389-.7565-.1193.054-.2375.1085-.3561.1636.0002.0004-.0913.1495-.3491.5135-1.8762,2.37-3.697,4.8379-5.4626,7.5214-1.0606,2.9214-1.9741,5.3916-2.0338,5.7866-.7936,4.5186-.4961,12.1226,1.0094,19.1025,1.3651,6.9733,3.77,13.995,4.734,17.7371.083.3243.4677,1.6121.4995,1.5998.0173-.0111.0368-.0199.0543-.0301.0272-.0162-.0086-.2803-.0901-.6335-4.0983-13.4259-6.1181-24.1474-5.1334-35.8573Z"/><path class="cls-29" d="M25.6648,75.9004c.06-.3991,2.8993-5.4616,3.0683-5.7512.0044-.0106,1.6517-1.4405,2.2775-3.1224.2696-.7478.9392-2.2115.9301-2.2217-.032-.0211-.6491,1.2325-.7014,1.3426-.2636.5079-.7972,1.1266-.9691,1.532-1.5651,2.0245-3.0375,4.1126-4.4502,6.3286-1.01,2.691-2.5124,9.8164-2.4959,10.2516.0509.0101-.5212,5.833.1044,13.13.4389,7.157,2.2478,16.8577,3.1742,21.4595.0655.3914.3815,1.9746.4001,1.9714.0101-.0047.0207-.0089.0301-.0139.0157-.0071-.026-.3181-.097-.743-4.1763-19.3024-3.901-31.7152-1.2712-44.1635Z"/><path class="cls-29" d="M44.4642,81.4592c.0034-.3544-.5273-5.6641-.5715-6.0199.0142.0134-.8646-5.8069-1.3382-8.7294-.0735-.4817-.2791-.9076-.2777-.9079.0011.0002-.01.2657,0,.3579.0124.1388.0279.3043.0684.5874.6746,4.2758,1.3595,13.6808,1.3212,13.6861.0134.3449.0316.705.0525,1.0509.7818,8.5277,1.2987,17.3891,1.2341,30.2619-.0084.3494.384,4.1209.4008,4.1598.0008-.0025.0417-1.1056.0662-1.4146.0147-.1231.112-4.4293.1193-4.7556.0441-11.7558-.3994-20.1589-1.0752-28.2766Z"/><path class="cls-29" d="M34.2374,81.2039c-.013-.3412,1.5897-6.7287,1.7522-7.0462.2898-2.6431.7075-5.3669,1.2914-8.2815.1002-.2915.3027-1.1906.2694-1.131-.0153.0281-.0427.1482-.079.2316-.0161.034-.0138.1548-.171.581-.0611.0735-1.2513,6.193-1.9203,8.824-.1151.3153-1.3096,4.0279-1.3492,4.3551-.775,3.5239-2.1103,10.8881-2.4548,19.2989-.5205,8.1582.2804,18.3956.2502,18.4176.036.4051.2613,2.4491.277,2.4562-.0016-.4318-.007-.8593-.0065-1.2805-.0106-.0566-.3917-4.7317-.3948-5.0642-.4542-13.9241.6154-22.9629,2.5354-31.3613Z"/><path class="cls-29" d="M31.9365,80.2065c.0075-.3602,2.4499-6.5037,2.599-6.8005.7233-2.4403,1.558-4.9142,2.5395-7.5018.0993-.2852.3648-1.1318.3324-1.0738-.0153.0268-.0687.1363-.1032.2166-.0139.0337-.0594.1332-.2126.5467-.0527.031-2.482,5.3627-3.1695,8.0251-.1069.3002-2.2008,3.6592-2.251,4.0011-.8194,3.5623-1.7974,11.431-1.6774,20.1659-.0842,8.5087,1.3876,19.0847,1.3567,19.1182.028.387.3703,3.1899.3896,3.2041-.0478-.6953-.0912-1.3796-.1302-2.0522-.0085-.0546-.3481-4.6366-.3496-4.9651-1.263-14.374-.7341-23.7995.6763-32.8843Z"/></g><path id="Body-4" class="cls-49" d="M340.3442,218.6744c-9.1063,3.9915-18.1279,3.9915-27.2344,0-.7926-.3494-1.6015-1.4512-1.8037-2.4132-6.4326-33.7239-24.1204-68.9949-12.9862-94.0215.6845-1.6705,2.7764-3.3158,4.403-3.6363,18.6507-2.8916,29.3573-2.8914,48.0081,0,1.6273.3203,3.7181,1.9661,4.4031,3.6363,11.1339,25.0262-6.5535,60.2979-12.9862,94.0215-.2023.9617-1.0107,2.0641-1.8037,2.4132Z"/><g id="Head-4"><path class="cls-1" d="M310.5894,53.8737c5.3113-2.6917,3.0483,3.8722,5.6917,9.6233-.8691-.7774-3.4068.6516-3.1077,2.0527.4355,2.51,1.5234,5.1881,3.2831,7.7269,1.2895,1.7857,4.226,1.8505,5.4058,1.9008,4.1063.2029,7.8716.0744,11.9994-.0717,1.3887.1185,3.4384-.6121,2.1749-1.9525-1.1592-1.1079-2.0246-2.0528-2.8032-3.0105-.3079-.3378-1.5226,1.646-2.4984,1.4683-1.6737-1.8552-4.5653-4.3203-6.7406-9.5769-2.5064-4.9998-.5696-11.5713-.858-13.196-.3538-.72-2.3215-.5153-3.1675-.4766-1.7903.2688-4.3936.5764-8.5569,3.662-1.9967,1.6675-2.1431,2.6703-.8225,1.85Z"/><path class="cls-60" d="M316.2818,63.4981c-.0168-.0542,1.9874,1.6909,3.775,3.1693.8639.6843,1.1897.4781.6617-.6189-3.3391-5.4625-2.0767-13.8664-2.8128-16.091-.404-.3569-.7266-.7266-3.3046.039-.7819.3556-2.3183,1.3118-3.1893,2.0277-2.3876,2.0351-1.8888,2.5347-.8247,1.8519,4.7402-2.4706,3.3378,2.7367,5.1608,8.0482.2899.9552.5369,1.5734.534,1.5738Z"/><path class="cls-19" d="M320.6093,67.0181c-.0193.0034,2.1021,1.5445,3.0503,2.2249.4355.3134.191.0306-.5735-1.1803-5.1888-6.2828-3.3922-16.762-4.0691-18.6322-.3224-.463-1.7596-.5157-1.7849-.5027-.7466.2383-1.6154.5684-2.6218,1.0638.0279-.0173,3.0921-.8359,3.5005.4198.4798.9453-.8299,9.6664,2.0524,15.0779.3639.9614.4476,1.525.4461,1.5287Z"/><path class="cls-4" d="M285.736,93.4973c-.0758.1558,3.4443,5.8733,6.4915,12.5176,3.1894,6.6666,5.7767,14.2997,7.4848,18.8452.1665.3615,1.7013,1.8625,2.4893,1.8589.5053-.0112,1.0111-.0218,1.515-.0326.7903-.0148,1.5048-.3369,1.7108-.772.4406-.9241.8736-1.8405,1.2987-2.7452.3866,1.3563.7589,2.5897,1.1311,3.6045.1544.4066,1.6652,2.1113,2.4612,2.1239h1.5134c.7937,0,1.5051-.3339,1.699-.8032.1176-.2772.2343-.5535.3501-.8287.9188.7379,1.8596,1.4158,2.1217,1.4158.8974-.5991,1.7843-1.1964,2.6596-1.7878.0051.1358.0103.2723.0151.4085.0931.4467,2.9791,1.3745,3.5412,1.3764,1.6812-.2023,3.3555-.4034,5.0228-.6009.5757-.0344,4.6984-3.238,4.769-3.6246.0554-.7419.1115-1.4697.1686-2.1856.3568,1.1349.7233,2.2975,1.101,3.487.1877.4504.8788.7797,1.6512.7884.4931.006.9867.012,1.4807.0185.7772-.0052,4.2252-1.3325,4.3503-1.7314.2003-.8219.4048-1.6251.6137-2.4116.1527.613.308,1.2336.4666,1.8594.1828.4368.8598,1.2903,1.5595,1.2142.2109-.2437,9.0083-5.0445,9.546-4.9147.1482-.0294.6997-.1098.9415-.6204,1.9921-11.8252,6.2887-22.0618,11.2905-33.9576.3465-.4386.401-.8695.1508-1.2566-8.4052-5.4782-15.1553-9.4114-20.699-13.6295-.1224-.2312-.7082-.3112-1.3912-.2039-.4359.0683-.8671.1341-1.2942.1975-.6688.0997-1.2563.357-1.4142.6232-.2995.5673-.5952,1.128-.8882,1.6822-.6104-.6693-1.2123-1.3433-1.8098-2.0256-.1686-.2975-.9238-.8124-1.8562-.6426-.4328.0804-1.4187.3025-1.8499.4321-.1837.0538-.8521.2251-1.1701.7007-1.0659.6862-2.1039,1.346-3.1194,1.9833-.5544-.564-1.1119-1.1361-1.6735-1.7181-.1169-.295-.6237-.8569-1.2392-.7718-.2847.0407-.9386.1743-1.2258.2657-.12.0382-.5701.1527-.7698.5881-.1803.2915-.3592.5801-.5373.8676-.1599-.1895-.3195-.3802-.4807-.572-.1206-.2914-2.2453-1.1784-2.8639-1.1353-.2813.0248-.931.1248-1.2181.2004-.1186.0322-.5656.1233-.7491.5491-.3096.3813-.617.7593-.9244,1.1342-.3839-.1638-.7772-.3265-1.1839-.4886-2.3682-.9438-3.4704-2.744-4.4034-2.8413-1.8583-.1894-3.2084,1.1159-3.6341,1.191-.725.1294-1.6479.2811-2.5544.4373-.3585-.4064-.7209-.8174-1.0865-1.2338-.2446-.3608-1.171-1.1353-2.2155-1.2434-.478-.0479-1.5996-.1182-2.1042-.1185-.2095.0025-.9976-.0296-1.3151.3928-4.7069,3.467-10.2794,6.7397-17.0791,10.8877-2.9541,3.3803,2.8659,12.9491,3.1555,13.2461Z"/><path class="cls-27" d="M347.3887,85.9219c.0411.3353.1044.6791.1846,1.0103,1.7092,10.6015-1.4006,21.9377-5.9435,34.4957-.1124.3667-.259,1.0257-.2597,1.0272.0215-.0061,2.586-4.2415,2.6361-4.3145.0299-.0316.1284-.125.3227-.6148-.0373-.0376,2.1522-5.9684,3.8267-12.4246,1.8346-6.5,2.5146-13.7384,2.9496-17.192.0822-.3753.1853-2.3655.0713-2.7178-3.1882-4.9636-7.1292-8.5907-11.1958-11.5653-.1405-.1817-.3427-.1556-.3435-.1545-.0006-.0007.1471.2159.1611.2668.0755.2729.1595.497.2657.6946,2.9756,3.246,5.5419,6.989,7.3247,11.4889Z"/><path class="cls-27" d="M301.2748,86.4307c.0657-.3446.116-.7071.1523-1.0543.9633-4.5739,2.5998-8.7229,4.7814-12.6578.1091-.2666.3031-.7869.2066-.7619-.0453.0108-.1703.0801-.2392.1398-.0281.0245-.1248.093-.3344.4599-1.6852,2.0887-3.2371,4.2821-4.6237,6.6658-1.297,2.5263-2.6185,4.7279-2.6473,5.1039-.4443,4.2548.179,11.6618,2.009,18.7798,1.6911,7.0739,4.2192,14.381,5.3434,18.1105.0995.322.5731,1.5896.6282,1.5614.0339-.0194.0686-.0388.1038-.0581.0545-.0304.0337-.3085-.0502-.666-3.9175-13.8369-6.4836-24.8694-5.3298-35.6231Z"/><path class="cls-27" d="M310.56,89.597c-.2765-.6436,4.1636-11.382,4.6406-11.4485.0007-.0069,1.2821-1.4224,1.9419-2.926.2803-.6691,1.031-1.9422,1.0145-1.9554-.0502-.0257-.757,1.0565-.8206,1.1528-.3134.4379-.8141,1.1748-1.007,1.5317-1.6729,1.7973-3.2186,3.6676-4.6614,5.6894-1.0901,2.4053-2.4311,9.1373-2.3765,9.577.0459.0064-.3963,5.5048.4851,12.7188.7027,7.0494,2.6805,16.8023,3.6244,21.406.0728.3907.4087,1.9731.4337,1.9664.0143-.0063.0291-.0132.0429-.0201.0217-.0113-.0146-.3248-.0869-.7501-3.4266-15.9713-4.465-27.0533-3.2309-36.942Z"/><path class="cls-27" d="M334.2951,88.093c.0289-.3694-.9357-5.408-.9953-5.7182.0209-.0189-2.1219-5.2675-2.9898-7.7624-.1374-.4183-.4714-.7746-.4718-.7739,0,.0006-.0917.2496-.0865.3325.0077.1232.0208.2721.0923.5184,1.1585,3.6632,1.9395,12.486,1.8896,12.5273-.002.3289.0099.6696.0365.9987.508,8.2067.5494,17.0026.0553,29.9941-.0091.3534.2699,4.0147.3308,4.0601.0004-.0006.7287-.8616.78-1.17.0181-.1208.5268-4.3849.5504-4.713.6833-11.8812.9332-20.3056.8085-28.2935Z"/><path class="cls-27" d="M320.2383,88.1257c-.0161-.3499,2.0482-6.2402,2.2313-6.5038.3844-2.4005.9152-4.8311,1.6354-7.366.1089-.2611.3471-1.0494.2886-1.0042-.0262.0208-.1108.112-.1609.1818-.022.0289-.0887.1148-.2729.4864-.0714.0275-2.3913,5.1681-3.2013,7.6487-.1374.2756-2.0613,3.6263-2.0949,3.956-.7855,3.3685-1.808,10.7652-1.6508,19.4744-.0355,8.4458,1.3141,19.2339,1.265,19.2531.0409.4111.3139,2.6951.3498,2.6981.0673-.5285.1363-1.0496.2061-1.563.0136-.0624-.3382-4.8344-.3457-5.1728-.8802-14.6295-.1876-23.8325,1.7502-32.0887Z"/><path class="cls-39" d="M346.1528,86.5639c.0508.3314.1084.6775.1732,1.012,1.9651,10.1377-.561,21.3089-4.756,33.9943-.1238.3711-.2786,1.0468-.28,1.0476.0272-.0198,2.2426-4.6173,2.2696-4.6901.0201-.0392.015-.1159.1985-.6233.0895.0418,1.817-5.9421,2.935-12.1807,1.2484-6.2838,1.7095-13.1075,1.416-16.3138.0289-.3565-.0565-2.2268-.1472-2.5664-1.9005-5.011-4.758-9.0996-8.0831-12.6151-.1363-.1917-.2591-.2074-.2592-.2084-.0004-.0003.0669.2676.0877.3151.12.2578.2834.5096.4018.7099,2.6645,3.5332,4.7805,7.5225,6.0435,12.119Z"/><path class="cls-39" d="M298.8606,86.3433c.0549-.3653.1079-.7424.1518-1.1072,1.6573-4.7744,4.0157-8.8743,6.7987-12.6469.1195-.2641.6106-.6371.6104-.6363-.1367.0389-.2712.0783-.407.1181.0002.0005-.103.1263-.3952.4333-2.1257,1.9823-4.1672,4.1065-6.0862,6.505-1.098,2.6799-1.978,5.0213-2.0208,5.4002-.6363,4.3199.4248,11.9062,2.5768,18.9514,2.0205,7.0321,4.7892,14.1238,5.8349,17.8818.093.3264.5088,1.6206.5398,1.6081.0171-.0109.0368-.0199.0538-.0301.027-.0162-.0144-.2813-.1042-.6364-4.3957-13.4725-7.8784-24.4724-7.5528-35.8409Z"/><path class="cls-39" d="M311.1527,83.1313c.0428-.3892,3.1339-4.953,3.3324-5.1927.0045-.0083,1.8427-1.2565,2.5388-2.7391.299-.6611,1.0491-1.9352,1.0393-1.9434-.0365-.0204-.7284,1.0705-.7866,1.1679-.2953.4434-.8936.9796-1.0841,1.3374-1.7506,1.7651-3.3811,3.6124-4.9146,5.6133-1.0908,2.4223-2.4811,9.1833-2.4306,9.6271.0444.0072-.2993,5.608.6922,12.8692.8094,7.1057,2.8973,16.8743,3.824,21.4799.0691.3926.3931,1.978.4107,1.9745.01-.0048.0207-.0086.0301-.0139.0159-.0072-.0272-.3185-.0999-.7439-4.3215-19.3627-5.2437-31.8942-2.5517-43.4363Z"/><path class="cls-39" d="M331.9709,88.4691c.0164-.3519-.4699-5.3261-.5188-5.6385.0215-.003-.8802-5.3429-1.4051-7.9041-.0797-.4266-.31-.7981-.3087-.7984.0014,0-.0129.2355-.0019.3171.0133.1227.0298.2693.0739.52.7532,3.7227,1.3549,12.5054,1.3029,12.5468.0083.3256.0216.6662.0378.994.7096,8.076.9382,16.8168.66,29.7253-.0157.3496.3324,4.1307.3513,4.1698.0005-.0025.0539-1.1085.0825-1.4183.0124-.124.1761-4.4406.1931-4.7663.2753-11.7779.1133-20.054-.467-27.7473Z"/><path class="cls-39" d="M320.7473,88.2881c-.0263-.3446,1.7158-6.2928,1.9055-6.5611.3178-2.4279.7841-4.8901,1.4442-7.4647.1133-.2582.3424-1.0491.3046-.9962-.0176.0248-.0482.1301-.0893.2036-.0179.03-.0155.1358-.1933.5117-.0705.0439-1.4131,5.5027-2.1451,7.9491-.1313.2816-1.4357,3.7206-1.4731,4.0347-.8402,3.2805-2.1886,10.2876-2.3946,18.6118-.3845,8.0572.5229,18.3622.4765,18.374.0393.4059.2734,2.4542.2887,2.4611-.0034-.4323-.0099-.8607-.0114-1.2828-.0078-.0566-.4213-4.7418-.431-5.0748-.6095-13.9641.2539-22.8442,2.3183-30.7664Z"/><path class="cls-39" d="M318.2067,87.3238c-.0107-.3608,2.6433-6.0462,2.8207-6.2954.7955-2.2302,1.7291-4.4554,2.8372-6.7412.1123-.2526.4121-.9974.3755-.946-.0174.0236-.0778.1198-.1166.1905-.0157.0298-.0672.1169-.2401.4815-.0627.0155-2.7972,4.749-3.5399,7.2043-.123.2684-2.4204,3.3499-2.4656,3.6747-.8752,3.2957-1.7634,10.7756-1.4326,19.4295.1288,8.4094,1.7115,19.059,1.6626,19.0807.0319.3885.3852,3.1957.4033,3.2098-.0494-.6964-.0956-1.3814-.1373-2.0555-.0055-.0546-.3775-4.6467-.3857-4.9758-1.4328-14.417-1.2329-23.7085.2185-32.257Z"/></g><path id="Body-5" class="cls-41" d="M228.2977,216.4373c-9.8121,3.3477-18.2302,3.3476-28.042,0-.851-.2919-1.8195-1.392-2.1438-2.4152-11.0469-36.4594-27.5835-68.7769-29.4591-99.4042-.103-2.0681,1.6665-5.0446,3.8949-6.4316,25.654-15.9123,57.8038-15.9122,83.4576,0,2.2285,1.3872,3.9981,4.3633,3.895,6.4316-1.8756,30.6272-18.4122,62.9447-29.459,99.4042-.3243,1.0234-1.293,2.1232-2.1437,2.4152Z"/><g id="Head-5"><path class="cls-32" d="M227.7164,31.9061c-4.5118-4.9025-8.1426,4.8976-9.831,11.7643.9901-.9314,4.2804,1.1994,4.3289,2.9549.199,3.1525.3777,6.4756.5463,9.8407.1031,2.3676-3.1733,2.2861-4.5363,2.3105-4.5993.1167-9.0801.0102-13.8722.1526-1.3977.2702-4.5929-.4921-4.5469-2.3697.1908-1.5677.38-2.858.556-4.1477.0746-.4694,3.0545,1.9344,4.0678,1.6504.5376-2.5467,1.6487-5.7552,3.5941-12.5554,1.9363-6.2551,4.8704-16.1055,8.9551-19.3342,1.7593-1.2862,4.2848-.7609,5.356-.5527,2.2259.6364,4.3351,1.9851,6.0387,7.5165.7991,2.8601.4258,4.1814-.6565,2.7698Z"/><path class="cls-58" d="M217.8847,43.6717c-.0006-.0705-2.2208,1.991-3.7662,3.8248-.756.8461-1.2743.5757-1.0571-.8148,1.1227-6.6171,3.8664-18.1366,9.4732-22.0577,1.0612-.5074,2.0933-1.0743,4.289.725.4763.7425,1.1835,2.5578,1.549,3.7881.9749,3.461.2327,3.93-.655,2.7728-3.8114-4.5255-7.6087,3.2956-9.3164,9.7902-.3296,1.2011-.5153,1.9708-.5165,1.9716Z"/><path class="cls-54" d="M213.5911,47.927c-.0012-.0019-1.8436,1.9261-2.5224,2.8149-.3126.407-.2499.0355.0126-1.5176,1.4811-7.6016,4.6453-21.8798,10.7439-25.6379,1.1835-.7388,3.2306-.5643,3.2297-.5295.5914.5453,1.1832,1.2755,1.7637,2.2825.0266-.0485-2.8334-2.0132-5.1959-.0178-3.4424,1.9011-7.5313,14.184-8.0733,20.6626-.1282,1.2174.0431,1.9378.0417,1.9428Z"/><path class="cls-45" d="M169.3876,80.9805c-.0605.1809,3.9846,5.5083,7.6606,12.158,3.8161,6.6277,7.2744,14.5456,9.5977,19.28.2161.37,1.963,1.8088,2.7574,1.713.5104-.0734,1.0211-.1445,1.5308-.2125.7988-.1052,1.4895-.5327,1.6565-1.0312.3571-1.0597.7187-2.1075,1.0828-3.1417.5113,1.4497,1.0006,2.7698,1.4682,3.8514.1967.4309,1.8699,2.1775,2.6653,2.1354.5061-.0376,1.0124-.073,1.5186-.1062.7959-.0521,1.4883-.4617,1.6563-.9895.1017-.3123.2038-.6233.3056-.9328.9737.7621,1.9525,1.4682,2.2158,1.457.8748-.6996,1.7497-1.3899,2.6227-2.0669.0092.1497.0184.2997.0271.4501.1126.4827,3.0444,1.4485,3.6051,1.4543,1.6904-.2374,3.3803-.4505,5.0683-.6353.5602-.0442,4.873-3.4306,4.9819-3.8371.0887-.8144.1773-1.6132.2655-2.3983.3252,1.2671.6511,2.5657.9754,3.8956.1695.5061.8538.9067,1.6389.9647.5018.0375,1.0031.0773,1.505.1198.7839.0374,4.4094-1.1224,4.5796-1.537.2779-.8825.5578-1.7431.8396-2.5841.1068.6879.2133,1.3839.3184,2.0866.149.4977.7569,1.5038,1.4766,1.4985.2048-.3217,9.8167-4.3361,10.3813-4.0225.157-.0071.7374.0006,1.0497-.5109,3.4861-12.4669,8.2914-22.7996,14.517-34.2534.3993-.3719.4956-.8228.2722-1.321-8.2205-8.5551-15.3133-14.8465-21.3125-21.2125-.1163-.3091-.7929-.539-1.6075-.5516-.5195-.0081-1.0337-.0155-1.5437-.0217-.7988-.0099-1.5175.2006-1.7278.5006-.4049.6459-.8005,1.2848-1.1882,1.9163-.6646-.9227-1.3241-1.8526-1.9817-2.7964-.1766-.396-1.038-1.1617-2.17-1.0775-.525.0396-1.7223.194-2.2482.3088-.2234.0455-1.037.1877-1.4431.7547-1.3134.7548-2.5821,1.4968-3.8142,2.2271-.6456-.7407-1.2974-1.4922-1.9602-2.2559-.1335-.3785-.7325-1.1182-1.48-1.0325-.3452.0407-1.1388.1915-1.4871.3022-.1456.0453-.6911.1833-.9351.7327-.2193.3668-.4364.7297-.6512,1.0905-.1913-.2401-.3833-.4814-.5774-.7243-.1417-.3752-2.7156-1.4826-3.4672-1.4006-.3401.0392-1.1243.1908-1.4695.3001-.1429.0456-.6805.1833-.891.7319-.3631.4986-.7229.9917-1.0797,1.4806-.4648-.1823-.9413-.3606-1.4346-.5343-2.8672-1.0021-4.3054-3.1349-5.4418-3.1449-2.2598.0048-3.7668,1.8722-4.2645,2.0294-.8521.2795-1.9335.6274-2.9878.99-.4613-.4341-.9298-.8711-1.4059-1.311-.3258-.3968-1.5122-1.1632-2.7593-1.0529-.5703.0497-1.8988.2348-2.4887.3636-.2454.0544-1.171.2197-1.4803.8154-4.9879,5.4223-10.7619,10.7919-17.3982,17.5293-2.6207,4.592,4.1522,13.2392,4.4565,13.5591Z"/><path class="cls-42" d="M238.1985,69.2673c.0243.3919.0734.7966.142,1.1895,1.2448,12.4073-2.5994,24.1675-8.3831,37.4705-.1467.3904-.3526,1.0979-.3539,1.0994.0192-.0124,3.0423-4.368,3.1033-4.434.0338-.0312.1448-.1214.388-.6339-.0365-.0511,2.7429-6.2596,4.9071-13.0906,2.339-6.8468,3.4496-14.7748,4.1663-18.5966.1127-.4048.3638-2.6346.266-3.0617-3.1392-6.3359-7.2664-11.4704-11.8076-15.7965-.1511-.2462-.3896-.2477-.3912-.2468-.0006-.0008.1559.2893.1683.3538.0672.3468.1479.6345.2576.8929,3.2328,4.454,5.8413,9.3659,7.5373,14.8539Z"/><path class="cls-42" d="M185.7313,69.6262c.0523-.4069.0869-.8321.1061-1.2381.7965-5.4356,2.3214-10.6406,4.5289-15.8631.104-.3463.2854-1.022.1739-.9737-.0522.0219-.1932.1302-.2687.2164-.0307.0354-.1384.1379-.3505.6268-1.7853,2.875-3.3733,5.8102-4.7508,8.8872-1.2658,3.2267-2.5758,6.0171-2.5812,6.4543-.1758,4.9814.8957,13.1615,3.238,20.7323,2.1915,7.549,5.3828,15.2352,6.8547,19.217.1295.3422.7236,1.6843.7785,1.6485.0338-.0244.0679-.0495.1026-.0739.054-.0384.0099-.3417-.1057-.7255-5.189-14.7879-8.3657-26.3876-7.7258-38.9083Z"/><path class="cls-42" d="M196.3007,71.951c-.3559-.6341,4.3593-13.7672,4.9453-13.9751-.0003-.0097,1.4555-1.8311,2.1951-3.7377.3108-.8463,1.1709-2.486,1.1515-2.5027-.0618-.0284-.8741,1.37-.9458,1.493-.3601.5666-.9298,1.5145-1.1461,1.9688-1.9186,2.3407-3.648,4.7561-5.2296,7.319-1.1571,3.0197-2.4186,10.9622-2.3429,11.4353.0531.0059-.2502,6.3634.966,14.3046,1.008,7.7889,3.5721,18.3361,4.7967,23.3578.0963.4256.5277,2.1494.5522,2.1408.0141-.0078.0287-.0161.0424-.0245.0212-.0136-.0329-.3574-.1303-.8215-4.4191-17.3584-5.917-29.4009-4.8546-40.9577Z"/><path class="cls-42" d="M223.3541,69.9617c.0432-.4087-.9098-6.418-.9689-6.8126.0298-.0055-2.2926-6.4786-3.2558-9.6681-.1502-.5297-.538-.9971-.5384-.9962-.0002.0008-.1164.3056-.1133.4095.0057.1541.0161.3407.0946.6515,1.2629,4.7102,1.9343,15.1969,1.8831,15.1988-.0099.3846-.0036.7833.0195,1.1686.3885,9.5956.3141,19.4482-.6236,33.7291-.0169.3895.1416,4.4345.1988,4.487-.0003-.0012.7942-.9117.8615-1.248.0255-.132.7312-4.798.7668-5.1589,1.1556-13.0484,1.581-22.4622,1.6758-31.7607Z"/><path class="cls-42" d="M207.2815,69.594c-.0313-.3866,2.3063-7.4105,2.5297-7.7523.4381-2.8907,1.0521-5.8648,1.9176-9.0328.1302-.3255.4186-1.3143.3486-1.2584-.0317.0263-.1335.1403-.1937.2277-.0263.0361-.107.1441-.3281.6095-.1002.0507-2.8379,6.4435-3.7386,9.423-.1633.3405-2.3468,4.3997-2.3747,4.7845-.8548,4.0283-1.8952,12.6493-1.5655,22.3479.1123,9.4306,1.8376,21.2126,1.7808,21.2507.0537.4515.3991,2.9611.4352,2.9637.0533-.5849.109-1.1609.1672-1.729.0116-.0704-.4719-5.3169-.4868-5.6898-1.2616-16.0707-.6208-26.4314,1.5084-36.1447Z"/><path class="cls-34" d="M236.7848,69.774c.0374.3888.0807.7954.1337,1.1886,1.5915,11.9275-1.6133,23.6424-7.0348,37.1146-.1587.3938-.3746,1.1192-.3768,1.1198.0276-.0251,2.7124-4.8196,2.7468-4.8906.0243-.0404.025-.1252.2567-.6591.0921.051,2.3744-6.2764,3.9127-12.9796,1.6834-6.7276,2.522-14.2694,2.3973-17.9742.0515-.3969.0722-2.541-.0061-2.9485-1.7879-6.088-4.6814-11.4809-8.3074-16.3457-.1446-.2576-.2881-.2976-.288-.2987-.0007,0,.0576.3392.0784.4008.1204.3354.2932.6703.416.9341,2.8443,4.7537,4.9353,9.8468,6.0715,15.3385Z"/><path class="cls-34" d="M183.0466,69.9826c.0374-.4273.0713-.8684.0952-1.2945,1.5186-5.792,3.8291-11.1042,6.7466-16.2476.1153-.3459.6592-.896.659-.8951-.1568.0729-.3123.1469-.468.2212.0003.0005-.1099.1751-.4238.6062-2.3089,2.8314-4.4509,5.7963-6.405,9.0128-1.005,3.3681-1.8075,6.2251-1.8271,6.6674-.3697,5.0836,1.1954,13.3424,3.8862,20.7729,2.5533,7.4379,5.9851,14.8669,7.3753,18.8883.1231.3476.6599,1.7248.6909,1.7084.0169-.0138.0361-.0255.0532-.0384.0265-.0205-.038-.3074-.16-.6876-5.6874-14.3469-9.8649-25.7157-10.2227-38.7139Z"/><path class="cls-34" d="M196.7388,64.3403c.0223-.452,3.4245-6.2361,3.6612-6.5581.0027-.0144,2.1152-1.6837,2.8996-3.5643.3324-.8379,1.1916-2.4799,1.1804-2.4904-.0453-.0224-.8391,1.3861-.9041,1.5102-.3382.5716-1.0304,1.2793-1.2434,1.7355-2.0115,2.3117-3.8385,4.7135-5.5224,7.269-1.1527,3.0462-2.4602,11.0339-2.3883,11.5118.0515.0072-.1313,6.4705,1.2101,14.4511,1.1311,7.8393,3.8146,18.3946,5.0211,23.4199.0928.4277.5121,2.1555.5298,2.151.01-.0056.0205-.0111.0297-.017.0153-.0087-.0455-.3494-.1436-.8139-5.5406-21.0169-6.9351-34.6441-4.3301-48.6048Z"/><path class="cls-34" d="M220.6984,70.2219c.0256-.391-.4147-6.2775-.4621-6.6723.0244.0151-.8815-6.4511-1.4294-9.6962-.0821-.535-.3457-1.0134-.3438-1.0135.0012.0002-.022.2929-.0116.3952.0121.1536.0276.3371.0729.6511.7802,4.7474,1.2705,15.1605,1.2157,15.1643.0027.3814.0108.7796.0229,1.1622.6335,9.4487.7765,19.2532.0725,33.4527-.0232.3851.203,4.5649.2158,4.6087.0009-.0028.1002-1.2176.1421-1.5573.0208-.135.3485-4.881.3742-5.2405.6678-12.966.6102-22.2612.1308-31.2544Z"/><path class="cls-34" d="M207.8654,69.7704c-.0406-.3789,1.9305-7.4552,2.1596-7.8042.3612-2.921.9007-5.9317,1.6942-9.1492.1356-.3218.4131-1.3139.3678-1.2482-.021.0309-.0585.1634-.1079.2555-.0219.0375-.0193.1709-.233.6412-.0931.0798-1.6839,6.8389-2.5107,9.754-.1549.3479-1.6373,4.4676-1.6732,4.8309-.9398,3.9055-2.3869,12.0785-2.4878,21.3764-.3063,9.0234.9149,20.2983.8638,20.3245.0511.446.3454,2.6963.3609,2.7038-.0144-.4767-.0326-.9485-.0446-1.4135-.0094-.0623-.553-5.2127-.5702-5.5793-.9511-15.3538-.1064-25.3783,2.181-34.6918Z"/><path class="cls-34" d="M204.945,68.7308c-.0296-.4035,2.9616-7.2531,3.1799-7.5773.9072-2.7073,1.9903-5.4491,3.3163-8.3062.1336-.315.4955-1.2493.4515-1.1853-.0208.0296-.0937.1503-.1404.2389-.0189.0372-.0811.147-.2884.6034-.0917.0281-3.3176,5.9337-4.1346,8.8961-.1474.3291-2.7627,4.1006-2.8024,4.4843-.9508,3.9629-1.8169,12.6937-1.2879,22.3278.3053,9.3907,2.2779,21.0096,2.219,21.0504.0443.4263.4878,3.5099.5063,3.5251-.0706-.7661-.1373-1.5204-.1994-2.2616-.0078-.0602-.5169-5.1076-.5328-5.4699-1.8709-15.8199-1.8115-26.2428-.2871-36.3257Z"/></g><path class="cls-24" d="M69.6421,34.395c-10.3903,0-18.8133,5.5156-18.8133,12.3194,0,2.3338.9914,4.5158,2.713,6.3759l-3.0986,5.9435,9.5586-1.7402c2.8197,1.1041,6.1161,1.7402,9.6403,1.7402,10.3903,0,18.8133-5.5156,18.8133-12.3194s-8.423-12.3194-18.8133-12.3194Z"/><path class="cls-24" d="M132.9636,0c23.7027,0,42.9175,12.5823,42.9175,28.1034,0,5.3239-2.2617,10.3017-6.1889,14.5449l7.0686,13.5585-21.8055-3.9698c-6.4323,2.5188-13.9521,3.9698-21.9917,3.9698-23.7027,0-42.9174-12.5823-42.9174-28.1034,0-15.5211,19.2148-28.1034,42.9174-28.1034Z"/></g></svg>