<?xml version="1.0" encoding="UTF-8"?>
<svg id="Layer_2"
  xmlns="http://www.w3.org/2000/svg" viewBox="0 0 163.7574 156.7941">
  <defs>
    <style>.cls-1{fill:#D10069;}.cls-1,.cls-2,.cls-3{stroke-width:0px;}.cls-2{fill:#f2a259;}.cls-3{fill:#6579ff;}</style>
  </defs>
  <g id="Layer_1-2">
    <path class="cls-2" d="M139.3278,88.3675c-3.6647,3.1345-7.1037,2.6903-11.4084,4.0577-24.4934,7.7806-8.4328-3.7498-35.206-3.3755-31.0388.434-18.3233,1.1593-37.4556-12.0806-5.3654-3.713-23.9193-21.2736-21.9165-24.8014C5.3967,49.8882-3.1848,57.5837,1.0025,72.0484c12.0227,41.5312,130.0663,88.9882,138.3252,16.319Z"/>
    <path class="cls-3" d="M162.6769,89.8535c7.7333-27.0424-27.4655-47.005-60.3164,20.5477-12.4506,25.6026,50.5523,45.7114,46.3104,46.393-53.8515-38.4187,3.2139-29.137,14.0059-66.9407Z"/>
    <path class="cls-1" d="M.0314,37.2315c4.6405,20.4428,13.9843,32.5873,30.1231,34.2451-4.0479,15.7377,8.0298,9.0118,17.6863,9.1715,20.4772,34.7454,32.7875,12.7149,53.2052,20.4701,10.2648,3.8989,21.7636,3.0152,31.5043-2.0529C242.8318,41.6859-3.1916-52.8808.0314,37.2315Z"/>
  </g>
</svg>